<?xml version="1.0" encoding="UTF-8"?>
<svg id="ikr_svg" xmlns="http://www.w3.org/2000/svg"
    xmlns:xlink="http://www.w3.org/1999/xlink" viewBox="0 0 1025.04 1156.8">
    <defs>
        <style>.cls-1,.cls-2,.cls-3,.cls-4,.cls-5,.cls-6,.cls-7,.cls-8,.cls-9,.cls-10{stroke-miterlimit:10;}.cls-1,.cls-6{stroke:#9ca3af;}.cls-1,.cls-11{fill:#9ca3af;}.cls-12{font-size:4.75px;}.cls-12,.cls-13,.cls-14,.cls-15,.cls-16,.cls-17,.cls-18{fill:#fff;}.cls-12,.cls-14,.cls-19,.cls-20,.cls-15,.cls-16,.cls-21,.cls-22,.cls-17,.cls-23,.cls-24,.cls-25,.cls-18,.cls-26{font-family:ArialMT, Arial;}.cls-2{fill:#ff7f00;}.cls-2,.cls-3,.cls-4,.cls-27,.cls-7,.cls-8,.cls-28,.cls-9,.cls-10{stroke:#000;}.cls-2,.cls-4,.cls-7,.cls-8{stroke-width:.25px;}.cls-3,.cls-8{fill:#ff7fff;}.cls-29{font-size:3.72px;}.cls-29,.cls-30{font-family:MyriadPro-Regular, 'Myriad Pro';}.cls-29,.cls-30,.cls-21{fill:#231f20;}.cls-4,.cls-6,.cls-10{fill:#ffbf7f;}.cls-14,.cls-25,.cls-31,.cls-26{font-size:5.29px;}.cls-5{fill:none;stroke:#ff7f00;stroke-width:40px;}.cls-19{font-size:6.17px;}.cls-32{fill:#5cb800;}.cls-20{fill:#fff5f8;}.cls-20,.cls-22{font-size:6.61px;}.cls-30{font-size:3.7px;}.cls-33{fill:#ff0d0d;}.cls-27{fill:#ffff7f;}.cls-27,.cls-28{stroke-linecap:round;stroke-linejoin:round;stroke-width:0px;}.cls-15{font-size:11.9px;}.cls-16{font-size:6.25px;}.cls-34{fill:#7fffbf;}.cls-21{font-size:4.75px;}.cls-7{fill:#ff007f;}.cls-17{font-size:5.09px;}.cls-23{fill:#fcfcfc;}.cls-23,.cls-18{font-size:10.52px;}.cls-28,.cls-9{fill:#bfff7f;}.cls-24{font-size:5.29px;}.cls-31{font-family:MicrosoftSansSerif, 'Microsoft Sans Serif';}.cls-26{fill:#f7f2f3;}</style>
    </defs>
    <g id="Layer_1">
        <image width="4271" height="4820" transform="scale(.24)" xlink:href="NODE 5 (1) copy-01.png"/>
    </g>
    <g id="shape">
        <polygon id="Node_5__F_18" class="cls-9" points="180.87 909.79 180.82 910.34 180.82 912.04 180.76 912.98 180.65 919.35 180.6 920.55 180.43 935.76 180.32 935.76 166.82 938.29 151.55 932.52 135.36 924.45 129.43 922.58 122.78 920.55 109.06 920.99 97.86 919.35 82.58 913.57 77.86 908.36 70.37 855.68 130.9 866.03 128.33 868.61 125.2 883.88 130.85 896.89 138.98 904.41 144.58 907.76 148.92 910.34 149.41 910.4 159.79 912.04 172.42 910.4 173.52 910.34 180.87 909.79"/>
        <polygon id="Node_5__F_17" class="cls-9" points="231.27 917.09 216.89 921.87 203.16 931.04 195.7 935.32 180.44 935.76 180.71 917.09 180.87 909.79 193.12 907.38 199.92 905.78 207.67 903.86 217.16 899.14 225.89 898.37 226.23 899.53 228.3 906.75 228.47 907.38 228.74 908.27 231.27 917.09"/>
        <polygon id="Node_5__F_16" class="cls-9" points="232.77 830.88 216.3 837.19 185.39 845.7 158.49 848.72 144.43 855.58 137.57 858.99 130.91 865.69 70.39 855.33 90.25 806.42 161.89 818.03 232.77 830.88"/>
        <polygon id="Node_5__58" class="cls-27" points="417.67 912.54 436.09 921.8 433.85 931.27 433.83 931.26 415.06 924.4 415.5 921.87 415.55 921.27 415.58 920.89 415.58 920.79 415.65 919.83 415.77 918.03 415.94 915.72 416.04 914.52 417.67 912.54"/>
        <polygon id="Node_5__F_00" class="cls-27" points="367.02 851.1 364.82 862.85 362.2 876.66 359.78 875.58 364.38 851.38 367.02 851.1"/>
        <polygon id="Node_5__F_12" class="cls-27" points="417.59 891.51 400.34 901.39 396.72 888.91 413.17 883.79 414.18 885.8 417.04 890.58 417.59 891.51"/>
        <polygon id="Node_5__25" class="cls-27" points="530.63 914.94 530.41 915.39 521.84 919.46 518.77 920.88 513.17 919.46 510.21 915.39 508.67 913.25 506.09 909.74 504.17 907.05 511.8 902.54 514.7 899.52 530.63 914.94"/>
        <polygon id="Node_5__24" class="cls-27" points="537.71 900.95 530.63 914.94 514.7 899.52 521.9 892 523.22 889.7 537.71 900.95"/>
        <polygon id="Node_5__0" class="cls-27" points="549.41 888.87 549.08 889.7 548.31 892 544.63 902.54 543.64 905.51 543.09 907.05 542.16 909.74 540.62 913.25 539.74 915.39 537.93 919.46 537.33 920.88 537.27 921.05 537.11 920.88 535.35 919.46 530.41 915.39 530.63 914.94 537.71 900.95 544.08 884.77 549.41 888.87"/>
        <polygon id="Node_5__22" class="cls-27" points="557.48 863.67 555.23 866.86 548.58 876.3 548.42 876.19 544.08 884.76 532.83 876.08 531.29 874.93 532.63 872.15 535.19 866.86 541.72 853.68 557.48 863.67"/>
        <polygon id="Node_5__1" class="cls-27" points="488.74 870.71 488.52 886.79 466.9 886.52 466.12 870.17 488.74 870.71"/>
        <polygon id="Node_5__2" class="cls-27" points="488.52 886.79 488.28 903.68 480.39 904.96 471.39 905.67 470.56 904.96 469.08 903.59 467.49 902.16 467.43 901.17 467.43 899.8 467.27 896.07 467.16 891.95 466.9 886.52 488.52 886.79"/>
        <polygon id="Node_5__3" class="cls-27" points="503.35 898.03 500.38 899.8 497.3 901.17 493.79 902.16 488.85 903.59 488.28 903.68 488.52 886.79 488.74 870.71 500.56 871 503.35 898.03"/>
        <polygon id="Node_5__4" class="cls-27" points="516.93 884.07 515.26 887.06 510.64 891.95 506.64 896.07 503.35 898.03 500.56 871 504.17 871.08 505.48 869.66 506.59 868.5 516.93 884.07"/>
        <polygon id="Node_5__5" class="cls-27" points="524.7 869.66 524.04 871.08 522.94 873.34 516.93 884.07 506.59 868.5 513.22 861.59 524.09 869.23 524.7 869.66"/>
        <polygon id="Node_5__117" class="cls-27" points="432.66 653.93 415.17 655.63 415.15 655.64 415.13 655.64 415.09 655.14 414.41 645.59 431.91 644.5 432.5 651.97 432.64 653.69 432.66 653.93"/>
        <polygon id="Node_5__1-2" class="cls-10" points="743.05 807.72 730.04 801.46 725.81 799.43 718.07 789.6 717.74 786.91 716.31 774.67 717.63 759.18 718.18 752.65 721.47 744.52 719.39 731.9 716.48 721.74 716.26 712.13 711.15 704.44 709.17 701.37 707.97 698.68 705.55 693.13 703.02 687.37 702.97 684.08 702.7 673.97 702.64 672 704.84 663.38 706.15 658.11 707.8 649.93 709.89 639.49 707.86 633.12 702.64 616.6 700.99 611.44 695.67 616.6 688.26 633.12 685.84 639.49 681.94 649.93 679.03 658.11 677.11 663.38 674.31 672 673.71 673.97 670.96 684.08 669.64 687.37 667.34 693.13 663.77 698.68 661.35 701.37 658.66 704.44 654.43 712.13 649.11 721.74 647.85 731.9 646.31 744.52 645.27 752.65 644.5 759.18 645.7 774.67 646.69 786.91 647.85 789.6 651.91 799.43 652.73 801.46 655.04 807.72 655.26 808.43 659.16 819.19 659.98 838.03 654.54 849.12 646.69 856.86 633.96 883.6 633.52 895.79 633.52 897.16 633.35 900.95 633.35 902.1 647.13 905.17 647.9 902.1 648.31 901.31 651.84 898.66 652.25 897.87 657.45 897.16 660.57 898.72 663.55 900.35 673.1 906.02 691.17 915.99 697.59 905.17 700.72 899.79 702.31 897.16 703.08 895.79 710.33 883.6 726.14 856.86 730.7 849.12 737.28 838.03 748.38 819.19 754.8 808.43 743.05 807.72"/>
        <polygon id="Node_5_" class="cls-4" points="490.22 508.97 468.75 504.03 464.58 508.97 453.6 522.04 444.16 535.22 442.62 537.36 433.67 542.14 433.62 552.9 433.56 566.29 433.45 588.53 433.4 593.8 448.46 618.62 458.76 610.99 458.82 602.26 458.82 599.57 459.42 597.7 460.57 593.97 460.63 593.8 462.28 588.53 481.66 566.29 491.05 552.9 493.79 542.14 495 537.36 495.55 535.22 492.86 522.04 490.22 508.97"/>
        <polygon id="Node_5__1-3" class="cls-10" points="655.92 913.67 649.11 924.76 648.68 926.63 645.12 934.69 631.3 957.08 615.99 968.95 595.2 976.59 583.5 984.28 569.17 992.46 555.12 1003.39 510.27 1025.83 601.02 1068.12 622.65 1031.66 623.58 1030.07 628.74 1021.39 639.4 1003.39 645.88 992.46 650.71 984.28 655.26 976.59 658.45 971.27 665.75 958.97 679.7 935.41 684.86 926.63 680.63 924.76 655.92 913.67"/>
        <polygon id="Node_5__7756" class="cls-2" points="543.48 709.94 538.81 688.04 538.21 685.07 537.82 683.31 526.84 685.07 525.09 683.31 522.73 680.95 514.05 672.22 512.4 670.58 510.98 664.87 504.99 640.98 485.63 663.58 484.14 669.29 483.7 670.94 485.83 680.95 486.05 683.31 486.16 685.07 486.43 688.04 490.5 709.94 490.61 710.77 491.27 716.31 491.43 718.84 489.48 724.96 523.22 733.28 531.07 724.33 535.85 718.84 538.32 716.31 543.64 710.77 543.48 709.94"/>
        <polygon id="Node_5__3-2" class="cls-2" points="591.36 956.57 581.64 937.74 569.61 956.57 566.1 959.43 558.74 965.47 552.48 970.63 550.78 978.37 549.08 985.94 547.76 991.98 543.59 1003.57 557.59 991.98 565.37 988.14 578.34 978.37 596.02 970.63 607.72 965.47 592.89 959.43 591.36 956.57"/>
        <polygon id="Node_5__1C" class="cls-8" points="433.67 543.89 433.61 555.31 433.59 559.43 433.56 563.2 433.53 568.01 433.39 589.08 433.39 593.8 426.48 593.03 405.89 609.06 404.02 616.04 403.36 623.34 403.2 624.71 382.22 623.67 375.64 623.34 376.79 616.04 377.89 609.06 378.48 605.45 379.15 601.38 380.03 595.83 380.36 593.8 380.47 593.03 381.13 589.08 381.14 588.77 381.73 564.32 381.95 555.33 381.95 555.31 383.82 553.56 384.34 553.06 394.08 543.89 396.28 541.81 433.66 543.89 433.67 543.89"/>
        <polygon id="Node_5__1B" class="cls-3" points="436.47 780.09 435.81 781.74 431.26 789.1 425.6 798.15 424.83 799.36 420.44 808.86 418.3 813.58 417.86 814.41 415.72 820.72 414.89 826.27 411.36 829.31 411.74 834.31 459.65 839.14 460.19 833.24 460.68 828.24 461.18 826.27 462.66 820.72 464.31 814.41 464.58 813.58 465.68 808.86 467.88 799.36 468.21 798.15 472.54 789.1 476.11 781.74 476.94 780.09 438.61 774.6 436.47 780.09"/>
        <polygon id="Node_5__1A" class="cls-3" points="412.42 838.34 415.69 866.39 420.49 874.03 421.98 878.86 429.28 891.16 429.88 891.66 441.96 901.87 442.68 902.47 453.82 904.83 456.68 902.47 457.39 901.87 457.06 891.66 457.06 891.16 457.5 878.86 457.66 874.03 457.99 865.52 458.38 855.25 458.54 850.48 458.6 849.82 459.21 843.92 439.83 841.58 412.42 838.34"/>
        <polygon id="Node_5__1-4" class="cls-32" points="754.59 436.12 743.82 429.64 722.19 436.12 712.97 438.86 706.87 440.67 692.1 455.88 690.4 461.65 687.77 470.71 686.39 473.84 683.43 480.59 676.57 491.57 676.35 491.9 668.22 501.56 666.63 502.83 658.34 509.03 647.91 513.75 635.83 514.63 629.68 515.07 618.86 513.92 608.65 509.8 602.89 505.08 602.72 504.97 602.67 505.08 599.37 509.8 596.46 513.92 595.69 515.07 593.5 518.2 585.04 530.28 583.45 532.58 567.8 513.2 562.37 506.45 561.27 505.08 560.44 506.45 559.79 513.2 562.7 532.58 563.63 538.79 564.56 545.05 564.07 548.83 563.35 554 592.23 560.53 635.5 570.41 653.73 574.53 655.7 570.41 659.22 560.53 663.28 554 666.52 548.83 671.63 545.05 680.19 538.79 694.63 532.58 699.96 530.28 721.86 518.2 725.32 515.07 725.76 514.63 725.93 513.75 726.69 509.03 727.68 502.83 727.9 501.56 729.49 491.9 729.55 491.57 733.12 480.59 735.31 473.84 737.07 470.71 742.07 461.65 745.42 455.88 754.15 440.67 755.19 438.86 754.59 436.12"/>
        <polygon id="Node_5__Z" class="cls-34" points="475.91 742.81 470.49 742 444.05 741.82 443.22 742.54 438.34 746.71 438.78 750.28 439.77 758.35 439.82 765.27 439.82 766.75 438.61 774.6 476.94 780.09 478.03 774.6 479.68 766.75 479.95 765.27 480.28 758.35 480.67 750.28 475.91 742.81"/>
        <polygon id="Node_5__114_Y" class="cls-7" points="449.12 994.34 448.93 994.72 447.18 1000.26 439.93 1021.39 435.72 1033.76 435.62 1034.04 428.29 1055.6 425.98 1062.24 401 1055.6 404.13 1045.61 409.31 1029.05 411.71 1021.39 412.64 1018.43 427.25 1021.39 431.53 1000.26 431.86 998.66 432.68 994.71 434.32 986.5 449.12 994.34"/>
        <polygon id="Node_5__60" class="cls-27" points="431.7 941.12 429.6 951.46 429.55 951.45 410.39 946.51 408.3 932.07 408.02 929.37 408.14 929.37 410.01 929.16 411.93 934.98 431.69 941.12 431.7 941.12"/>
        <polygon id="Node_5__61" class="cls-27" points="429.6 951.46 427.57 961.44 417.25 958.64 406.93 955.78 398.37 953.42 401.33 944.97 402.26 936.57 402.43 934.65 401.11 926.08 401.82 927.01 403.47 928.39 405.94 929.37 408.02 929.37 408.3 932.07 410.39 946.51 429.55 951.45 429.6 951.46"/>
        <polygon id="Node_5__114_X" class="cls-27" points="409.46 912.63 404.02 914.61 403.09 915.21 401.77 916.36 401.09 917.18 401.08 917.19 400.73 917.57 400.67 917.68 399.96 919.82 399.86 920.38 399.86 920.39 399.85 920.43 399.85 920.46 399.74 921.08 399.79 922.73 400.12 924.16 401.11 926.08 399.33 923.23 399.02 922.73 398.66 922.17 395.79 917.57 389.86 910.93 387.78 908.31 400.34 901.15 409.46 912.63"/>
        <polygon id="Node_5__114_W" class="cls-27" points="396.82 888.88 400.44 901.12 387.88 908.28 383.97 903.32 378.09 895.08 372.88 885.53 381.11 862.58 390.78 868.73 391.89 872.46 395.33 884.05 411.54 878.99 412.79 883.01 413.24 883.77 396.82 888.88"/>
        <polygon id="Node_5__114_V" class="cls-27" points="381.02 862.61 372.78 885.56 369.98 883.04 363.45 877.22 362.2 876.66 364.82 862.61 381.02 862.61"/>
        <polygon id="Node_5__114_U" class="cls-27" points="364.38 851.14 359.78 875.58 353.73 872.88 335.78 866.1 357.99 850.24 359.71 851.63 364.38 851.14"/>
        <polygon id="Node_5__114_T" class="cls-27" points="423.71 897.31 420.49 899.62 417.09 903.02 412.48 908.51 409.46 912.63 400.34 901.15 417.59 891.27 418.25 892.37 423.71 897.31"/>
        <polygon id="Node_5__114_S" class="cls-27" points="357.99 850.24 335.78 866.1 332.81 864.97 315.79 857.67 314.36 851.8 314.31 851.63 313.65 848.83 313.1 846.74 342.75 837.03 355.48 842.02 355.98 846.74 356.25 848.83 357.99 850.24"/>
        <polygon id="Node_5__114_R" class="cls-28" points="417.97 465.6 403.09 470.87 398.48 465.6 392 458.24 381.46 437.05 368.66 422.72 354.39 412.67 343.52 411.47 337.59 410.86 336.49 411.47 335.24 412.23 335.22 412.24 329.3 415.69 272.14 384.12 272.53 383.68 290.37 363.04 298.93 353.05 306.73 340.8 327.59 307.86 342.03 340.8 338.41 363.04 349.89 383.68 380.36 394.01 389.55 412.01 389.58 412.06 389.86 412.67 395.02 422.72 395.19 423.05 395.81 424.26 404.02 440.34 417.97 465.6"/>
        <polygon id="node_5_20" class="cls-27" points="583.5 842.02 573.18 849.32 570 851.84 569.03 852.61 548.8 838.34 553.85 829.28 558.91 828.02 560.83 829.22 561.65 828.02 562.25 827.14 563.46 828.02 565.22 829.22 565.27 829.28 580.12 839.65 580.54 839.94 583.5 842.02"/>
        <polygon id="Node_5__21" class="cls-27" points="569.03 854.21 557.48 863.44 541.72 853.44 543.04 850.92 546.77 843.61 546.88 843.34 548.8 839.94 569.03 854.21"/>
        <polygon id="Node_5__114_Q" class="cls-28" points="291.74 1026.56 186.39 998.54 198.02 943.16 207.52 937.61 220.53 928.94 232.99 924.76 237.61 924.32 237.39 924.76 236.46 926.77 230.47 939.59 230.26 943.53 230.25 943.6 230.24 943.88 230.03 947.77 233.98 962.48 239.91 969.73 254.02 977.97 269.07 984.61 282.9 992.51 291.74 1026.56"/>
        <polygon id="Node_5__114_P" class="cls-28" points="198.02 943.16 186.39 998.54 186.38 998.54 88.62 973.73 82.6 930.07 82.38 928.82 82.14 927.49 82.06 926.96 81.68 924.87 84.86 922.24 89.59 924.32 90.85 924.87 95.62 926.96 108.58 928.88 121.7 928.44 123.08 928.88 132.3 931.74 148.28 939.7 181.22 943.6 198.02 943.16"/>
        <polygon id="Node_5__7" class="cls-27" points="546.36 827.45 543.48 832.63 533.88 829.16 533.92 829.07 534.36 825.83 534.79 822.47 534.87 821.84 534.94 821.31 535.19 819.51 546.36 827.45"/>
        <polygon id="Node_5__6" class="cls-27" points="543.48 832.63 539.69 839.44 537.93 842.85 533.59 851.36 533.04 852.47 532.61 853.28 530.79 856.96 521.9 851.36 527.77 842.85 528.21 841.86 529.09 840.54 533.77 829.4 533.79 829.36 533.88 829.16 543.48 832.63"/>
        <polygon id="Node_5__14" class="cls-27" points="598.49 731.94 597.23 742.87 594.15 769.88 594.15 769.93 591.85 769.88 591.52 769.93 588.28 770.76 581.36 741.16 598.49 731.94"/>
        <polygon id="Node_5__12" class="cls-27" points="583.34 776.3 576.23 785.76 575.71 786.46 557.9 773.15 557.9 773.14 559.51 770.76 559.79 770.29 564.18 763.74 564.19 763.73 565.88 762.36 583.34 776.3"/>
        <polygon id="Node_5__11" class="cls-27" points="575.71 786.46 567.95 796.39 550.74 783.79 550.74 783.78 556.87 774.66 557.9 773.15 575.71 786.46"/>
        <polygon id="Node_5__10" class="cls-27" points="567.95 796.39 565.71 799.25 560.31 806.41 543.22 793.96 547.29 788.59 549.24 786.02 550.74 783.79 567.95 796.39"/>
        <polygon id="Node_5__17" class="cls-27" points="599.91 825.66 598.66 831.81 592.84 838.95 566.54 822.48 565.71 821.69 565.35 820.72 565.22 818.94 565.11 813.64 571.15 805.68 599.91 825.66"/>
        <polygon id="Node_5__16" class="cls-27" points="600.8 821.32 599.91 825.66 571.15 805.68 573.02 803.21 582.18 809.24 597.39 803.67 597.7 805.28 597.78 805.68 599.31 813.64 599.39 814 600.8 821.32"/>
        <polygon id="Node_5__15" class="cls-27" points="597.39 803.67 582.18 809.24 573.02 803.21 581.36 792.99 588.83 785.47 593.93 785.69 597.39 803.67"/>
        <polygon id="Node_5__122" class="cls-27" points="444.18 699.28 427.29 704.44 424.27 695.49 441.18 690.33 444.18 699.28"/>
        <polygon id="Node_5__123" class="cls-27" points="447.18 708.27 430.28 713.43 429.83 711.95 427.29 704.44 444.18 699.28 444.38 699.88 446.68 706.57 447.18 708.27"/>
        <polygon id="Node_5__124" class="cls-27" points="449.43 717.5 432.96 722.5 431.97 718.93 430.28 713.43 447.18 708.27 447.94 710.86 448.15 711.52 448.99 714.32 449.43 717.5"/>
        <polygon id="Node_5__114_O" class="cls-28" points="310.63 440.34 309.92 442.65 310.41 457.31 313.33 463.79 313.49 464.14 314.14 465.6 314.52 466.42 314.61 466.62 317.49 473.01 235.41 440.07 239.09 430.52 244.2 417.28 244.8 415.69 245.95 412.67 246.39 411.47 247.11 410.86 256.6 402.13 263.63 394.01 272.14 384.12 329.3 415.69 324.36 417.28 313.92 430.52 310.74 440.07 310.63 440.34"/>
        <polygon id="Node_5__114_N" class="cls-28" points="287.79 486.08 281.69 501.67 285.1 518.64 291.52 527.92 268.96 518.64 227.67 501.67 291.52 527.92 213.72 495.96 214.15 494.85 214.33 494.41 218.12 484.93 231.43 450.35 231.53 450.08 231.53 450.07 231.54 450.04 231.95 448.98 232.17 448.43 232.24 448.23 234.42 442.65 235.09 440.9 235.12 440.81 235.41 440.07 317.49 473.01 300.25 475.59 287.79 486.08"/>
        <path id="Node_5__114_M" class="cls-28" d="m314.25,536.43l-.88-.11-10.16-1.48-11.69-6.92-77.8-31.95-17.68,44.25,71.98,28.77,9.55-7.03,15.48-4.83,15.98-2.69,3.62-.6,19.71.6,1.32-18.12-19.44.11Zm-84.11,17.4l1.54.6,6.68,2.68-8.22-3.29Z"/>
        <polygon id="Node_5__114_L" class="cls-28" points="322.87 609.56 319.63 612.91 315.3 615.6 314.86 615.82 314.31 616.09 313.32 616.59 311.67 616.7 305.41 617.25 303.88 617.41 292.4 617.25 285.81 616.7 284 616.59 278.24 616.09 273.51 615.82 269.07 615.98 266.04 616.39 266.02 616.39 265.83 616.42 265.38 616.53 265.32 616.54 261.54 617.32 261.52 617.33 261.38 617.36 257.87 618.62 250.56 621.2 175.73 591.11 179.96 580.57 184.57 568.98 187.37 561.96 196.04 540.22 268.02 568.98 262.2 580.57 261.93 591.11 261.93 592.59 266.39 599.56 270.82 603.63 276.48 606.48 282.57 608.35 286.97 609.12 292.79 609.34 297.45 609.12 304.86 608.68 309.09 608.68 315.84 609.12 320.13 609.34 322.87 609.56"/>
        <polygon id="Node_5__114_K" class="cls-28" points="250.56 621.2 235.47 623.67 225.91 630.09 219.98 639.21 217.51 652.11 220.04 661.99 150.36 654.47 150.41 654.36 151.35 652.11 156.51 639.21 159.02 632.9 160.71 628.67 162.72 623.67 163.71 621.2 164.49 619.2 164.69 618.7 164.96 618.02 166.31 614.64 167.92 610.62 175.73 591.11 250.56 621.2"/>
        <polygon id="Node_5__114_J" class="cls-28" points="201.81 693.18 178.86 708.11 191.58 699.86 172.38 712.34 134.77 693.18 134.91 692.83 142.18 674.89 144.71 668.58 147.34 661.99 150.29 654.66 150.36 654.47 220.04 661.99 223.44 668.58 229.98 674.89 201.81 693.18"/>
        <polygon id="Node_5__114_I" class="cls-28" points="302.83 683.35 271.1 708.33 264.4 713.6 241.83 717.06 176.77 720.96 164.91 727.22 137.54 712.76 136.75 712.34 128.75 708.12 134.77 693.18 172.38 712.34 191.58 699.86 217.02 683.35 223.94 678.85 223.99 678.79 228.71 675.72 229.98 674.89 241.34 678.79 251.28 678.85 264.41 675.61 267.42 674.89 270.66 674.07 283.4 674.89 296.9 675.72 299.32 678.83 299.32 678.85 302.83 683.35"/>
        <polygon id="Node_5__114_H" class="cls-28" points="403.91 245.71 399.3 298.36 377.45 303.41 363.12 309.01 356.25 315.21 348.98 302.28 348.79 301.92 346.81 298.36 341.59 289.03 351.2 276.34 355.65 272.55 370.36 260.04 403.91 245.71"/>
        <polygon id="Node_5__114_G" class="cls-28" points="403.14 237.58 366.03 253.45 365.26 254.06 345.22 271.08 337.58 281.16 337.55 281.2 337.15 281.73 320.4 254.06 332.26 233.14 348.29 220.56 362.95 198.27 383.61 188.98 403.14 237.58"/>
        <polygon id="Node_5__114_F" class="cls-28" points="464.14 181.31 435.15 245.11 403.14 237.58 383.61 188.98 416.04 174.39 445.31 173.02 464.14 181.31"/>
        <polygon id="Node_5__114_E" class="cls-28" points="496.03 253.32 455.74 269.43 435.15 245.11 464.14 181.31 475.34 186.25 485.11 218.31 488.32 228.34 488.4 228.6 489.78 233.14 491.15 237.58 492.28 241.18 492.32 241.3 496.03 253.32"/>
        <polygon id="Node_5__114_D" class="cls-28" points="512.35 325.76 470.4 336.14 468.86 331.52 465.46 328.83 464.96 325.76 464.1 320.53 463.98 319.8 463.94 319.55 463.9 319.31 455.74 269.43 496.03 253.32 498.01 259.75 498.51 261.38 500.98 269.43 509.55 297.15 512.35 325.76"/>
        <polygon id="Node_5__114_C" class="cls-28" points="560.28 353.54 557.15 359.03 553.36 365.68 553.2 366 547.1 376.77 536.18 369.93 529.92 366 529.37 365.68 505.37 359.03 502.74 360.13 488.9 366 475.67 379.9 474.85 377.42 474.85 377.42 463.76 343.93 466.78 342.67 467.22 342.51 469.58 339.65 470.4 336.14 512.35 325.76 520.71 330.82 520.98 330.99 521.09 331.06 521.1 331.07 521.84 331.52 526.57 334.38 551.27 337.51 554.73 337.95 554.73 337.94 554.79 337.95 555.34 339.65 556.38 342.51 556.43 342.67 556.87 343.93 560.28 353.54"/>
        <polygon id="Node_5__114_B" class="cls-28" points="509.22 428.16 508.83 428.32 490.22 437.82 473.91 446.77 462.49 428.32 458.01 409.18 455.74 399.22 453.93 396.48 447.51 386.59 474.85 377.42 475.67 379.9 476.49 396.48 485.99 411.96 509.22 428.16"/>
        <polygon id="Node_5__114_A" class="cls-28" points="474.85 377.42 474.85 377.42 447.51 386.59 445.25 383.11 442.17 378.35 434.22 366 430.37 360.13 430.37 353.54 430.35 348.59 430.32 337.73 428.89 332.33 428.66 331.42 428.67 331.41 455.52 319.06 457.33 330.15 454.7 334.93 455.14 338.99 458.05 342.67 463.76 343.93 474.85 377.42"/>
        <polygon id="Node_5__114" class="cls-28" points="455.52 319.06 428.67 331.41 428.66 331.42 428.34 330.15 425.43 319.23 415.39 303.74 399.3 298.8 403.91 246.15 430.65 252.46 437.4 260.48 448 273 448.6 276.79 450.44 287.94 450.45 287.99 450.63 289.07 450.69 289.47 455.52 319.06"/>
        <polygon id="Node_5__F_14" class="cls-27" points="411.54 688.9 408.03 689.77 407.16 690 396.5 692.68 394.33 689.97 394.19 689.77 393.48 688.9 392.69 687.91 387.6 681.54 385.57 679.62 408.03 675.5 409.29 681.54 409.4 681.98 411.54 688.9"/>
        <polygon id="Node_5__F_13" class="cls-27" points="408.03 675.5 385.57 679.62 385.56 679.62 374.32 669.02 371.41 666.27 371.44 665.72 405.72 661.99 406.03 664.2 406.03 664.21 406.05 664.41 406.08 664.53 406.08 664.55 406.71 669.02 408.03 675.5"/>
        <polygon id="Node_5__F_12-2" class="cls-27" points="405.72 661.99 371.44 665.72 371.46 665.29 371.52 664.41 371.57 663.42 371.6 662.86 371.66 661.56 371.74 660.73 371.9 657.76 372.23 651.18 404.52 649.91 405.12 657.76 405.72 661.99"/>
        <polygon id="Node_5__F_11" class="cls-27" points="404.52 649.91 372.23 651.18 372.62 649.75 373.22 647.39 374.14 643.6 376.07 635.91 376.38 635.31 403.64 636.02 403.91 641.73 404.35 647.39 404.42 648.41 404.44 648.69 404.52 649.91"/>
        <polygon id="Node_5__F_10" class="cls-27" points="403.64 636.02 376.38 635.31 382.22 623.67 403.2 624.71 403.64 636.02"/>
        <polygon id="Node_5__F_9" class="cls-27" points="381.02 862.61 364.82 862.61 367.02 850.86 369.1 850.64 374.21 843.48 378.99 843.13 381.02 862.61"/>
        <polygon id="Node_5__F_8" class="cls-27" points="394.04 860.22 381.02 862.61 378.99 843.13 391.28 841.58 394.04 860.22"/>
        <polygon id="Node_5__F_7" class="cls-27" points="370.79 826.39 368.77 827.36 362.74 835.48 362.74 835.48 358.01 835.98 356.95 837.29 345.77 831.92 346.15 831.48 350.82 825.99 356.36 819.46 363.06 811.5 370.79 826.39"/>
        <polygon id="Node_5__F_6" class="cls-27" points="405.74 826.05 406 832.37 405.45 832.81 404.96 833.22 404.9 833.27 401.33 836.16 371.68 838.34 370.04 837.03 368.94 836.17 367.45 834.99 364.71 835.27 362.74 835.48 368.77 827.36 370.79 826.39 380.85 821.54 385.85 821.13 385.85 821.13 388.39 820.91 406.87 819.37 405.74 826.05"/>
        <polygon id="Node_5__114-2" class="cls-27" points="355.21 839.44 355.48 842.02 342.75 837.03 343.64 835.51 343.69 835.44 345.77 831.92 356.95 837.29 355.21 839.44"/>
        <polygon id="Node_5__111" class="cls-27" points="446.46 661.55 448.49 670.44 447.89 670.67 436.25 675 435.69 672.26 433.82 663.04 433.51 661.5 456.21 652.61 457.72 654.31 448.16 658.48 446.46 661.55"/>
        <polygon id="Node_5__110" class="cls-27" points="467.16 661.66 456.62 667.43 451.44 669.35 451.44 669.35 448.49 670.44 446.46 661.55 448.16 658.48 457.72 654.31 459.58 656.39 467.16 661.66"/>
        <polygon id="Node_5__112" class="cls-27" points="456.21 652.61 452.57 654.04 433.51 661.5 433.12 659.58 432.66 653.69 432.5 651.73 446.69 646.22 450.03 644.92 451.4 647.22 456.21 652.61"/>
        <polygon id="Node_5__113" class="cls-27" points="450.03 644.92 446.69 646.22 432.5 651.73 431.91 644.26 431.58 640.09 442.76 637.71 445.54 637.12 446.41 638.82 446.46 638.88 450.03 644.92"/>
        <polygon id="Node_5__114-3" class="cls-27" points="445.54 637.12 442.76 637.71 431.58 640.09 431.38 634.81 430.92 623.12 438.9 622 440.31 621.8 440.53 623.12 440.81 624.49 441.14 625.59 443.33 632.78 445.54 637.12"/>
        <polygon id="Node_5__115" class="cls-27" points="431.38 634.81 413.74 635.91 413.63 632.78 413.36 625.83 413.35 625.59 430.92 623.12 431.38 634.81"/>
        <polygon id="Node_5__116" class="cls-27" points="431.91 644.26 414.41 645.35 413.75 636.05 413.74 635.94 413.74 635.91 431.38 634.81 431.58 640.09 431.91 644.26"/>
        <polygon id="Node_5__118" class="cls-27" points="433.82 663.04 417.01 665.89 416.42 665.99 415.61 662.05 415.15 655.64 415.13 655.4 415.13 655.4 432.64 653.69 432.66 653.69 433.12 659.58 433.51 661.5 433.82 663.04"/>
        <polygon id="Node_5__119" class="cls-27" points="435.69 672.26 418.53 676.26 416.42 665.99 433.82 663.04 435.69 672.26"/>
        <polygon id="Node_5__120" class="cls-27" points="438.28 681.37 421.3 686.15 419.17 679.4 418.53 676.26 435.69 672.26 436.25 675 438.28 681.37"/>
        <polygon id="Node_5__121" class="cls-27" points="441.18 690.33 424.27 695.49 423.9 694.39 421.3 686.15 438.28 681.37 439.76 686.04 440.7 688.9 441.18 690.33"/>
        <polygon id="Node_5__125" class="cls-27" points="451.12 729.4 440.97 729.75 434.02 727.62 432.96 722.5 449.43 717.5 450.14 722.61 450.47 724.86 450.52 725.24 451.07 729.14 451.12 729.4"/>
        <polygon id="Node_5__9" class="cls-27" points="560.31 806.41 556.11 811.99 553.06 816.75 537.07 805.08 537.55 801.45 543.22 793.96 560.31 806.41"/>
        <polygon id="Node_5__8" class="cls-27" points="553.06 816.75 547.27 825.83 546.36 827.45 535.19 819.51 534.94 821.31 537.07 805.08 553.06 816.75"/>
        <polygon id="Node_5__13" class="cls-27" points="588.28 770.76 584.6 774.66 583.34 776.3 565.99 762.44 565.88 762.59 564.18 763.97 578.18 743.1 581.09 741.54 581.41 741.36 581.41 741.37 588.28 770.76"/>
        <polygon id="Node_5__23" class="cls-27" points="544.08 884.53 537.71 900.72 523.22 889.46 523.66 888.64 530.19 876.89 531.29 874.69 534.14 876.89 544.08 884.53"/>
        <polygon id="Node_5__114-4" class="cls-28" points="412.64 1018.43 412.26 1019.64 411.71 1021.39 409.31 1029.05 404.13 1045.61 401 1055.6 389.9 1052.65 363.39 1045.6 360.98 1030.18 358.18 1019.64 357.74 1018.43 355.21 1012.01 344.72 985.27 338.85 974.21 336.98 970.66 335.5 967.92 330.73 958.28 344.18 967.92 349.12 970.66 361.36 978.29 363.5 979.61 387.82 978.29 387.55 979.61 386.92 982.71 380.91 1012.01 412.64 1018.43"/>
        <polygon id="Node_5__48" class="cls-27" points="406.93 955.78 403.3 969.6 403.3 969.6 393.25 967.98 398.37 953.42 406.93 955.78"/>
        <polygon id="Node_5__49" class="cls-27" points="417.25 958.64 414.89 971.95 406.38 970.22 403.3 969.6 406.93 955.78 417.25 958.64"/>
        <polygon id="Node_5__50" class="cls-27" points="427.57 961.44 425.27 974.06 414.89 971.95 414.89 971.95 417.25 958.64 427.57 961.44"/>
        <polygon id="Node_5__51" class="cls-27" points="448.71 965.34 448 970.22 444.58 980.17 425.27 974.06 427.57 961.44 448.71 965.34"/>
        <polygon id="Node_5__53" class="cls-27" points="453.52 946.2 451.39 952.33 451.04 953.56 450.13 955.73 429.6 951.46 431.7 941.12 453.52 946.2"/>
        <polygon id="Node_5__52" class="cls-27" points="450.13 955.73 448.71 965.34 427.57 961.44 429.6 951.46 450.13 955.73"/>
        <polygon id="Node_5__54" class="cls-27" points="455.26 935.64 455.14 936.57 453.52 946.2 431.7 941.12 433.23 933.6 433.85 931.03 455.26 935.64"/>
        <polygon id="Node_5__56" class="cls-27" points="458.13 917.63 457.28 921.03 457.85 923.32 457.7 924.32 457.48 926.07 436.09 921.8 439.29 909.73 456.8 914.01 458.13 917.63"/>
        <polygon id="Node_5__55" class="cls-27" points="457.48 926.07 457.39 926.74 457.15 928.16 457.07 929.05 457.02 929.42 456.99 929.53 455.67 932.77 455.26 935.64 433.85 931.03 436.09 921.8 457.48 926.07"/>
        <polygon id="Node_5__57" class="cls-27" points="439.29 909.73 436.09 921.8 436.08 921.8 417.53 912.47 418.08 911.81 421.61 905.65 425.34 901.97 428.09 901.86 438.86 909.64 439.29 909.73"/>
        <polygon id="Node_5__59" class="cls-27" points="433.85 931.03 433.23 933.6 431.7 941.12 431.69 941.12 411.93 934.98 410.01 929.16 412.26 928 413.9 926.36 414.18 925.92 415.06 924.16 433.83 931.02 433.85 931.03"/>
        <polygon id="Node_5__F_5" class="cls-27" points="411.45 879.02 395.24 884.08 391.79 872.49 407.98 867.82 409.07 871.4 410.88 877.22 411.45 879.02"/>
        <polygon id="Node_5__F_4" class="cls-27" points="407.98 867.82 391.79 872.49 390.68 868.76 381.02 862.61 394.04 860.22 406.74 857.89 406.83 858.66 407.59 864.97 407.92 867.61 407.98 867.82"/>
        <polygon id="Node_5__F_3" class="cls-27" points="406.74 857.89 394.04 860.22 391.28 841.58 402.69 839.62 404.79 844.55 405.61 845.21 405.67 847.02 406 851.8 406.74 857.89"/>
        <polygon id="Node_5__F_2" class="cls-27" points="411.71 803.75 408.88 819.37 405.73 819.43 388.39 820.91 386.78 805.84 411.71 803.75"/>
        <polygon id="Node_5__F_1" class="cls-27" points="388.39 820.91 385.85 821.13 385.85 821.13 380.85 821.54 370.79 826.39 363.06 811.5 386.78 805.84 388.39 820.91"/>
        <path id="Node_5__114-5" class="cls-6" d="m416.07,612.01c3.47-5.74,8.04-8.54,12.54-7.69,4.58.87,8.17,5.19,9.14,11,.13.75.26,1.71.42,2.81.17,1.23.37,2.61.6,4.11l-7.97,1.12-17.57,2.47s.02-9.15,2.85-13.82Z"/>
        <polygon id="Node_5__H_3" class="cls-8" points="454.55 679.66 453.08 682.84 437.89 680.14 437.89 680.13 436.32 675.21 436.25 675 447.89 670.67 448.49 670.44 450.95 669.53 451 669.51 451.07 669.72 451.07 669.73 454.55 679.66"/>
        <polygon id="Node_5__H_1" class="cls-8" points="476.16 670.67 476 675 475.92 676.65 472.28 679.22 469.37 679.38 462.07 678.02 466.3 662.42 466.56 662.28 467.16 661.9 466.32 662.36 466.4 662.08 467.16 661.66 473.04 665.01 474.35 667.43 476.16 670.67"/>
        <polygon id="Node_5__H_2" class="cls-8" points="467.16 661.9 466.56 662.28 466.3 662.42 462.07 678.02 461.14 677.85 454.55 679.66 451.07 669.73 451.07 669.72 451 669.51 451.44 669.35 451.44 669.35 456.62 667.43 466.4 662.08 466.32 662.36 467.16 661.9"/>
        <polygon id="Node_5__H_14" class="cls-8" points="476.25 687.14 457.6 693.02 456.69 690.31 457.52 684.76 459 683.01 462.79 682.02 469.1 683.17 472.23 683.01 476.15 685.89 476.16 686.04 476.19 686.34 476.25 687.14"/>
        <polygon id="Node_5__H_13" class="cls-8" points="477.49 694.72 459.89 699.87 457.6 693.02 476.25 687.14 476.38 688.89 477.49 694.72"/>
        <polygon id="Node_5__H_12" class="cls-8" points="478.87 702.1 466.01 706.19 466 706.15 462.4 707.32 459.89 699.87 477.49 694.72 477.52 694.88 478.13 698.07 478.21 698.47 478.47 699.88 478.69 701.07 478.74 701.34 478.87 702.1"/>
        <polygon id="Node_5__H_11" class="cls-8" points="480.66 712.88 468.44 713.92 466.01 706.19 478.87 702.1 479.68 706.57 480.5 710.86 480.66 712.88"/>
        <polygon id="Node_5__H_10" class="cls-8" points="482.51 725.17 472.88 731.7 467.18 716.22 468.44 713.92 480.66 712.88 480.69 713.17 480.78 714.32 482.51 725.17"/>
        <polygon id="Node_5__H9" class="cls-8" points="472.88 731.7 472.82 731.74 455.04 729.51 453.63 729.47 462.54 716.22 464.43 716.99 467.18 716.22 472.88 731.7"/>
        <polygon id="Node_5__H8" class="cls-8" points="462.54 716.22 453.63 729.47 451.13 729.41 451.13 729.4 451.12 729.4 450.52 725.24 450.47 724.86 450.14 722.61 449.43 717.5 448.99 714.32 448.87 713.94 459.53 710.71 461.19 715.67 462.54 716.22"/>
        <polygon id="Node_5__H7" class="cls-8" points="459.53 710.71 448.87 713.94 448.15 711.52 447.94 710.86 447.18 708.27 446.68 706.57 446.6 706.35 456.9 702.89 459.53 710.71"/>
        <polygon id="Node_5__H6" class="cls-8" points="456.9 702.89 446.6 706.35 444.38 699.88 444.23 699.44 454.61 696.06 456.9 702.89"/>
        <polygon id="Node_5__H5" class="cls-8" points="454.61 696.06 444.23 699.44 444.18 699.28 441.6 691.58 452.71 689.04 452.96 691.13 454.61 696.06"/>
        <polygon id="Node_5__H4" class="cls-8" points="452.19 684.76 452.71 689.04 441.6 691.58 441.18 690.33 440.7 688.89 439.76 686.04 438.06 680.66 437.89 680.14 453.08 682.84 452.19 684.76"/>
    </g>
    <g id="line">
        <polygon class="cls-5" points="763.48 432.79 762.99 430.59 745.09 419.88 709.23 430.59 701.82 432.79 693.92 440.91 683.7 451.4 679.2 466.72 678.87 467.92 675.03 476.65 674.15 478.08 668.72 486.81 662.4 494.28 661.69 495.1 653.45 501.31 645.77 504.77 645.49 504.93 629.84 506.03 621.17 505.09 613.48 502.02 607.61 497.19 602.56 489.45 602.45 489.34 602.34 489.45 596.96 497.19 593.55 502.02 591.41 505.09 590.81 506.03 582.9 517.28 580.15 513.88 572.08 503.94 563.74 493.56 560.44 489.45 557.37 493.56 551.22 503.94 550.29 513.88 550.78 517.28 551.17 519.86 552.15 526.4 554.08 539.25 547.54 559.89 567.75 565.16 608.87 574.49 659 585.91 664.43 574.49 667.78 565.16 669.92 561.76 673.6 555.83 684.91 547.48 689.36 545.56 704.13 539.25 727.41 526.4 734.6 519.86 734.98 517.28 736.85 506.03 737.02 504.93 737.02 504.77 737.62 501.31 738.61 495.1 738.77 494.28 741.19 486.81 744.04 478.08 744.87 476.65 749.7 467.92 750.3 466.72 759.14 451.4 765.18 440.91 763.48 432.79"/>
    </g>
    <g id="node-area">
        <path class="cls-13" d="m834.3,201.16h-46.45l-2.14-.44-19.3-4.61-13.39-9.54-107.34-76.66-1.87-1.38.21-.26-4.89-3.95-.4.47-23.06-17.02-18.75-14.69-30.71-15.48-8.66-5.38-15.05-3.06-12.52-2.79-21.63-5.29-3.74.36-.71-.14-12.61.89-28.96-.94-13.88,3.96-8.46.6-13.55,5.68-19.34,5.52-80.32,36.29-43.21,51.83-18.03,50.5-49.85-16.82-2.1,5.88,55.87,18.79v-.02s42.23,14.13,42.23,14.13l-38.83,98.1L59.79,853.42l17.73,118.71,357.67,94.1,22.69-52.28,151.63,58.38,188.1-318.11,15.26-25.8,26.63-71.16,44.2-49.96,88.07-150.66-267-122.33,12.5-12.26h.01s113.97-111.73,113.97-111.73l4.18,1.17m-141.6,124.74l268.97,123.2-84.28,144.12-44.53,50.35-26.85,71.76-14.99,25.37-185.25,313.28-152.79-58.87-23.02,53.16-345.55-89.46-18.03-115.28L322.94,213.65l-51.34-16.1,17.6-49.26,41.51-49.8,97.96-41.07,20.45-5.86,7.98-.51-1.43,1.43,40.44-3.87,12.36.4,28.97,5.69,17.44,4.26.04.02,17.2,9.72,37.67,23.42,13.82,9.86,15.6,12.21.56-.68,4.81,3.43,2.37,1.75,116.84,83.29,15.7,3.9,7.3,1.59.43.02.45.09,9,.93,4.86-.49h10.22s11.73,1.1,11.73,1.1l-129.65,127.1Z"/>
        <path class="cls-1" d="m695.88,917.71c-.32-.2-1.89-1.16-4.21-2.56-6.83-4.15-20.14-12.24-27.11-16.48-9.64-5.86-12.52-2.53-15.49.58-1.6,1.68-2.64,3.92-3.26,5.63-.49,1.37-.72,2.4-.75,2.53,0,0-3.62,13.23-8.3,23.22-6.21,13.28-18.17,28.16-27.02,30.52-1.95.52-4.04,1.24-6.25,2.15-12.89,5.26-29.79,16.5-47.54,28.31-3.57,2.37-7.19,4.79-10.82,7.17-6.29,4.14-12.62,8.23-18.81,12.01-20.45,12.47-47.61-7.45-65.59-20.63-.99-.73-1.96-1.44-2.91-2.13-2.38-1.74-3.46-4.75-2.75-7.61,1.36-5.42,2.85-10.97,4.31-16.45,3.77-14.13,7.34-27.47,8.58-37.64.22-1.76.23-4.8.19-7.54-.03-2,1.52-3.67,3.52-3.77,7.94-.41,15.55-1.65,22.15-2.92,3.91-.75,7.57-2.18,10.99-4.12,7.36-4.15,13.62-10.67,18.86-17.91.04-.05.07-.11.11-.16,3.28-4.55,6.16-9.38,8.67-14.1.03-.05.05-.11.08-.16,4.37-8.25,7.6-16.15,9.82-21.57,0,0,0-.02.01-.03.02-.05.04-.11.06-.16.92-2.23,1.77-4.31,2.15-5.01.7-1.26,2.6-4.25,5.24-8.23.23-.35.48-.71.72-1.08,1.6-2.41,3.42-5.12,5.38-8.02.38-.56.86-1,1.41-1.32,0,0,0,0,.01,0,1.33-.76,3.02-.8,4.42.04l20.7,12.46,5.77,3.48,4.32-7.18.11-.17.53-.87-25.04-15.08c-2.43-1.46-3.12-4.68-1.51-7.01,2.15-3.11,4.27-6.15,6.25-8.99.62-.88,1.22-1.74,1.81-2.57,4.52-6.42,8.09-11.37,9.37-12.86,2.86-3.36,4.06-4.39,5.62-5.96.06-.05.11-.11.17-.17l4.01.22.22-15.62v-.19s-3.54-.58-5.86.87c0,0,0,0,0,0-.94.59-3.17,3.35-3.17,3.35-.08.07-.81.84-2,2.12-1.73,1.86-4.4,4.8-7.34,8.26-.27.32-.63.77-1.07,1.33-1.61,2.09-4.25,5.72-7.41,10.19-2.21,3.11-4.68,6.63-7.24,10.32-1.89,2.72-3.83,5.53-5.76,8.33-.48.69-.95,1.38-1.42,2.07-1.36,1.99-2.7,3.96-4.01,5.88-1.06,1.56-2.09,3.07-3.08,4.55-1.22,1.82-2.38,3.55-3.46,5.18-3.63,5.45-6.36,9.67-7.31,11.4-.7,1.27-1.52,3.27-2.75,6.3-.71,1.75-1.59,3.89-2.63,6.3-1.61,3.76-3.6,8.15-5.95,12.71-7.3,14.11-18.09,29.73-31.89,32.4-6.77,1.31-13.69,2.37-20.47,2.73-1.85.1-3.46-1.14-3.85-2.89-.05-.22-.08-.43-.09-.66-.17-4.04-.34-8.95-.48-14.56-.11-4.76-.21-10.04-.25-15.74-.04-5.38-.04-11.12.03-17.16.31-26.34,8.12-48.07,13.83-63.93,1.73-4.81,3.23-8.97,4.25-12.55,3.26-11.46,3.13-28.7,2.8-37.38h0c.15-.59.31-1.18.47-1.78.51-1.96,1.07-4.09,1.58-6.36.44-1.96.85-4.03,1.18-6.21.31-2.03.54-4.16.65-6.38,0-.05,0-.11,0-.17.25-5.14-.13-10.78-1.68-16.87-2.21-8.7-3.53-20.96-4.32-31.87-.24-3.29,1.53-6.36,4.45-7.91,5.42-2.88,10.98-7.76,16.73-14.68,4.53-5.44,9.17-12.14,13.93-20.12,4.32-7.23,8.75-15.51,13.29-24.86,7.24-14.89,13.47-29.93,17.96-41.41.01-.04.03-.07.04-.11,4.62-11.83,7.36-19.86,7.42-20.01l-5.17-1.76-5.22-1.78c-.1.3-10.46,30.57-24.9,60.26-8.4,17.27-16.48,30.91-24.02,40.54-5.58,7.13-10.81,11.98-15.43,14.36-2.37,1.22-4.58,1.79-6.6,1.7-1.51-.07-2.96-.23-4.35-.49-7.93-1.45-13.82-5.92-17.93-13.56-3.9-7.28-5.37-15.93-6.21-21.75-.08-.55-.16-1.08-.22-1.57-.16-1.19-.31-2.21-.46-3.1-1.56-9.32-7.39-16.59-15.18-19.24-.33-.12-.68-.22-1.02-.32-.56-.16-1.13-.3-1.71-.41-9.13-1.74-18.1,3.03-24,12.79-2.37,3.92-4.05,10.07-4.61,18.58-.22,3.39-.27,7.16-.11,11.32.16,4.26.54,8.91,1.17,13.98.47,3.8,1.08,7.83,1.83,12.1.75,4.26,1.66,8.75,2.73,13.48.97,4.29,2.07,8.78,3.31,13.46,2.75,10.36,6.21,21.7,10.46,34.03.95,2.76,1.83,5.43,2.61,7.99,1.19,3.88,2.2,7.54,3.01,10.98,2.45,10.32,3.24,18.74,2.41,25.47-1.08,8.73-4.68,13.75-8.84,19.58-3.24,4.54-6.9,9.66-9.16,16.72-.11.32-.2.64-.3.96-.76,2.59-1.55,5.09-2.32,7.51-.76,2.41-1.51,4.77-2.2,7.14,0,.01,0,.02,0,.04-1.14,3.88-2.13,7.76-2.81,11.84-.24,1.41-1.37,2.5-2.79,2.67l-27.59,3.18-1.34-.99c-1.29-1.72-3.07-3.07-5.14-3.8-.57-.16-1.16-.27-1.77-.33-.55-.05-1.11-.07-1.68-.04-3.41.17-6.45,1.93-8.37,4.55-1,1.36-1.69,2.96-1.98,4.68-.06.36-.11.72-.13,1.09-.22,3.51,1.19,6.7,3.55,8.87.89.82,1.92,1.5,3.05,1.99.82.27,1.68.46,2.57.58.52.05,1.03.06,1.54.04.01,0,.03,0,.04,0,.91-.04,1.79-.19,2.63-.44.01,0,.03,0,.05-.02,4.02-1.21,7.07-4.66,7.72-8.9l.92-.56,3.77-.43,12.32-1.42,8.12-.94c1.86-.22,3.52,1.21,3.56,3.08.1,4.33.61,9,1.68,14.16.63,3.07,1.47,6.32,2.53,9.78,1.07,3.47,2.36,7.16,3.92,11.08.11.27.22.56.33.84.42,1.04.86,2.06,1.31,3.05.11.26.24.52.36.78t0,0c1.27,2.7,2.68,5.23,4.22,7.59.04.06.07.12.11.17.32.49.66.98,1,1.46,0,0,0,0,0,0,.51.72,1.03,1.43,1.57,2.12.36.46.57,1,.62,1.56h0c.06.76-.17,1.54-.71,2.13-3.07,3.41-5.91,7.21-8.39,10.88,0,0,0,.01-.01.02-.17.24-.33.49-.49.73h-.04c-.21-.01-.43-.02-.65-.02-.84,0-1.66.1-2.44.28-1.15.27-2.22.72-3.2,1.33-2.06,1.28-3.66,3.24-4.46,5.57-.38,1.1-.59,2.28-.59,3.51,0,.44.03.87.08,1.3,0,.03,0,.05,0,.08,0,.04,0,.07.02.11.02.15.04.3.07.45,0,.02,0,.05.01.07.05.29.12.58.2.86,0,0,0,.02,0,.03.01.05.03.11.05.16.06.22.14.44.22.66,0,.02.02.04.02.06.1.25.2.49.31.73.05.12.11.23.17.35.09.18.18.35.28.52,0,0,0,0,0,0,.01.03.03.06.05.09,1.21,2.04,3.08,3.64,5.32,4.51.35.14.71.26,1.08.36.22.05.44.1.66.14.27.05.54.1.8.13.62.07,1.23.09,1.83.06,2.05-.1,3.96-.76,5.57-1.84.02,0,.04-.02.05-.04,1.39-.97,2.54-2.26,3.35-3.77.03-.06.07-.13.1-.2.05-.08.08-.16.12-.25l.71-2.01c.2-.81.3-1.67.3-2.55,0-3.16-1.37-6-3.56-7.96.12-.18.24-.35.37-.53h0c2.02-2.95,4.27-5.94,6.66-8.64,1.01-1.14,2.73-1.31,3.92-.37.83.65,1.68,1.29,2.56,1.88,2.31,1.59,4.75,2.98,7.35,4.17.27.13.54.25.81.37,1.26.56,2.55,1.07,3.88,1.52,1.61.57,3.27,1.06,4.97,1.49.06.01.12.03.19.05,1.91.47,3.83.85,5.76,1.14,1.79.27,3.13,1.8,3.17,3.62.06,2.91.05,5.9-.09,7.11-.04.32-.08.65-.12.97-.27,1.94-.62,4.01-1.04,6.2-.13.66-.26,1.33-.4,2.01,0,.02,0,.04-.01.06-.04.16-.07.33-.11.49,0,.01,0,.02,0,.03-.06.28-.12.57-.18.85-.7,3.27-1.54,6.76-2.45,10.4-.34,1.33-.69,2.69-1.04,4.05,0,0,0,0,0,.01-.43,1.66-.87,3.35-1.33,5.05-.12.45-.24.9-.36,1.35-.41,1.53-.82,3.08-1.24,4.64-.36,1.34-.71,2.68-1.07,4.02-.57,2.14-1.14,4.29-1.7,6.42-1.05,4.03-5.27,6.36-9.23,5.07-3.59-1.17-7.48-2.23-11.41-3.18-3.49-.84-7-1.6-10.35-2.26-4.26-.84-8.26-1.54-11.6-2.08-5.29-.86-8.94-1.33-9.4-1.39l-.58-.07h-.08s0,0,0,0l-.66.07c-5.71.66-21.88,2.23-27.95,1.52-.32-.05-3.47-.76-14.66-9.44-6.87-5.32-14.02-11.48-18.75-15.57-1.88-1.62-3.36-2.9-4.29-3.66-3.4-2.78-12.38-5.6-27.95-10.32-11.16-3.39-23.81-7.22-29.41-10.13-11.4-5.92-28.09-5.39-38.5-3.74-.04,0-.08.01-.11.02-2.35.38-4.37.81-5.93,1.24-3.71,1.02-8.03,3.45-13.03,6.27-7.33,4.12-16.45,9.26-25.62,10.91-1.99.36-4.01.57-6.05.66h0c-13.73.6-28.19-4.52-37.92-10.05-11.87-6.75-27.9-6.71-35.61-6.69-1.36,0-2.76,0-3.21-.04-1.67-.22-9.33-2.47-18.24-5.24-3.58-1.12-6.22-4.19-6.77-7.9l-4.84-32.38-.84-5.6-1.76-11.78-.05-.36-.11-.75c5.5-13.86,11.98-30.21,19.17-48.3,6.93-17.45,14.52-36.54,22.5-56.62,5.34-13.43,10.87-27.31,16.49-41.43,1.98-4.96,3.97-9.96,5.97-14.98,5.12-12.87,10.31-25.88,15.51-38.89,8.5-21.31,17.01-42.61,25.28-63.29,7.01-17.54,13.86-34.63,20.38-50.87,6.28-15.63,12.25-30.48,17.79-44.21,8.79-21.79,16.48-40.76,22.55-55.55,7.43-18.14,12.41-29.98,13.94-32.99,0-.01.02-.03.02-.04,2.25-2.18,7.82-8.08,14.7-15.57.02-.02.04-.04.05-.05,2.21-2.41,4.57-4.99,6.98-7.67,12.93-14.31,27.74-31.32,34.05-40.15,4.86-6.8,13.87-19.98,22.63-32.89,4.83-7.12,9.58-14.16,13.51-19.99,4.61-6.84,8.09-12.04,9.28-13.81l19.06-15.92,32.9-14.33.49-.21,25.97,6.88,16.21,19.95,8.31,45.6,2.05,11.26c-2.44,2.05-3.96,5.17-3.82,8.64.22,5.41,4.57,9.88,9.97,10.24.88.06,1.74,0,2.56-.14,5.03-.87,8.85-5.26,8.85-10.53,0-1.24-.22-2.45-.61-3.56-1.02-2.9-3.26-5.23-6.1-6.37l-10.92-59.87-.02-.03-20.21-24.88-.85-.22-32.26-8.56-1.01.44-37.33,16.26-21.47,17.94-.44.65c-.09.14-2.71,4.04-6.7,9.97h0c-10.57,15.72-30.77,45.64-38.97,57.1-11.48,16.07-51.65,59.54-54.73,62.19-1.26,1.08-1.68,1.45-10.37,22.34-4.95,11.89-12.02,29.21-21.03,51.47-15.17,37.47-36.04,89.47-62.02,154.55-44.24,110.81-88.58,222.65-89.02,223.77l-.54,1.37,8.34,55.85,1.64,10.98,7.75,51.88,10.67-1.59.19-.03-2.62-17.53-3.5-23.46c-.06-.4-.05-.79,0-1.16,0-.02,0-.05.01-.07.38-2.06,2.52-3.5,4.69-2.83,6.95,2.13,13.46,3.99,15.6,4.2,1.03.11,2.42.1,4.36.1,6.76-.02,20.83-.05,30.16,5.25,10.13,5.76,21.22,9.5,31.84,10.9.01,0,.03,0,.04,0,6.8.9,13.41.84,19.47-.25,3.14-.56,6.2-1.43,9.16-2.48.36-.12.71-.25,1.06-.38t0,0c6.98-2.61,13.36-6.2,18.83-9.28,4.2-2.36,8.15-4.59,10.56-5.25,2.1-.58,5.04-1.13,8.41-1.51,8.83-.98,20.62-.77,28.15,3.14,6.5,3.37,19.09,7.2,31.28,10.89,8.73,2.65,21.94,6.66,24.18,8.3.82.68,2.26,1.92,4.08,3.49,2.57,2.21,5.03,4.31,7.38,6.3,15.13,12.75,25.85,20.59,31.91,21.29,5.82.67,17.01-.17,24.15-.86,2.54-.24,4.58-.46,5.67-.59,4.04.54,26.18,3.66,40.88,8.62,2.71.92,5.17,1.89,7.21,2.92.04.02.08.04.13.06h.02c1.91,1,4.41,2.68,7.3,4.74.81.58,1.66,1.19,2.53,1.83h0c.93.69,1.89,1.4,2.88,2.12,9.83,7.2,22.05,16.17,35.25,21.71,7.45,3.12,14.47,4.78,21.02,4.99.47.01.93.02,1.4.02,7.32,0,14.05-1.85,20.13-5.56,9.96-6.07,20.15-12.85,30-19.41,20-13.31,39.6-25.69,51.24-28.8,13.79-3.68,25.51-19.74,33.42-36.67,3.01-6.43,7.06-18.9,9.17-20.31.03-.02.07-.6,13.6,4.8.01,0,.03,0,.04.02.92.37,1.9.76,2.95,1.19,2.85,1.15,5.56,2.46,7.94,3.7,0,0,.02,0,.03.02,1.56.81,2.97,1.6,4.2,2.31,2.92,1.7,4.76,2.94,4.79,2.96l6.51-12.2s-.02-.01-.06-.04Zm-280.68-87.56c1.03-4.84,2.62-9.42,4.26-14.61.78-2.47,1.59-5.02,2.38-7.71,1.7-5.78,4.69-9.97,7.87-14.39,3.59-5.02,7.57-10.59,9.69-18.72.47-1.83.86-3.78,1.12-5.89.72-5.81.5-12.36-.7-19.9-.25-1.56.12-3.06.92-4.26h0c.61-.92,1.47-1.66,2.49-2.13.75-.34,1.59-.54,2.48-.54h25.05c.69,0,1.35.11,1.96.33,2.34.81,4.02,3.03,4.01,5.65,0,8.19-.51,18.42-2.54,25.56-.49,1.74-1.14,3.71-1.9,5.89-.63,1.84-1.35,3.83-2.11,5.96-4.55,12.66-10.99,30.56-13.46,51.85l-39.91-4.87c-1.07-.13-1.81-1.15-1.58-2.21Zm36.55,72.51c-12.72-2.95-23.59-10.62-30.09-26.8-5.85-14.56-8-25.38-7.87-34.48.02-1.28,1.13-2.26,2.4-2.1l39.86,4.79c-.21,2.89-.33,5.84-.37,8.83-.22,18.93.19,35.06.61,45.97.1,2.44-2.15,4.34-4.54,3.79Zm-27.01-205.77c-.14-.48-.28-.95-.42-1.42-.94-3.24-1.81-6.39-2.62-9.43-.91-3.45-1.74-6.76-2.48-9.94-.84-3.56-1.57-6.96-2.22-10.21-.72-3.61-1.33-7.03-1.83-10.26-.01-.08-.03-.16-.04-.23-.01-.09-.03-.17-.04-.26-.02-.15-.05-.29-.06-.43-3.78-24.68-1.66-38.27,1.17-42.94,3.47-5.74,8.04-8.54,12.54-7.69,4.58.87,8.17,5.19,9.14,11,.13.75.26,1.71.42,2.81.17,1.23.37,2.61.6,4.11.71,4.5,1.81,10.07,3.86,15.71.87,2.4,1.92,4.82,3.18,7.16.25.46.49.91.75,1.35,1.71,2.95,3.67,5.55,5.89,7.81.58.6,1.18,1.18,1.8,1.73,3.32,2.95,7.11,5.19,11.32,6.7,0,0,0,0,0,0,.09.03.17.06.26.09.02.01.04.02.06.02,1.08.38,2.2.71,3.34.99,2.81.69,4.84,3.14,5.04,6.03.81,11.56,2.24,24.83,4.69,34.49.28,1.1.52,2.16.72,3.19,1.3,6.72.96,12.09-.04,17.31-.54,2.85-3.03,4.91-5.93,4.88l-22.74-.24h0l-11.64-.12c-.29,0-.57-.03-.85-.07-.58-.09-1.13-.26-1.65-.51-1.46-.69-2.61-1.96-3.13-3.57-.26-.8-.53-1.6-.82-2.47-.09-.27-.19-.55-.29-.85-.23-.67-.48-1.39-.75-2.19-2.76-8-5.15-15.51-7.22-22.55Z"/>
        <path class="cls-33" d="m352.89,839.63c-.04.11-.07.23-.1.34l-.04-.33h.14Z"/>
        <path class="cls-11" d="m420.12,925.84c.3-.64.54-1.31.71-2.01l-.71,2.01Z"/>
        <path class="cls-11" d="m420.83,923.83c-.17.7-.41,1.37-.71,2.01l.71-2.01Z"/>
        <path class="cls-11" d="m451.4,997.03l-9.84-6.56c2.45,1.27,5.87,3.67,9.84,6.56Z"/>
        <polygon class="cls-1" points="476.15 685.89 472.23 683.01 469.1 683.17 462.79 682.02 459 683.01 457.52 684.76 456.69 690.31 457.6 693.02 459.89 699.87 462.4 707.32 462.4 707.33 466.01 706.19 468.44 713.92 467.18 716.22 464.43 716.99 462.54 716.22 461.19 715.67 459.53 710.71 456.9 702.89 454.61 696.06 452.96 691.13 452.71 689.04 452.19 684.76 453.08 682.84 454.55 679.66 461.14 677.85 462.07 678.02 469.37 679.38 472.28 679.22 475.92 676.65 475.73 680.66 476.15 685.89"/>
    </g>
    <g id="TEXT">
        <text class="cls-31" transform="translate(454.17 673.78)">
            <tspan x="0" y="0">H2</tspan>
        </text>
        <text class="cls-31" transform="translate(442.47 678.39)">
            <tspan x="0" y="0">H3</tspan>
        </text>
        <text class="cls-31" transform="translate(441.81 688.06)">
            <tspan x="0" y="0">H4</tspan>
        </text>
        <text class="cls-31" transform="translate(444.48 696.06)">
            <tspan x="0" y="0">H5</tspan>
        </text>
        <text class="cls-31" transform="translate(447.18 703.62)">
            <tspan x="0" y="0">H6</tspan>
        </text>
        <text class="cls-31" transform="translate(448.87 710.74)">
            <tspan x="0" y="0">H7</tspan>
        </text>
        <text class="cls-31" transform="translate(451.02 720.42)">
            <tspan x="0" y="0">H8</tspan>
        </text>
        <text class="cls-31" transform="translate(460.81 726.06)">
            <tspan x="0" y="0">H9</tspan>
        </text>
        <text class="cls-31" transform="translate(469.8 721.99)">
            <tspan x="0" y="0">H10</tspan>
        </text>
        <text class="cls-31" transform="translate(468.59 711.1)">
            <tspan x="0" y="0">H11</tspan>
        </text>
        <text class="cls-31" transform="translate(465.02 703.1)">
            <tspan x="0" y="0">H12</tspan>
        </text>
        <text class="cls-31" transform="translate(462.84 695.65)">
            <tspan x="0" y="0">H13</tspan>
        </text>
        <text class="cls-25" transform="translate(475.91 880.66)">
            <tspan x="0" y="0">1</tspan>
        </text>
        <text class="cls-25" transform="translate(476.07 895.16)">
            <tspan x="0" y="0">2</tspan>
        </text>
        <text class="cls-25" transform="translate(494.47 888.07)">
            <tspan x="0" y="0">3</tspan>
        </text>
        <text class="cls-25" transform="translate(506.43 882.86)">
            <tspan x="0" y="0">4</tspan>
        </text>
        <text class="cls-25" transform="translate(514.18 873.58)">
            <tspan x="0" y="0">5</tspan>
        </text>
        <text class="cls-25" transform="translate(531.53 844.86)">
            <tspan x="0" y="0">6</tspan>
        </text>
        <text class="cls-25" transform="translate(536.14 827.95)">
            <tspan x="0" y="0">7</tspan>
        </text>
        <text class="cls-25" transform="translate(540.53 817.8)">
            <tspan x="0" y="0">8</tspan>
        </text>
        <text class="cls-25" transform="translate(546.46 807.47)">
            <tspan x="0" y="0">9</tspan>
        </text>
        <text class="cls-25" transform="translate(552.17 795.83)">
            <tspan x="0" y="0">10</tspan>
        </text>
        <text class="cls-25" transform="translate(559.53 786.28)">
            <tspan x="0" y="0">11</tspan>
        </text>
        <text class="cls-25" transform="translate(567.27 775.68)">
            <tspan x="0" y="0">12</tspan>
        </text>
        <text class="cls-25" transform="translate(577.21 765.2)">
            <tspan x="0" y="0">13</tspan>
        </text>
        <text class="cls-25" transform="translate(588.13 760.09)">
            <tspan x="0" y="0">14</tspan>
        </text>
        <text class="cls-25" transform="translate(585.11 798.96)">
            <tspan x="0" y="0">15</tspan>
        </text>
        <text class="cls-25" transform="translate(590.6 813.46)">
            <tspan x="0" y="0">16</tspan>
        </text>
        <text class="cls-25" transform="translate(572.1 818.56)">
            <tspan x="0" y="0">17</tspan>
        </text>
        <text class="cls-25" transform="translate(585.66 830.26)">
            <tspan x="0" y="0">18</tspan>
        </text>
        <text class="cls-25" transform="translate(561.01 842.17)">
            <tspan x="0" y="0">20</tspan>
        </text>
        <text class="cls-25" transform="translate(552.11 855.51)">
            <tspan x="0" y="0">21</tspan>
        </text>
        <text class="cls-25" transform="translate(539.71 870.17)">
            <tspan x="0" y="0">22</tspan>
        </text>
        <text class="cls-25" transform="translate(530.32 886.76)">
            <tspan x="0" y="0">23</tspan>
        </text>
        <text class="cls-25" transform="translate(525.82 907.02)">
            <tspan x="0" y="0">24</tspan>
        </text>
        <text class="cls-25" transform="translate(515.66 914.81)">
            <tspan x="0" y="0">25</tspan>
        </text>
        <text class="cls-25" transform="translate(449.99 662.69)">
            <tspan x="0" y="0">110</tspan>
        </text>
        <text class="cls-25" transform="translate(435.66 667.36)">
            <tspan x="0" y="0">111</tspan>
        </text>
        <text class="cls-25" transform="translate(436.27 655.64)">
            <tspan x="0" y="0">112</tspan>
        </text>
        <text class="cls-25" transform="translate(434.25 646.14)">
            <tspan x="0" y="0">113</tspan>
        </text>
        <text class="cls-25" transform="translate(431.58 634.81)">
            <tspan x="0" y="0">114</tspan>
        </text>
        <text class="cls-25" transform="translate(418.2 630.9)">
            <tspan x="0" y="0">115</tspan>
        </text>
        <text class="cls-25" transform="translate(417.66 641.33)">
            <tspan x="0" y="0">116</tspan>
        </text>
        <text class="cls-25" transform="translate(418.23 651.18)">
            <tspan x="0" y="0">117</tspan>
        </text>
        <text class="cls-25" transform="translate(419.17 660.97)">
            <tspan x="0" y="0">118</tspan>
        </text>
        <text class="cls-25" transform="translate(421.02 671.26)">
            <tspan x="0" y="0">119</tspan>
        </text>
        <text class="cls-25" transform="translate(423.72 681.26)">
            <tspan x="0" y="0">120</tspan>
        </text>
        <text class="cls-25" transform="translate(426.57 690.03)">
            <tspan x="0" y="0">121</tspan>
        </text>
        <text class="cls-25" transform="translate(430.28 698.71)">
            <tspan x="0" y="0">122</tspan>
        </text>
        <text class="cls-25" transform="translate(431.97 708.51)">
            <tspan x="0" y="0">123</tspan>
        </text>
        <text class="cls-25" transform="translate(435.11 717.24)">
            <tspan x="0" y="0">124</tspan>
        </text>
        <text class="cls-25" transform="translate(438.41 725.67)">
            <tspan x="0" y="0">125</tspan>
        </text>
        <text class="cls-25" transform="translate(414.91 955.33)">
            <tspan x="0" y="0">61</tspan>
        </text>
        <text class="cls-25" transform="translate(419.58 945.72)">
            <tspan x="0" y="0">60</tspan>
        </text>
        <text class="cls-25" transform="translate(419.58 934.69)">
            <tspan x="0" y="0">59</tspan>
        </text>
        <text class="cls-25" transform="translate(421.61 923.1)">
            <tspan x="0" y="0">58</tspan>
        </text>
        <text class="cls-25" transform="translate(425.56 910.8)">
            <tspan x="0" y="0">57</tspan>
        </text>
        <text class="cls-25" transform="translate(443.3 919.15)">
            <tspan x="0" y="0">56</tspan>
        </text>
        <text class="cls-25" transform="translate(442.58 928.76)">
            <tspan x="0" y="0">55</tspan>
        </text>
        <text class="cls-25" transform="translate(441.15 940.51)">
            <tspan x="0" y="0">54</tspan>
        </text>
        <text class="cls-25" transform="translate(438.24 950.61)">
            <tspan x="0" y="0">53</tspan>
        </text>
        <text class="cls-25" transform="translate(436.27 960.22)">
            <tspan x="0" y="0">52</tspan>
        </text>
        <text class="cls-25" transform="translate(429.57 971.25)">
            <tspan x="0" y="0">51</tspan>
        </text>
        <text class="cls-25" transform="translate(417.93 968.95)">
            <tspan x="0" y="0">50</tspan>
        </text>
        <text class="cls-25" transform="translate(407.39 967.57)">
            <tspan x="0" y="0">49</tspan>
        </text>
        <text class="cls-25" transform="translate(395.75 965.76)">
            <tspan x="0" y="0">48</tspan>
        </text>
        <text class="cls-25" transform="translate(454.8 559.44)">
            <tspan x="0" y="0">114</tspan>
        </text>
        <text class="cls-18" transform="translate(583.95 579.8)">
            <tspan x="0" y="0">114</tspan>
        </text>
        <text class="cls-15" transform="translate(469.1 618.11)">
            <tspan x="0" y="0">114</tspan>
        </text>
        <text class="cls-23" transform="translate(654.51 525.74)">
            <tspan x="0" y="0">114</tspan>
        </text>
        <text class="cls-14" transform="translate(845.08 536.85)">
            <tspan x="0" y="0">1</tspan>
        </text>
        <text class="cls-14" transform="translate(683.66 372.03)">
            <tspan x="0" y="0">2</tspan>
        </text>
        <text class="cls-25" transform="translate(399.86 583.26)">
            <tspan x="0" y="0">114</tspan>
        </text>
        <text class="cls-25" transform="translate(692.83 805.39)">
            <tspan x="0" y="0">1</tspan>
        </text>
        <text class="cls-25" transform="translate(455.65 682.24)">
            <tspan x="0" y="0">114</tspan>
        </text>
        <text class="cls-25" transform="translate(438.41 799.95)">
            <tspan x="0" y="0">114</tspan>
        </text>
        <text class="cls-25" transform="translate(414.47 730.94)">
            <tspan x="0" y="0">114</tspan>
        </text>
        <text class="cls-24" transform="translate(344.32 837.65) rotate(13.47)">
            <tspan x="0" y="0">114</tspan>
        </text>
        <text class="cls-25" transform="translate(416.34 838.88)">
            <tspan x="0" y="0">114</tspan>
        </text>
        <text class="cls-25" transform="translate(432.42 884.5)">
            <tspan x="0" y="0">114</tspan>
        </text>
        <text class="cls-14" transform="translate(567.05 832.51)">
            <tspan x="0" y="0">114</tspan>
        </text>
        <text class="cls-25" transform="translate(589.25 1009.26)">
            <tspan x="0" y="0">2</tspan>
        </text>
        <text class="cls-25" transform="translate(575.65 963.02)">
            <tspan x="0" y="0">3</tspan>
        </text>
        <text class="cls-25" transform="translate(568.5 968.91)">
            <tspan x="0" y="0">3308m</tspan>
        </text>
        <text class="cls-25" transform="translate(579.56 1015.56)">
            <tspan x="0" y="0" xml:space="preserve"> 21386m</tspan>
        </text>
        <text class="cls-25" transform="translate(565.16 1021.63)">
            <tspan x="0" y="0" xml:space="preserve"> 25 units/ha [60 Units]</tspan>
        </text>
        <text class="cls-14" transform="translate(414.85 1044.44)">
            <tspan x="0" y="0">114</tspan>
        </text>
        <text class="cls-25" transform="translate(361.27 995.63)">
            <tspan x="0" y="0">114</tspan>
        </text>
        <text class="cls-16" transform="translate(283.1 963.77)">
            <tspan x="0" y="0">114</tspan>
        </text>
        <text class="cls-16" transform="translate(261.24 971.95)">
            <tspan x="0" y="0">Conservation Reserve</tspan>
        </text>
        <text class="cls-16" transform="translate(286.74 656.47)">
            <tspan x="0" y="0">Conservation Reserve</tspan>
        </text>
        <text class="cls-16" transform="translate(302.72 667.46)">
            <tspan x="0" y="0" xml:space="preserve"> 211601m</tspan>
        </text>
        <text class="cls-16" transform="translate(596.24 634.59)">
            <tspan x="0" y="0">Conservation Reserve</tspan>
        </text>
        <text class="cls-16" transform="translate(612.22 645.58)">
            <tspan x="0" y="0" xml:space="preserve"> 178083m</tspan>
        </text>
        <text class="cls-16" transform="translate(276.85 981.97)">
            <tspan x="0" y="0" xml:space="preserve"> 19996m</tspan>
        </text>
        <text class="cls-25" transform="translate(212.28 978.27)">
            <tspan x="0" y="0">114</tspan>
        </text>
        <text class="cls-25" transform="translate(135.07 961.96)">
            <tspan x="0" y="0">114</tspan>
        </text>
        <text class="cls-25" transform="translate(198.02 917.92)">
            <tspan x="0" y="0">114</tspan>
        </text>
        <text class="cls-25" transform="translate(115.68 907.07)">
            <tspan x="0" y="0">114</tspan>
        </text>
        <text class="cls-25" transform="translate(110.42 841.58)">
            <tspan x="0" y="0">114</tspan>
        </text>
        <text class="cls-15" transform="translate(307.74 643.24)">
            <tspan x="0" y="0">114</tspan>
        </text>
        <text class="cls-25" transform="translate(206.88 703.1)">
            <tspan x="0" y="0">114</tspan>
        </text>
        <text class="cls-25" transform="translate(163.72 676.8)">
            <tspan x="0" y="0">114</tspan>
        </text>
        <text class="cls-25" transform="translate(190.96 615.64)">
            <tspan x="0" y="0">114</tspan>
        </text>
        <text class="cls-25" transform="translate(214.51 570.12)">
            <tspan x="0" y="0">114</tspan>
        </text>
        <text class="cls-25" transform="translate(230.14 532.47)">
            <tspan x="0" y="0">114</tspan>
        </text>
        <text class="cls-25" transform="translate(249.3 481.05)">
            <tspan x="0" y="0">114</tspan>
        </text>
        <text class="cls-25" transform="translate(273.84 427.01)">
            <tspan x="0" y="0">114</tspan>
        </text>
        <text class="cls-25" transform="translate(314.61 379.89)">
            <tspan x="0" y="0">114</tspan>
        </text>
        <text class="cls-25" transform="translate(467.04 415.69)">
            <tspan x="0" y="0">114</tspan>
        </text>
        <text class="cls-25" transform="translate(506.44 348.59)">
            <tspan x="0" y="0">114</tspan>
        </text>
        <text class="cls-25" transform="translate(481.83 292.9)">
            <tspan x="0" y="0">114</tspan>
        </text>
        <text class="cls-25" transform="translate(423.72 289.47)">
            <tspan x="0" y="0">114</tspan>
        </text>
        <text class="cls-25" transform="translate(366.6 284.26)">
            <tspan x="0" y="0">114</tspan>
        </text>
        <text class="cls-25" transform="translate(354.93 234.26)">
            <tspan x="0" y="0">114</tspan>
        </text>
        <text class="cls-25" transform="translate(416.04 209.06)">
            <tspan x="0" y="0">114</tspan>
        </text>
        <text class="cls-25" transform="translate(459.24 236.83)">
            <tspan x="0" y="0">114</tspan>
        </text>
        <text class="cls-25" transform="translate(671.81 247.01)">
            <tspan x="0" y="0">114</tspan>
        </text>
        <text class="cls-25" transform="translate(307.08 326.35)">
            <tspan x="0" y="0">114</tspan>
        </text>
        <text class="cls-25" transform="translate(456.8 737.64)">
            <tspan x="0" y="0">114</tspan>
        </text>
        <text class="cls-14" transform="translate(460.81 822.72)">
            <tspan x="0" y="0">114</tspan>
        </text>
        <text class="cls-14" transform="translate(533.65 1012)">
            <tspan x="0" y="0">114</tspan>
        </text>
        <text class="cls-25" transform="translate(213.74 926.89)">
            <tspan x="0" y="0">114</tspan>
        </text>
        <text class="cls-25" transform="translate(442.58 357.35)">
            <tspan x="0" y="0">114</tspan>
        </text>
        <text class="cls-25" transform="translate(671.81 247.01)">
            <tspan x="0" y="0">114</tspan>
        </text>
        <text class="cls-26" transform="translate(307.08 326.35)">
            <tspan x="0" y="0">114</tspan>
        </text>
        <text class="cls-25" transform="translate(671.81 247.01)">
            <tspan x="0" y="0">114</tspan>
        </text>
        <text class="cls-25" transform="translate(671.81 247.01)">
            <tspan x="0" y="0">114</tspan>
        </text>
        <text class="cls-25" transform="translate(671.81 247.01)">
            <tspan x="0" y="0">114</tspan>
        </text>
        <text class="cls-14" transform="translate(671.81 247.01)">
            <tspan x="0" y="0">114</tspan>
        </text>
        <text class="cls-14" transform="translate(575.89 835.86)">
            <tspan x="0" y="0">O.S.</tspan>
        </text>
        <text class="cls-31" transform="translate(464.6 674.33)">
            <tspan x="0" y="0">H1</tspan>
        </text>
        <text class="cls-29" transform="translate(421.36 611.27)">
            <tspan x="0" y="0">114</tspan>
        </text>
        <text class="cls-30" transform="translate(422.52 615.26)">
            <tspan x="0" y="0">OS.</tspan>
        </text>
        <text class="cls-21" transform="translate(418.23 620)">
            <tspan x="0" y="0">1126m</tspan>
        </text>
        <polyline class="cls-27" points="422.82 725.56 413.76 727.7 415.4 735.71 415.18 740.22 415.24 745.54 427.21 744.66 426.77 742.19 425.51 736.1 423.86 729.4 422.82 725.56"/>
        <text class="cls-25" transform="translate(415.61 737.04)">
            <tspan x="0" y="0">114</tspan>
        </text>
        <text class="cls-17" transform="translate(649.09 915.3)">
            <tspan x="0" y="0">1042m</tspan>
        </text>
        <text class="cls-12" transform="translate(633.35 909.92)">
            <tspan x="0" y="0">Conservation Reserve</tspan>
        </text>
        <text class="cls-22" transform="translate(683.92 821)">
            <tspan x="0" y="0">43776m</tspan>
        </text>
        <text class="cls-19" transform="translate(666.27 828.96)">
            <tspan x="0" y="0">30 units/ha [131 Units]</tspan>
        </text>
        <text class="cls-20" transform="translate(499.26 699.87)">
            <tspan x="0" y="0">7756m</tspan>
        </text>
    </g>
</svg>