<?xml version="1.0" encoding="UTF-8"?>
<svg id="ikr_svg" xmlns="http://www.w3.org/2000/svg"
    xmlns:xlink="http://www.w3.org/1999/xlink" viewBox="0 0 1809.36 1334.4">
    <defs>
        <style>.cls-1,.cls-2,.cls-3,.cls-4,.cls-5,.cls-6,.cls-7,.cls-8,.cls-9,.cls-10,.cls-11,.cls-12,.cls-13,.cls-14,.cls-15{fill:#fff;}.cls-1,.cls-2,.cls-3,.cls-4,.cls-5,.cls-6,.cls-7,.cls-8,.cls-9,.cls-10,.cls-11,.cls-12,.cls-16,.cls-14,.cls-15{font-family:Calibri, Calibri;}.cls-1,.cls-17{font-size:5.94px;}.cls-18{font-family:Swiss721BT-Roman, 'Swis721 BT';font-size:1.04px;}.cls-2{font-size:70.81px;}.cls-17,.cls-19{font-family:ArialMT, Arial;}.cls-3{font-size:3.96px;}.cls-20{stroke:#8add6e;}.cls-20,.cls-21,.cls-22,.cls-23,.cls-24,.cls-25,.cls-26,.cls-27{fill:none;}.cls-20,.cls-22,.cls-28,.cls-26,.cls-27{stroke-linecap:round;stroke-width:0px;}.cls-20,.cls-27{stroke-linejoin:round;}.cls-4{font-size:2.29px;}.cls-21,.cls-22,.cls-28,.cls-23,.cls-29,.cls-24,.cls-13,.cls-26{stroke-miterlimit:10;}.cls-21,.cls-29{stroke:#494949;stroke-width:.25px;}.cls-30{clip-path:url(#clippath-2);}.cls-31{fill:#5cb800;}.cls-32,.cls-29{fill:#ffff7f;}.cls-22{stroke:#006edd;}.cls-33{fill:#ff7f9f;}.cls-5{font-size:4.75px;}.cls-28{fill:#d28bbc;stroke:#0f0f10;}.cls-6{font-size:8px;}.cls-7,.cls-34{font-size:4.75px;}.cls-19,.cls-9{font-size:5.54px;}.cls-35,.cls-36{font-size:4.36px;}.cls-35,.cls-36,.cls-34{font-family:MicrosoftSansSerif, 'Microsoft Sans Serif';}.cls-23{stroke-width:10px;}.cls-23,.cls-13{stroke:#fff;}.cls-8{font-size:2.5px;}.cls-36{fill:lime;}.cls-10{font-size:5.94px;}.cls-11{font-size:5px;}.cls-24{stroke:#564e4e;}.cls-12{font-size:5.54px;}.cls-37{clip-path:url(#clippath-3);}.cls-38{fill:#ff7f00;}.cls-39{fill:#9fff7f;}.cls-26,.cls-27{stroke:#000;}.cls-16{fill:#050505;font-size:3px;}.cls-40{fill:#ff0;}.cls-14{font-size:2.13px;}.cls-15{font-size:7.92px;}</style>
        <clipPath id="clippath-2">
            <polyline class="cls-25" points="1807.95 5.58 1545.03 -9.9 1539.87 -9.9 1.95 318.54 1.95 318.9 303.51 1209.9 341.31 1324.02 449.19 1186.98 509.55 1144.98 560.67 1143.18 588.15 1196.1 743.55 1324.38 746.19 1324.38 807.51 1212.54 906.27 1117.5 1200.39 773.34 1381.83 556.5 1535.79 315.06 1614.87 208.38 1682.31 148.26 1750.35 90.9 1807.95 5.7 1807.95 5.58"/>
        </clipPath>
        <clipPath id="clippath-3">
            <polyline class="cls-25" points="1807.95 5.58 1545.03 -9.9 1539.87 -9.9 1.95 318.54 1.95 318.9 303.51 1209.9 341.31 1324.02 449.19 1186.98 509.55 1144.98 560.67 1143.18 588.15 1196.1 743.55 1324.38 746.19 1324.38 807.51 1212.54 906.27 1117.5 1200.39 773.34 1381.83 556.5 1535.79 315.06 1614.87 208.38 1682.31 148.26 1750.35 90.9 1807.95 5.7 1807.95 5.58"/>
        </clipPath>
    </defs>
    <g id="Layer_1">
        <image width="7539" height="5560" transform="scale(.24)" xlink:href="NODE 4 (1) copy-01-01-01.png"/>
    </g>
    <g id="line-2">
        <g class="cls-30">
            <text class="cls-18" transform="translate(113.19 1248.66)">
                <tspan x="0" y="0"></tspan>
            </text>
        </g>
        <g class="cls-37">
            <text class="cls-36" transform="translate(330 878.73) rotate(-16.1)">
                <tspan x="0" y="0">to be relocated / realigned</tspan>
            </text>
        </g>
        <text class="cls-35" transform="translate(332.03 869.98) rotate(-16)">
            <tspan x="0" y="0">Existing Dirt Road</tspan>
        </text>
        <polyline class="cls-25" points="1807.95 5.58 1545.03 -9.9 1539.87 -9.9 1.95 318.54 1.95 318.9 303.51 1209.9 341.31 1324.02 449.19 1186.98 509.55 1144.98 560.67 1143.18 588.15 1196.1 743.55 1324.38 746.19 1324.38 807.51 1212.54 906.27 1117.5 1200.39 773.34 1381.83 556.5 1535.79 315.06 1614.87 208.38 1682.31 148.26 1750.35 90.9 1807.95 5.7 1807.95 5.58"/>
        <rect class="cls-25" x="-315.89" y="-311.74" width="2384" height="1684"/>
        <polygon class="cls-32" points="1410.51 66.18 1237.83 102.78 1237.83 103.5 1237.83 108.06 1237.95 109.98 1237.95 115.62 1237.95 119.82 1237.95 119.94 1237.95 120.06 1237.95 120.18 1237.95 120.3 1237.95 120.42 1238.03 120.5 1238.07 122.58 1238.07 122.82 1238.07 123.18 1238.07 123.54 1238.07 123.9 1238.07 124.38 1238.07 124.74 1238.07 125.22 1238.07 125.46 1238.07 125.7 1238.07 126.18 1238.07 126.66 1238.07 126.78 1238.07 127.02 1238.07 127.14 1238.07 127.5 1238.07 127.62 1238.07 127.98 1238.07 128.1 1238.07 128.46 1238.07 128.94 1238.07 129.3 1238.07 129.42 1238.07 129.78 1238.07 130.14 1238.07 130.5 1238.07 130.86 1238.15 131.12 1238.19 132.78 1238.19 132.9 1238.19 133.02 1238.19 133.14 1238.19 133.26 1238.19 133.38 1238.19 133.5 1238.19 133.62 1238.19 133.74 1238.19 133.86 1238.19 133.98 1238.19 134.1 1238.19 134.22 1238.19 134.46 1238.19 134.58 1238.19 134.82 1238.19 135.06 1238.19 135.3 1238.19 135.54 1238.19 135.78 1238.19 136.02 1238.19 136.26 1238.19 136.62 1238.19 136.86 1238.19 137.22 1238.19 137.58 1238.19 137.82 1238.19 138.18 1238.19 138.54 1238.19 138.9 1238.19 139.26 1238.19 139.62 1238.19 139.98 1238.19 140.34 1238.19 140.7 1238.19 141.06 1238.19 141.18 1238.19 141.3 1238.19 141.66 1238.2 141.68 1238.31 148.14 1238.43 155.22 1238.43 162.66 1238.55 167.34 1241.91 171.18 1246.95 173.1 1251.03 174.78 1260.27 178.38 1270.95 182.58 1275.87 183.54 1279.35 182.58 1293.39 178.38 1295.79 174.78 1300.95 173.1 1303.71 182.46 1312.71 190.62 1324.47 201.3 1335.75 211.5 1375.35 224.22 1392.75 211.5 1406.67 201.3 1404.51 190.62 1404.63 182.46 1404.87 173.1 1404.87 171.18 1404.99 167.34 1405.11 162.66 1400.07 155.22 1394.31 148.14 1393.47 145.58 1393.47 145.5 1393.4 145.36 1393.23 144.84 1393.23 144.78 1393.17 144.66 1392.03 141.18 1392.15 140.82 1392.51 139.98 1392.51 139.86 1392.75 139.14 1392.75 139.02 1392.99 138.3 1393.23 137.58 1393.47 136.86 1393.71 136.26 1393.71 136.14 1393.74 135.95 1393.88 135.54 1393.95 135.54 1394.05 135.02 1394.12 134.8 1394.31 134.34 1394.41 133.93 1394.61 133.32 1394.67 133.26 1394.79 132.9 1394.79 132.78 1395.25 132.42 1395.27 132.42 1395.75 132.06 1395.87 131.94 1395.88 131.92 1397.4 130.74 1397.43 130.74 1397.53 130.64 1397.93 130.33 1398.03 130.26 1398.08 130.21 1398.63 129.78 1398.63 129.78 1398.99 129.54 1399.18 129.35 1402.47 126.78 1403.07 126.66 1403.89 126.39 1408.71 125.46 1414.59 126.66 1415.31 127.14 1419.63 129.54 1423.83 131.94 1423.95 131.94 1424.31 127.14 1424.31 126.66 1424.43 125.58 1424.43 125.46 1424.55 125.22 1424.55 124.98 1424.55 124.62 1424.55 124.5 1424.63 123.86 1424.67 123.78 1424.67 123.54 1424.79 122.58 1425.36 120.21 1425.39 120.18 1425.39 120.09 1426.47 115.62 1431.87 109.98 1431.99 109.98 1438.95 108.06 1447.95 109.98 1452.63 113.7 1456.71 122.22 1456.71 127.14 1456.71 132.54 1454.79 147.18 1450.95 154.38 1448.43 159.18 1440.87 166.26 1435.23 170.7 1435.11 180.66 1448.79 170.7 1454.79 166.26 1464.51 159.18 1470.99 154.38 1473.63 147.18 1479.15 132.54 1481.19 127.14 1481.67 122.22 1482.39 113.7 1482.75 109.98 1482.99 108.06 1483.35 103.5 1483.47 102.78 1488.75 66.18 1429.23 62.22 1410.51 66.18"/>
        <path class="cls-40" d="m265.58,1011.95l-.47-.29-1.68-1.2,2.15,1.49Zm-.47-13.01l-8.28,1.2,17.16-2.52-8.88,1.32Z"/>
        <polyline class="cls-27" points="484.11 267.06 484.47 267.3 492.87 274.62 501.51 291.54 506.79 303.3 513.03 309.3 529.95 313.5 543.03 325.14 555.15 345.06 558.03 359.58 557.91 372.78 568.11 394.26 573.39 431.46 567.51 465.78 580.23 480.42 652.59 472.62 713.79 472.74 670.95 421.62 651.27 411.3 617.19 364.26 601.71 355.74 587.43 338.7 576.39 308.58 551.07 269.22 545.67 249.66 497.31 259.98 475.23 264.66 476.67 264.78 478.11 265.02 479.55 265.38 480.75 265.74 481.23 265.86 481.35 265.98 482.67 266.46 484.11 267.06"/>
        <polyline class="cls-27" points="948.51 204.54 955.47 192.06 961.95 186.9 975.03 186.54 985.23 197.46 985.95 221.34 982.11 243.18 985.71 256.86 1003.47 259.14 1017.03 270.54 1019.19 285.66 1015.71 295.26 1005.51 305.1 994.47 317.46 983.19 321.9 979.11 330.18 986.67 334.74 1006.23 348.9 1024.83 356.7 1034.67 338.94 1045.71 302.7 1046.67 282.78 1053.39 264.06 1062.27 250.74 1089.39 221.46 1089.87 209.82 1086.87 183.78 1102.83 165.78 1106.91 153.18 1116.75 138.42 1115.19 128.82 1094.19 133.26 908.55 172.62 906.51 218.46 912.27 260.94 917.79 298.98 921.75 303.9 930.99 304.14 934.35 300.3 936.15 264.18 939.87 247.5 942.51 223.74 948.51 204.54"/>
        <line class="cls-27" x1="1633.95" y1="84.42" x2="1641.99" y2="76.38"/>
        <polyline class="cls-27" points="1233.51 386.82 1224.63 379.62 1224.87 368.1 1239.51 379.38 1233.51 386.82"/>
        <line class="cls-27" x1="308.55" y1="1135.5" x2="335.07" y2="1111.02"/>
        <line class="cls-27" x1="335.07" y1="1111.02" x2="300.75" y2="1009.02"/>
        <line class="cls-27" x1="281.91" y1="1000.14" x2="276.03" y2="997.38"/>
        <line class="cls-27" x1="276.03" y1="997.38" x2="272.19" y2="994.02"/>
        <line class="cls-27" x1="287.79" y1="1001.34" x2="297.99" y2="1001.82"/>
        <line class="cls-27" x1="297.99" y1="1001.82" x2="300.63" y2="1009.26"/>
        <line class="cls-27" x1="272.19" y1="994.02" x2="276.03" y2="997.38"/>
        <line class="cls-27" x1="276.03" y1="997.38" x2="281.91" y2="1000.14"/>
        <line class="cls-27" x1="272.19" y1="994.02" x2="276.03" y2="997.38"/>
        <line class="cls-27" x1="276.03" y1="997.38" x2="281.91" y2="1000.14"/>
        <line class="cls-27" x1="281.91" y1="1000.14" x2="287.79" y2="1001.34"/>
        <line class="cls-27" x1="287.79" y1="1001.34" x2="297.99" y2="1001.82"/>
        <line class="cls-27" x1="297.99" y1="1001.82" x2="300.63" y2="1009.26"/>
        <line class="cls-27" x1="300.63" y1="1009.26" x2="291.15" y2="1019.7"/>
        <line class="cls-27" x1="291.15" y1="1019.7" x2="285.75" y2="1025.94"/>
        <line class="cls-27" x1="266.07" y1="1093.26" x2="308.55" y2="1135.5"/>
        <line class="cls-27" x1="308.55" y1="1135.5" x2="335.07" y2="1111.02"/>
        <line class="cls-27" x1="335.07" y1="1111.02" x2="300.75" y2="1009.02"/>
        <line class="cls-27" x1="300.75" y1="1009.02" x2="285.75" y2="1025.94"/>
        <line class="cls-27" x1="285.75" y1="1025.94" x2="268.35" y2="1039.62"/>
        <line class="cls-27" x1="308.55" y1="1135.5" x2="288.39" y2="1115.58"/>
        <line class="cls-27" x1="253.35" y1="997.62" x2="249.75" y2="993.78"/>
        <line class="cls-27" x1="264.87" y1="979.74" x2="257.43" y2="963.9"/>
        <line class="cls-27" x1="276.03" y1="997.38" x2="272.19" y2="994.02"/>
        <line class="cls-27" x1="268.35" y1="988.74" x2="264.87" y2="979.74"/>
        <line class="cls-27" x1="281.91" y1="1000.14" x2="287.79" y2="1001.34"/>
        <line class="cls-27" x1="297.99" y1="1001.82" x2="300.63" y2="1009.26"/>
        <line class="cls-27" x1="300.63" y1="1009.26" x2="285.75" y2="1025.94"/>
        <line class="cls-27" x1="285.75" y1="1025.94" x2="269.79" y2="1038.66"/>
        <line class="cls-27" x1="268.35" y1="988.74" x2="272.19" y2="994.02"/>
        <line class="cls-27" x1="268.35" y1="988.74" x2="272.19" y2="994.02"/>
        <line class="cls-27" x1="272.19" y1="994.02" x2="276.03" y2="997.38"/>
        <line class="cls-27" x1="276.03" y1="997.38" x2="278.91" y2="998.94"/>
        <line class="cls-27" x1="278.91" y1="998.94" x2="281.91" y2="1000.14"/>
        <line class="cls-27" x1="253.35" y1="997.62" x2="249.75" y2="993.78"/>
        <line class="cls-27" x1="264.87" y1="979.74" x2="268.35" y2="988.74"/>
        <line class="cls-27" x1="268.35" y1="988.74" x2="272.19" y2="994.02"/>
        <line class="cls-27" x1="297.99" y1="1001.82" x2="300.63" y2="1009.26"/>
        <line class="cls-27" x1="300.63" y1="1009.26" x2="291.15" y2="1019.7"/>
        <line class="cls-27" x1="291.15" y1="1019.7" x2="285.75" y2="1025.94"/>
        <line class="cls-27" x1="285.75" y1="1025.94" x2="269.79" y2="1038.66"/>
        <line class="cls-27" x1="269.79" y1="1038.66" x2="268.35" y2="1039.62"/>
        <line class="cls-27" x1="268.35" y1="1039.62" x2="249.51" y2="1042.38"/>
        <line class="cls-27" x1="249.03" y1="1011.66" x2="255.27" y2="1004.82"/>
        <line class="cls-27" x1="255.27" y1="1004.82" x2="255.87" y2="1000.38"/>
        <line class="cls-27" x1="255.87" y1="1000.38" x2="249.75" y2="993.78"/>
        <line class="cls-27" x1="249.75" y1="993.78" x2="233.55" y2="1008.9"/>
        <line class="cls-27" x1="225.87" y1="980.82" x2="251.07" y2="967.26"/>
        <line class="cls-27" x1="251.07" y1="967.26" x2="257.43" y2="963.9"/>
        <line class="cls-27" x1="257.43" y1="963.9" x2="264.87" y2="979.74"/>
        <line class="cls-27" x1="242.31" y1="1012.26" x2="268.35" y2="1039.62"/>
        <line class="cls-27" x1="249.75" y1="993.78" x2="251.07" y2="967.26"/>
        <line class="cls-27" x1="276.03" y1="997.38" x2="255.87" y2="1000.38"/>
        <line class="cls-27" x1="225.87" y1="980.82" x2="243.51" y2="999.66"/>
        <polyline class="cls-27" points="249.75 993.78 243.51 999.66 225.87 980.82 251.07 967.26 249.75 993.78"/>
        <line class="cls-27" x1="243.51" y1="999.66" x2="225.87" y2="980.82"/>
        <polyline class="cls-27" points="249.51 1042.38 268.35 1039.62 242.31 1012.26"/>
        <polyline class="cls-27" points="249.03 1011.66 255.27 1004.82 285.75 1025.94 268.35 1039.62 242.31 1012.26 249.03 1011.66"/>
        <polyline class="cls-27" points="255.87 1000.38 249.75 993.78 251.07 967.26 257.43 963.9 264.87 979.74 268.35 988.74 272.19 994.02 276.03 997.38 255.87 1000.38"/>
        <polyline class="cls-27" points="255.27 1004.82 255.87 1000.38 276.03 997.38 281.91 1000.14 287.79 1001.34 297.99 1001.82 300.75 1009.02 285.75 1025.94"/>
        <polyline class="cls-27" points="455.31 270.64 456.27 269.44 457.35 268.36 458.43 267.4 459.51 266.44 460.71 265.6 461.91 264.88 462.03 264.76 462.39 264.52 463.11 264.16 444.87 268 435.03 294.04 432.51 298.24 433.47 301.24 429.27 308.2 426.15 308.8 419.07 320.44 399.39 345.88 386.43 360.76 373.59 375.52 375.99 382 390.27 373.72 412.59 368.56 468.39 369.88 491.79 370 506.67 371.68 506.79 361 485.67 353.32 477.03 348.28 470.07 341.44 461.43 325.24 456.27 312.76 451.71 297.4 448.83 286 455.31 270.64"/>
        <polyline class="cls-27" points="351.75 422.1 343.59 436.86 362.55 482.46 470.55 494.58 476.91 459.42 487.71 446.7 480.87 433.62 471.87 429.66 441.39 428.7 428.19 434.7 416.91 436.38 405.75 435.54 391.95 432.18 389.19 430.74 365.07 428.7 351.75 422.1"/>
        <polyline class="cls-26" points="318.27 1222.98 342.63 1196.46 365.43 1169.94 378.39 1155.9 393.99 1137.18 411.99 1115.7 429.27 1095.54 441.39 1080.66 459.63 1059.66 480.87 1034.34 500.55 1011.78 522.63 986.58 536.67 969.9 558.75 944.1 572.91 927.18 587.07 910.02 611.55 878.1 638.55 840.18 670.23 791.58 669.75 791.34 638.07 839.82 611.07 877.74 586.59 909.78 572.43 926.82 558.39 943.74 536.19 969.54 522.15 986.22 500.07 1011.42 480.39 1033.98 459.15 1059.3 441.03 1080.3 428.79 1095.18 411.63 1115.34 393.51 1136.82 377.91 1155.54 364.95 1169.58 342.15 1196.1 317.79 1222.62"/>
        <polygon class="cls-26" points="338.4 485.4 343.71 492.78 344.85 491.94 343.83 492.9 351.87 501.54 353 500.54 352.35 501.9 363.75 507.66 364.35 506.51 364.35 507.9 381.63 507.9 398.07 507.9 398.07 507.83 410.07 510.28 410.07 510.3 424.35 514.14 425.07 511.38 410.79 507.54 398.43 505.02 398.07 506.68 398.07 505.02 381.63 505.02 364.83 505.02 354.03 499.62 345.98 491.1 345.99 491.1 340.47 483.42 339.41 484.2 339.87 482.94 327.03 478.38 326.07 481.02 338.4 485.4"/>
        <polygon class="cls-26" points="436.95 516.78 437.31 515.12 437.31 516.78 455.31 516.78 477.03 516.78 477.03 515.4 477.27 516.78 496.23 514.02 496.05 512.64 496.47 514.02 520.59 506.82 525.64 505.27 544.59 523.98 545.55 523.02 544.83 524.22 574.35 542.94 575.34 541.41 574.47 542.94 594.87 554.58 595.71 553.17 595.23 554.7 619.59 562.38 620.01 561.06 619.83 562.5 654.51 565.98 654.68 564.6 656.07 565.02 658.23 557.22 655.59 556.5 653.66 562.98 620.19 559.62 620.18 559.66 596.14 552.08 575.91 540.42 575.86 540.51 546.27 521.82 546.27 521.82 527.55 503.1 526.57 504.07 525.99 502.14 519.75 504.06 495.63 511.26 495.64 511.29 476.79 514.02 455.31 514.02 437.55 514.02 425.07 511.38 424.47 514.14 436.95 516.78"/>
        <polyline class="cls-26" points="319.35 1192.38 342.03 1167.06 351.63 1156.38 370.47 1134.42 389.43 1112.7 406.83 1092.54 422.55 1073.1 440.19 1052.94 457.95 1032.18 479.79 1006.5 502.35 981.42 514.83 967.38 536.31 941.7 554.07 920.7 567.15 904.74 592.83 871.74 647.79 790.74 647.31 790.38 592.35 871.38 566.67 904.38 553.59 920.34 535.95 941.34 514.35 967.02 501.87 981.06 479.31 1006.14 457.47 1031.82 439.83 1052.58 422.07 1072.74 406.35 1092.06 389.07 1112.34 370.11 1134.06 351.15 1156.02 341.55 1166.7 318.99 1192.02"/>
        <polyline class="cls-26" points="77.79 355.5 317.62 1068.23 321.87 1084.74 326.79 1100.58 332.3 1111.84 332.31 1111.86"/>
        <polygon class="cls-23" points="80.49 345.46 79.35 342.06 76.81 346.23 74.91 346.62 75.5 348.38 334.33 1117.71 340.59 1136.22 638.07 784.5 729.39 584.82 755.91 548.22 753.39 527.1 799.23 358.74 797.19 261.54 833.31 189.3 80.49 345.46"/>
        <text class="cls-17" transform="translate(1259.43 221.1)">
            <tspan x="0" y="0">55432m²</tspan>
        </text>
        <text class="cls-34" transform="translate(1272.03 202.62)">
            <tspan x="0" y="0">4</tspan>
        </text>
        <text class="cls-19" transform="translate(1242.51 214.5)">
            <tspan x="0" y="0">RESORT 2</tspan>
        </text>
        <text class="cls-19" transform="translate(1216.83 227.34)">
            <tspan x="0" y="0">HOTEL / SPA / LEISURE / ACCOMODATION</tspan>
        </text>
        <text class="cls-19" transform="translate(1211.19 256.5)">
            <tspan x="0" y="0">50 LEISURE UNITS + 100 Hotel Rooms</tspan>
        </text>
    </g>
    <g id="shapes">
        <rect id="Node_4__10" class="cls-29" x="1370.35" y="162.99" width="18.24" height="20.52" rx="2.9" ry="2.9" transform="translate(1206.22 1552.72) rotate(-90)"/>
        <rect id="Node_4__11" class="cls-29" x="1350.21" y="182.1" width="18.24" height="20.52" rx="2.9" ry="2.9" transform="translate(1166.97 1551.69) rotate(-90)"/>
        <rect id="Node_4__12" class="cls-29" x="1325.25" y="178.91" width="18.24" height="20.52" rx="2.9" ry="2.9" transform="translate(1145.2 1523.54) rotate(-90)"/>
        <rect id="Node_4__13" class="cls-29" x="1339.8" y="148.9" width="18.24" height="20.52" rx="2.9" ry="2.9" transform="translate(1189.76 1508.08) rotate(-90)"/>
        <rect id="Node_4__9" class="cls-29" x="1364.29" y="141.8" width="18.24" height="20.52" rx="2.9" ry="2.9" transform="translate(1221.35 1525.47) rotate(-90)"/>
        <rect id="Node_4__8" class="cls-29" x="1358.74" y="114.99" width="18.24" height="20.52" rx="2.9" ry="2.9" transform="translate(1242.61 1493.11) rotate(-90)"/>
        <rect id="Node_4__6" class="cls-29" x="1382.36" y="105.98" width="18.24" height="20.52" rx="2.9" ry="2.9" transform="translate(1275.24 1507.72) rotate(-90)"/>
        <rect id="Node_4__5" class="cls-29" x="1405.08" y="99.19" width="18.24" height="20.52" rx="2.9" ry="2.9" transform="translate(1304.76 1523.65) rotate(-90)"/>
        <rect id="Node_4__1" class="cls-29" x="1412.72" y="73.85" width="18.24" height="20.52" rx="2.9" ry="2.9" transform="translate(1337.73 1505.94) rotate(-90)"/>
        <rect id="Node_4__2" class="cls-29" x="1438.35" y="71.82" width="18.24" height="20.52" rx="2.9" ry="2.9" transform="translate(1365.39 1529.55) rotate(-90)"/>
        <rect id="Node_4__3" class="cls-29" x="1462.89" y="76.56" width="18.24" height="20.52" rx="2.9" ry="2.9" transform="translate(1385.19 1558.83) rotate(-90)"/>
        <rect id="Node_4__4" class="cls-29" x="1457.01" y="96.59" width="18.24" height="20.52" rx="2.9" ry="2.9" transform="translate(1359.28 1572.98) rotate(-90)"/>
        <rect id="Node_4__7" class="cls-29" x="1371.64" y="87.66" width="18.24" height="20.52" rx="2.9" ry="2.9" transform="translate(1282.84 1478.68) rotate(-90)"/>
        <rect id="Node_4__19" class="cls-29" x="1346.2" y="99.54" width="13.15" height="14.79" rx="2.9" ry="2.9" transform="translate(2233.72 1139.12) rotate(-135)"/>
        <rect id="Node_4__17" class="cls-29" x="1337.64" y="115.14" width="13.15" height="14.79" rx="2.9" ry="2.9" transform="translate(2208.06 1159.69) rotate(-135)"/>
        <rect id="Node_4__16" class="cls-29" x="1332.95" y="132.54" width="13.15" height="14.79" rx="2.9" ry="2.9" transform="translate(2187.76 1186.08) rotate(-135)"/>
        <rect id="Node_4__15" class="cls-29" x="1316.69" y="143.97" width="13.15" height="14.79" rx="2.9" ry="2.9" transform="translate(2151.93 1194.09) rotate(-135)"/>
        <rect id="Node_4__32" class="cls-29" x="1298.18" y="128.86" width="13.15" height="14.79" rx="2.9" ry="2.9" transform="translate(2131 1155.21) rotate(-135)"/>
        <rect id="Node_4__31" class="cls-29" x="1308.58" y="116.49" width="13.15" height="14.79" rx="2.9" ry="2.9" transform="translate(2157.52 1141.44) rotate(-135)"/>
        <rect id="Node_4__30" class="cls-29" x="1314.07" y="100.6" width="13.15" height="14.79" rx="2.9" ry="2.9" transform="translate(2178.11 1118.2) rotate(-135)"/>
        <rect id="Node_4__29" class="cls-29" x="1295.55" y="97.74" width="13.15" height="14.79" rx="2.9" ry="2.9" transform="translate(1551.02 1387.57) rotate(-105.6)"/>
        <rect id="Node_4__28" class="cls-29" x="1277.51" y="101.7" width="13.15" height="14.79" rx="2.9" ry="2.9" transform="translate(1524.33 1375.22) rotate(-105.6)"/>
        <rect id="Node_4__27" class="cls-29" x="1266.19" y="115.87" width="12.16" height="13.68" rx="2.9" ry="2.9" transform="translate(1496.22 1381.11) rotate(-105.6)"/>
        <rect id="Node_4__33" class="cls-29" x="1268.95" y="134.01" width="11.13" height="12.52" rx="2.9" ry="2.9" transform="translate(1304.48 1422.13) rotate(-97.62)"/>
        <rect id="Node_4__22" class="cls-29" x="1277.87" y="150.7" width="13.15" height="14.79" rx="2.9" ry="2.9" transform="translate(1477.58 1437.75) rotate(-105.6)"/>
        <rect id="Node_4__19-2" class="cls-29" x="1277.45" y="165.61" width="13.15" height="14.79" rx="2.9" ry="2.9" transform="translate(1462.69 1456.26) rotate(-105.6)"/>
        <rect id="Node_4__26" class="cls-29" x="1248.72" y="107.62" width="13.15" height="14.79" rx="2.9" ry="2.9" transform="translate(1482.08 1355) rotate(-105.6)"/>
        <rect id="Node_4__25" class="cls-29" x="1242.81" y="124.9" width="13.15" height="14.79" rx="2.9" ry="2.9" transform="translate(1457.95 1371.24) rotate(-105.6)"/>
        <rect id="Node_4__24" class="cls-29" x="1242.76" y="139.9" width="13.15" height="14.79" rx="2.9" ry="2.9" transform="translate(1443.44 1390.23) rotate(-105.6)"/>
        <rect id="Node_4__21" class="cls-29" x="1242.83" y="157.42" width="13.15" height="14.79" rx="2.9" ry="2.9" transform="translate(1744.14 -994.24) rotate(105.6)"/>
        <rect id="Node_4__20" class="cls-29" x="1259.09" y="164.98" width="13.15" height="14.79" rx="2.9" ry="2.9" transform="translate(1772.06 -1000.31) rotate(105.6)"/>
        <rect id="Node_4__23" class="cls-29" x="1260.77" y="150.25" width="13.15" height="14.79" rx="2.9" ry="2.9" transform="translate(1760 -1020.62) rotate(105.6)"/>
        <rect id="Node_4__14" class="cls-29" x="1308.48" y="172.26" width="13.15" height="14.79" rx="2.9" ry="2.9" transform="translate(2117.89 1236.58) rotate(-135)"/>
        <polygon id="Node_4_Resort_1_A" class="cls-33" points="1192.23 126.9 1191.15 130.5 1187.55 142.86 1171.35 168.78 1148.67 205.14 1144.11 219.18 1142.79 223.38 1137.39 239.94 1110.03 282.54 1104.51 303.66 1101.39 315.9 1094.55 329.94 1090.47 338.22 1089.63 340.02 1084.35 351.06 1084.11 351.42 1082.79 354.06 1079.55 361.02 1075.47 369.54 1074.51 371.58 1075.71 379.26 1078.35 397.02 1075.47 401.34 1067.07 413.94 1065.75 415.98 1066.35 416.82 1070.55 422.22 1071.39 423.18 1076.91 430.26 1105.95 423.18 1109.79 422.22 1109.91 422.22 1110.63 422.22 1149.63 423.18 1153.47 422.22 1176.03 416.82 1191.51 422.22 1191.63 422.22 1195.83 430.38 1200.51 439.5 1200.27 444.18 1200.03 450.06 1199.67 451.14 1199.07 453.18 1198.71 454.26 1193.55 470.34 1173.75 482.46 1154.31 478.5 1130.43 474.42 1107.63 473.46 1106.91 474.42 1103.19 478.5 1099.71 482.46 1098.39 484.02 1083.99 491.82 1071.87 494.58 1071.03 504.78 1059.39 519.9 1043.91 526.86 1032.87 538.26 1030.95 545.22 1029.15 550.5 1027.95 553.5 1026.63 556.62 1025.67 560.7 1034.31 609.06 1116.99 620.34 1155.27 623.7 1157.91 620.34 1166.55 609.06 1203.39 560.7 1206.51 556.62 1208.91 553.5 1211.19 550.5 1215.27 545.22 1220.55 538.26 1229.19 526.86 1234.59 519.9 1246.11 504.78 1253.91 494.58 1255.95 491.82 1261.95 484.02 1263.15 482.46 1272.39 470.34 1284.63 454.26 1285.47 453.18 1271.43 454.26 1267.35 453.18 1259.55 451.14 1257.39 450.06 1245.51 444.18 1239.27 439.5 1226.91 430.38 1219.11 422.22 1213.95 416.82 1213.23 415.98 1211.31 413.94 1204.95 401.34 1205.91 397.02 1209.75 379.26 1209.75 371.58 1209.75 369.54 1207.83 361.02 1202.91 354.06 1198.95 351.42 1185.63 351.06 1167.27 340.02 1164.27 338.22 1154.07 329.94 1156.83 315.9 1159.23 303.66 1167.63 282.54 1184.91 239.94 1191.63 223.38 1193.31 219.18 1203.75 223.38 1205.43 219.18 1211.31 205.14 1226.31 168.78 1225.23 142.86 1224.63 130.5 1218.99 126.9 1210.71 121.38 1192.23 126.9"/>
        <polygon id="Node_4_Resort_1" class="cls-33" points="1034.67 338.94 1035.99 334.74 1037.31 330.18 1039.83 321.9 1041.15 317.46 1044.99 305.1 1045.71 302.7 1046.07 295.26 1046.55 285.66 1046.67 282.78 1051.11 270.54 1053.39 264.06 1056.63 259.14 1058.07 256.86 1062.27 250.74 1069.11 243.18 1089.39 221.46 1089.39 221.34 1089.87 209.82 1088.43 197.46 1087.23 186.9 1087.23 186.54 1086.87 183.78 1096.71 172.62 1102.83 165.78 1106.91 153.18 1116.75 138.42 1115.91 133.26 1115.19 128.82 1094.19 133.26 1069.71 138.42 1000.59 153.18 940.71 165.78 908.55 172.62 908.07 183.78 907.95 186.54 907.95 186.9 907.71 192.06 907.11 204.54 906.51 218.46 907.23 223.74 910.47 247.5 912.27 260.94 912.75 264.18 917.79 298.98 918.87 300.3 921.75 303.9 930.99 304.14 931.23 303.9 934.35 300.3 934.47 298.98 936.15 264.18 936.87 260.94 939.87 247.5 942.51 223.74 944.19 218.46 948.51 204.54 955.47 192.06 961.95 186.9 975.03 186.54 975.39 186.9 985.23 197.46 985.59 209.82 985.95 221.34 985.95 221.46 982.11 243.18 984.03 250.74 985.71 256.86 1003.47 259.14 1009.35 264.06 1017.03 270.54 1018.71 282.78 1019.19 285.66 1015.71 295.26 1007.91 302.7 1005.51 305.1 994.47 317.46 983.19 321.9 979.11 330.18 986.67 334.74 992.55 338.94 1006.23 348.9 1024.83 356.7 1029.15 348.9 1034.67 338.94"/>
        <polygon id="Node_4_Resort_3_Eco" class="cls-39" points="497.31 256.96 475.23 261.64 476.67 261.76 478.11 262 479.55 262.36 480.75 262.72 481.23 262.84 481.35 262.96 482.67 263.44 484.11 264.04 484.47 264.28 486.75 266.2 492.87 271.6 501.51 288.52 506.79 300.28 512.19 305.56 513.03 306.28 529.95 310.48 543.03 322.12 551.31 335.68 555.15 342.04 557.31 352.72 558.03 356.56 558.03 361.24 557.91 369.76 568.11 391.24 570.51 408.28 571.95 418.6 573.39 428.44 567.51 462.76 573.39 469.6 573.51 469.72 580.23 477.4 651.39 469.72 652.59 469.6 713.79 469.72 713.67 469.6 708.03 462.76 679.23 428.44 670.95 418.6 651.27 408.28 638.91 391.24 623.43 369.76 617.19 361.24 608.79 356.56 601.71 352.72 592.71 342.04 587.43 335.68 582.39 322.12 578.19 310.48 576.63 306.28 576.39 305.56 573.03 300.28 565.47 288.52 554.43 271.6 551.07 266.2 550.47 264.28 550.47 264.04 550.23 263.44 550.11 262.96 550.11 262.84 550.11 262.72 549.99 262.36 549.87 262 549.87 261.76 549.75 261.64 548.55 256.96 545.67 246.64 497.31 256.96"/>
        <polygon id="Node_4_Resort_3" class="cls-39" points="390.27 373.72 412.59 368.56 468.39 369.88 491.79 370 506.67 371.68 506.67 370 506.67 369.88 506.67 368.56 506.79 361 506.07 360.76 485.67 353.32 477.03 348.28 474.51 345.88 470.07 341.44 461.43 325.24 459.51 320.44 456.27 312.76 455.19 308.8 454.95 308.2 452.91 301.24 451.95 298.24 451.71 297.4 450.87 294.04 448.83 286 455.31 270.64 456.27 269.44 457.35 268.36 457.71 268 458.43 267.4 459.51 266.44 460.71 265.6 461.91 264.88 462.03 264.76 462.39 264.52 463.11 264.16 461.43 264.52 460.35 264.76 460.11 264.88 456.51 265.6 452.55 266.44 448.11 267.4 444.87 268 444.75 268.36 444.39 269.44 443.91 270.64 438.03 286 435.03 294.04 432.99 297.4 432.51 298.24 433.47 301.24 429.27 308.2 426.15 308.8 423.75 312.76 419.07 320.44 415.47 325.24 402.75 341.44 399.39 345.88 397.35 348.28 392.91 353.32 386.43 360.76 386.31 361 379.71 368.56 375.27 373.72 373.59 375.52 375.99 382 387.03 375.52 390.27 373.72"/>
        <polygon id="Node_4_Education" class="cls-31" points="434.43 661.86 410.43 677.7 423.63 697.14 417.51 703.5 405.75 715.5 392.67 728.94 388.23 758.34 386.55 769.26 369.63 814.38 365.55 822.18 358.11 835.98 353.07 839.1 342.03 845.94 340.59 846.78 322.11 845.94 314.79 839.1 293.55 819.54 292.71 818.7 292.35 819.54 285.99 839.1 284.43 845.94 284.31 846.78 282.51 854.94 281.07 862.02 277.95 876.18 271.83 893.22 271.35 894.54 269.19 900.54 267.87 903.9 266.55 907.5 267.99 911.46 271.47 922.02 275.19 933.06 277.47 939.9 279.63 946.26 280.95 950.22 282.03 953.34 282.03 953.46 282.99 956.1 295.95 953.46 302.67 956.1 310.23 959.1 317.07 962.1 322.71 964.5 328.71 966.66 331.95 967.86 344.43 966.66 345.51 964.5 346.71 962.1 348.99 959.1 351.15 956.1 353.19 953.46 353.19 953.34 344.79 950.22 336.99 946.26 328.95 939.9 323.55 933.06 320.43 922.02 323.19 911.46 326.91 907.5 330.27 903.9 338.79 900.54 349.83 901.02 359.31 904.86 363.27 907.98 369.63 912.78 379.35 916.5 391.47 923.58 392.91 924.42 396.15 926.94 396.51 927.18 403.23 926.94 413.07 924.42 416.31 923.58 435.51 916.5 445.35 912.78 458.43 907.98 468.27 904.86 480.75 901.02 482.55 900.54 501.75 894.54 531.63 893.22 545.31 876.18 556.71 862.02 570.99 844.14 567.63 837.66 558.63 819.54 542.67 787.74 539.19 780.66 529.11 787.74 502.47 819.54 479.67 837.66 468.15 844.14 436.71 862.02 409.59 854.94 405.99 846.78 405.63 845.94 402.51 839.1 404.31 835.98 411.87 822.18 419.07 814.38 461.19 769.26 471.27 758.34 501.99 728.94 515.91 715.5 504.87 703.5 499.47 697.14 483.03 677.7 469.59 661.86 466.83 658.62 434.43 661.86"/>
        <path id="Node_4_Resort_4" class="cls-28" d="m1236.03,376.74l-11.16-8.64-.12-4.2s-3.3-8.18-3.72-8.76-7.7-11.06-8.04-11.28-19.5-12.16-19.5-12.16l-9.72-1.28-9.66-5.64,1.08-11.64-3.12-6.79,19.08-46.38,18-19.06,26.52-59.88,6.84-2.28s25.36,10.48,27.48,10.68c2.12.2,6.96.96,7.8.72s26.04-7.68,26.04-7.68l32.1,29.1-17.34,43.68-64.44,100.62-18.12,20.88Z"/>
    </g>
    <g id="line">
        <path class="cls-13" d="m1487.81,101.28l7.3-38.58-66.12-4.92-68.53,16.1-454.07,96.34-39.36,116.52-8.28,113.52-46.2,198.12-183.72,295.92-265.08,310.68,10.44,31.44,89.04-125.52,18.72-6.12,29.64-25.44,9.72-7.68,43.68-.96,14.64,12.48,17.52,44.28,62.28-75.24,32.88-13.8,109.44-70.56,21.48,3.48,21.84-6.84,31.68-7.8,20.4,9.72,23.64-9.12,22.68-37.56-13.68-36.24-25.2-32.04-14.52-26.76-10.2-30.36-15.36-23.76-17.52-17.16,15.84-17.4,31.2,25.32-.24,42.96,13.44,32.4,28.68,37.92,16.56,35.76-3.24,22.2-13.92,25.32-22.92,15.72-35.64,4.68-38.4,17.52-35.76,7.32-90,94.68-7.8,52.44,1.08,32.4,9.96,6.48-3.96,9,4.32,22.32,14.04,12,24.12-40.2,43.92-65.52,159.48-162.24,328.92-402.96,183.12-278.76,52.92-56.76,65.16-48.36,56.52-65.52,20.64-37.08-3.48-.23h0s-130.44-10.69-130.44-10.69l-6.36,32.68-2.52,9.44-34.42-4.98Zm-1.05,5.57l2.06.3-2.11-.05.05-.25Zm-614.09,180.97l38.04-112.68,297.62-63.13-13.1,8.65-7.2,13.2-5.88,6-8.4,16.68-10.56,17.64-7.2,13.32-7.08,23.52-15.24,29.16-11.64,21-10.56,17.64-8.64,13.44-1.2,15.84-5.76,20.52-8.04,13.8-13.8,26.52,3,9v18.48l-4.44,6.24-10.41,8.52-.03-.24-29.88,3.84-11.4,3.24h-15l-50.16-.72-28.8-2.52-63.82-8.09,1.3-5.59,8.28-113.28Zm767.04-178.92l-55.68,64.56-65.16,48.24-53.52,57.6-183.24,278.88-328.68,402.48-159.6,162.48-44.28,66-20.76,34.68-7.32-6.36-3.72-18.72,5.28-11.64-11.52-7.56-1.08-29.04,7.56-50.04,87.48-92.16,34.68-7.08,38.16-17.4,36.24-4.68,25.08-17.28,15.12-27.36,3.6-24.96-17.52-37.8-28.56-37.8-12.84-30.72.24-44.52-37.32-30.36-23.16,25.32,20.88,20.52,14.64,22.56,10.08,30.24,15.12,27.6,24.84,31.8,12.48,32.88-20.28,33.48-19.56,7.56-20.04-9.6-33.84,8.4-20.64,6.48-22.32-3.72-110.88,71.52-33.72,14.16-57,68.88-14.52-36.6-17.4-14.76-47.64,1.08-11.4,8.76-28.92,24.84-19.32,6.24-83.64,118.08-6-17.88,263.28-308.52,184.44-297.12,43.96-188.29,64.52,8.17,29.16,2.64,50.28.6h15.84l11.88-3.24,28.1-3.67,3.7,5.59,13.08,9.48,21-7.68,24.6-2.16,13.32-12.12,20.16-21.36,12.6-26.28,9.6-13.08,9.96,7.8,10.92,15.72-.96,20.88,7.32,22.8,13.56,20.76,23.16,16.44,22.68,7.92,22.44-7.2,12.36-5.04,16.08-2.04,40.66,2.38.36-5.64-41.26-2.5-17.4,2.28-12.72,5.28-20.4,6.48-20.28-7.08-21.6-15.24-12.48-19.32-6.72-21,.96-21.84-12.48-18-15.24-11.88-13.32,18.24-12.48,25.92-19.44,20.52-11.76,10.8-23.52,1.92-18.72,6.96-9.84-7.2-2.52-3.6,9.84-8.04,5.88-8.4v-21.12l-2.52-7.68,12.6-24.24,8.4-14.4,6.12-21.72,1.08-14.88,7.92-12.36,10.68-17.76,11.76-21.24,15.48-29.64,6.96-23.52,6.96-12.6,10.56-17.76,8.16-16.08,5.76-5.88,6.96-12.72,16.68-11.04,140.53-33.06,72.71-15.42,56.16,3.72-5.4,37.08.89.13-1.25,6.59,47.4,1.08,3.12-15.91,6.84-25.61,118.44,8.04-15.96,28.68Z"/>
        <path class="cls-21" d="m1367.2,84.14c-3.31.57-6.43,1.1-7.23,1.19-1.62.17-15.51,2.5-18.73,4.71-2.2,1.51-3,5.04-4.06,10.67-.39,2.09-.8,4.25-1.23,5.25-1.27,2.99-12.66,21.19-14.85,23.75-.47.55-1.76,1.85-3.26,3.36-4.39,4.43-11.01,11.1-15.5,17.01-3.66-2.1-6.63-3.61-8.67-4.59-.19-6.24.94-11.02,2.87-11.86,3.84-1.66,6.54-4.51,7.24-7.62.38-1.71.34-4.29-2.02-6.95-2.03-2.29-4.54-3.43-7.25-3.29-3.92.2-7.83,2.99-11.62,8.28-4.31,6.02-9.21,5.54-11.57,5.31-.32-.03-.59-.06-.8-.07-2.26-.11-7.91.02-11.36,3.45-1.87,1.86-2.81,4.42-2.68,7.41.13,3.2,1.8,5.98,4.84,8.03,5.22,3.52,13.72,4.26,16.35,3.32,1.67-.6,7.61-1.78,11.65-2.52,1.42.63,5.08,2.33,10.18,5.24-.27.46-.53.91-.75,1.35-4.59,8.92-2.99,21.7-2.92,22.24.18,1.37,1.43,2.33,2.8,2.16,1.37-.18,2.33-1.43,2.16-2.8-.02-.12-1.46-11.79,2.41-19.31.18-.35.39-.72.61-1.09,3.28,2.01,6.96,4.42,10.9,7.26,15.72,11.33,41.05,11.12,42.12,11.11,1.37-.02,2.47-1.13,2.47-2.5v-.03c-.02-1.38-1.15-2.49-2.53-2.47-.25,0-24.76.19-39.13-10.17-3.96-2.86-7.66-5.28-10.96-7.32,4.32-5.58,10.79-12.1,14.72-16.06,1.69-1.71,2.92-2.94,3.5-3.62,2.5-2.91,14.21-21.64,15.66-25.05.64-1.5,1.05-3.71,1.54-6.28.44-2.34,1.26-6.71,1.98-7.48,1.69-1.16,13.4-3.55,16.41-3.86.16-.02.38-.05.64-.08,1.57,3.12,4.85,10.92,3.15,18.99-.29,1.35.58,2.68,1.93,2.96,1.35.28,2.68-.58,2.96-1.93.41-1.96.59-3.9.59-5.76,0-6.29-1.98-11.81-3.48-15.11.56-.1,1.14-.19,1.77-.3,4.7-.81,12.56-2.16,13.72-2.15.33.03,8.02.64,13.75,3.14,1.88.82,3.93,1.95,6.09,3.14,4.07,2.24,8.27,4.55,12.22,5.29,5.58,1.05,13.96,1.47,20.74-.48.2-.06.42-.11.64-.17l5.19,12.01c.55,1.27,2.02,1.85,3.29,1.3.94-.41,1.51-1.33,1.51-2.3,0-.33-.07-.67-.21-.99l-4.67-10.82c4.8-.37,10.37.08,14.91,1.31,1.33.36,2.71-.43,3.07-1.76.06-.22.09-.44.09-.66,0-1.1-.73-2.11-1.85-2.41-6.31-1.71-14.18-2.06-20.27-1.01-.03,0-.07,0-.1.02-1.05.18-2.05.4-2.97.67-5.95,1.71-13.65,1.27-18.43.37-3.16-.59-7.01-2.71-10.74-4.76-2.17-1.19-4.41-2.43-6.5-3.34-6.38-2.78-14.46-3.47-15.36-3.54-1.21-.09-4.97.5-14.95,2.21Zm-103.32,59.74c-1.56-1.12-2.34-2.4-2.4-3.92-.06-1.59.33-2.79,1.21-3.66,1.67-1.66,5.03-2.13,7.61-2.01.14,0,.33.03.54.05,2.77.27,10.14,1,16.13-7.37,2.78-3.88,5.55-6.08,7.81-6.2,1.17-.06,2.23.47,3.25,1.61,1.04,1.17,1,2.02.88,2.55-.33,1.48-2.07,3.13-4.34,4.12-4.9,2.12-5.91,9.37-5.91,14.99-2.29.42-10.19,1.88-12.64,2.76-1.19.35-8.15-.05-12.13-2.92Z"/>
        <path class="cls-38" d="m434.43,661.86l-8.28,5.4-3.96,2.64-11.76,7.8,1.44,2.16,11.76,17.28-.72.84-30.24,30.96-.6,3.84-5.52,36.48-.72,1.92-16.2,43.2-1.68,3.36-9.84,18.24-9.36,5.76-6.72,4.2-1.44.84-18.48-.84-13.2-12.24-15.36-14.16-.84-.84-.36.84-4.68,14.16-1.68,5.4-.48,2.04-7.56,35.04-.72,2.16-10.56,29.04-.12.12,12.96,38.28.12.24,1.68,5.04.72,2.4.96,2.64,12.96-2.64,6.72,2.64.84.36,5.16,2.04,1.32.48.24.12,6.84,3,5.64,2.4,6,2.16,3.24,1.2,12.48-1.2,1.08-2.16,1.2-2.4,2.28-3v-.12l.36-.48.84-1.08.36-.48,2.64-3.6-.36-.12-8.04-3-7.8-3.96-.6-.48-7.44-5.88-2.4-3-3-3.84-3.12-11.04v-.12l2.76-10.44,4.08-4.44,3-3.12,7.2-2.88,1.32-.48,11.04.48,9.48,3.84.24.24,4.56,3.48,5.52,4.2,9.72,3.72,1.2.6,1.92,1.2.24.12,8.76,5.16,1.44.84,3.24,2.52.36.24,6.72-.24,9.84-2.52,3.24-.84,13.92-5.16.36-.12,8.28-3.12,19.56-7.2,26.52-8.28,16.8-5.16,29.88-1.32,5.88-7.32.96-1.2,32.52-40.56-.72-1.2-24.84-49.92-2.76-5.28-3.48-7.08-10.08,7.08-4.56,5.28-.6.84-21.48,25.68-7.44,5.88-15.36,12.24-12.12,6.84-30.72,17.4-.12.12-.36-.12-26.76-6.96-7.08-15.84.36-.6,9-16.32,4.92-5.28,54.48-58.56,6.48-6.12,38.16-36.72-.48-.48-5.64-6.12-4.92-5.4-30.6-36.24-4.68-5.4-2.76-3.24-32.4,3.24Zm59.64,41.64l4.68,5.4,5.64,6.12-.6.48-38.28,36.72-5.76,6.12-54.48,58.56-2.88,5.28-9.12,16.32.24.6,7.2,15.84,3.12,6.96.36.12,33.96,8.88,15.72-8.88.24-.12,30.6-17.4,8.64-6.84,15.36-12.24,4.92-5.88,21.6-25.68,1.08-.84,24.84,49.92-.96,1.2-32.52,40.56-27.12,1.2-23.64,7.32-4.08,1.32-16.8,5.16-22.32,8.28-19.68,7.2-11.76,3.12-2.64.12-.12-.12-1.44-1.2-1.2-.6-6.24-3.72-7.32-4.2-9.24-3.48-.24-.24-5.04-3.84-.72-.48-4.2-3.24-1.92-.84-9.96-3.96-14.28-.72-1.8.72-10.32,3.96-.72.84-3,3.24-.48.48-2.64,2.88-3,3.12-1.08,4.44-2.76,10.44v.12l3.12,11.04,1.08,3.84,2.4,3,4.68,5.88.6.48,5.04,3.96,3.84,3,.24.12,7.08,3.6-.24.48-.6,1.08-5.76.48-1.56-.48-5.64-2.04-.84-.36-6-2.64-5.52-2.4-12.6-5.04-.84-.24-3.36-1.32-6.6,1.32-1.56.24-.12-.24-12.84-38.28v-.12l10.56-29.04.48-2.16,7.44-35.04.72-2.04,1.8-5.4,13.2,12.24.96.84,7.92,7.32,16.68.84,7.44.36.6-.36,1.2-.84,11.76-7.32,1.44-.84,6.72-4.2,3.12-5.76,9.84-18.24,1.2-3.36,16.08-43.2.36-1.92,5.52-36.48,3.72-3.84,30.24-30.96-.6-.84-11.76-17.28,3.36-2.16,11.76-7.8,25.92-2.64,30.48,36.24Z"/>
        <polygon class="cls-22" points="669.75 791.34 638.55 840.18 670.23 791.58 669.75 791.34"/>
        <polygon class="cls-22" points="638.07 839.82 638.55 840.18 669.75 791.34 638.07 839.82"/>
        <polygon class="cls-22" points="638.07 839.82 611.55 878.1 638.55 840.18 638.07 839.82"/>
        <polygon class="cls-22" points="611.07 877.74 611.55 878.1 638.07 839.82 611.07 877.74"/>
        <polygon class="cls-22" points="611.07 877.74 587.07 910.02 611.55 878.1 611.07 877.74"/>
        <polygon class="cls-22" points="586.59 909.78 587.07 910.02 611.07 877.74 586.59 909.78"/>
        <polygon class="cls-22" points="586.59 909.78 572.91 927.18 587.07 910.02 586.59 909.78"/>
        <polygon class="cls-22" points="572.43 926.82 572.91 927.18 586.59 909.78 572.43 926.82"/>
        <polygon class="cls-22" points="572.43 926.82 558.75 944.1 572.91 927.18 572.43 926.82"/>
        <polygon class="cls-22" points="558.39 943.74 558.75 944.1 572.43 926.82 558.39 943.74"/>
        <polygon class="cls-22" points="558.39 943.74 536.67 969.9 558.75 944.1 558.39 943.74"/>
        <polygon class="cls-22" points="536.19 969.54 536.67 969.9 558.39 943.74 536.19 969.54"/>
        <polygon class="cls-22" points="536.19 969.54 522.63 986.58 536.67 969.9 536.19 969.54"/>
        <polygon class="cls-22" points="522.15 986.22 522.63 986.58 536.19 969.54 522.15 986.22"/>
        <polygon class="cls-22" points="522.15 986.22 500.55 1011.78 522.63 986.58 522.15 986.22"/>
        <polygon class="cls-22" points="500.07 1011.42 500.55 1011.78 522.15 986.22 500.07 1011.42"/>
        <polygon class="cls-22" points="500.07 1011.42 480.87 1034.34 500.55 1011.78 500.07 1011.42"/>
        <polygon class="cls-22" points="480.39 1033.98 480.87 1034.34 500.07 1011.42 480.39 1033.98"/>
        <polygon class="cls-22" points="480.39 1033.98 459.63 1059.66 480.87 1034.34 480.39 1033.98"/>
        <polygon class="cls-22" points="459.15 1059.3 459.63 1059.66 480.39 1033.98 459.15 1059.3"/>
        <polygon class="cls-22" points="459.15 1059.3 441.39 1080.66 459.63 1059.66 459.15 1059.3"/>
        <polygon class="cls-22" points="441.03 1080.3 441.39 1080.66 459.15 1059.3 441.03 1080.3"/>
        <polygon class="cls-22" points="441.03 1080.3 429.27 1095.54 441.39 1080.66 441.03 1080.3"/>
        <polygon class="cls-22" points="428.79 1095.18 429.27 1095.54 441.03 1080.3 428.79 1095.18"/>
        <polygon class="cls-22" points="428.79 1095.18 411.99 1115.7 429.27 1095.54 428.79 1095.18"/>
        <polygon class="cls-22" points="411.63 1115.34 411.99 1115.7 428.79 1095.18 411.63 1115.34"/>
        <polygon class="cls-22" points="411.63 1115.34 393.99 1137.18 411.99 1115.7 411.63 1115.34"/>
        <polygon class="cls-22" points="393.51 1136.82 393.99 1137.18 411.63 1115.34 393.51 1136.82"/>
        <polygon class="cls-22" points="393.51 1136.82 378.39 1155.9 393.99 1137.18 393.51 1136.82"/>
        <polygon class="cls-22" points="377.91 1155.54 378.39 1155.9 393.51 1136.82 377.91 1155.54"/>
        <polygon class="cls-22" points="377.91 1155.54 365.43 1169.94 378.39 1155.9 377.91 1155.54"/>
        <polygon class="cls-22" points="364.95 1169.58 365.43 1169.94 377.91 1155.54 364.95 1169.58"/>
        <polygon class="cls-22" points="364.95 1169.58 342.63 1196.46 365.43 1169.94 364.95 1169.58"/>
        <polygon class="cls-22" points="342.15 1196.1 342.63 1196.46 364.95 1169.58 342.15 1196.1"/>
        <polygon class="cls-22" points="342.15 1196.1 318.27 1222.98 342.63 1196.46 342.15 1196.1"/>
        <polygon class="cls-22" points="317.79 1222.62 318.27 1222.98 342.15 1196.1 317.79 1222.62"/>
        <polygon class="cls-22" points="317.79 1222.62 308.22 1233.8 308.35 1234.2 318.27 1222.98 317.79 1222.62"/>
        <polygon class="cls-22" points="308.12 1233.51 308.22 1233.8 317.79 1222.62 308.12 1233.51"/>
        <polygon class="cls-22" points="669.75 791.34 638.55 840.18 670.23 791.58 669.75 791.34"/>
        <polygon class="cls-22" points="638.07 839.82 638.55 840.18 669.75 791.34 638.07 839.82"/>
        <polygon class="cls-22" points="638.07 839.82 611.55 878.1 638.55 840.18 638.07 839.82"/>
        <polygon class="cls-22" points="611.07 877.74 611.55 878.1 638.07 839.82 611.07 877.74"/>
        <polygon class="cls-22" points="611.07 877.74 587.07 910.02 611.55 878.1 611.07 877.74"/>
        <polygon class="cls-22" points="586.59 909.78 587.07 910.02 611.07 877.74 586.59 909.78"/>
        <polygon class="cls-22" points="586.59 909.78 572.91 927.18 587.07 910.02 586.59 909.78"/>
        <polygon class="cls-22" points="572.43 926.82 572.91 927.18 586.59 909.78 572.43 926.82"/>
        <polygon class="cls-22" points="572.43 926.82 558.75 944.1 572.91 927.18 572.43 926.82"/>
        <polygon class="cls-22" points="558.39 943.74 558.75 944.1 572.43 926.82 558.39 943.74"/>
        <polygon class="cls-22" points="558.39 943.74 536.67 969.9 558.75 944.1 558.39 943.74"/>
        <polygon class="cls-22" points="536.19 969.54 536.67 969.9 558.39 943.74 536.19 969.54"/>
        <polygon class="cls-22" points="536.19 969.54 522.63 986.58 536.67 969.9 536.19 969.54"/>
        <polygon class="cls-22" points="522.15 986.22 522.63 986.58 536.19 969.54 522.15 986.22"/>
        <polygon class="cls-22" points="522.15 986.22 500.55 1011.78 522.63 986.58 522.15 986.22"/>
        <polygon class="cls-22" points="500.07 1011.42 500.55 1011.78 522.15 986.22 500.07 1011.42"/>
        <polygon class="cls-22" points="500.07 1011.42 480.87 1034.34 500.55 1011.78 500.07 1011.42"/>
        <polygon class="cls-22" points="480.39 1033.98 480.87 1034.34 500.07 1011.42 480.39 1033.98"/>
        <polygon class="cls-22" points="480.39 1033.98 459.63 1059.66 480.87 1034.34 480.39 1033.98"/>
        <polygon class="cls-22" points="459.15 1059.3 459.63 1059.66 480.39 1033.98 459.15 1059.3"/>
        <polygon class="cls-22" points="459.15 1059.3 441.39 1080.66 459.63 1059.66 459.15 1059.3"/>
        <polygon class="cls-22" points="441.03 1080.3 441.39 1080.66 459.15 1059.3 441.03 1080.3"/>
        <polygon class="cls-22" points="441.03 1080.3 429.27 1095.54 441.39 1080.66 441.03 1080.3"/>
        <polygon class="cls-22" points="428.79 1095.18 429.27 1095.54 441.03 1080.3 428.79 1095.18"/>
        <polygon class="cls-22" points="428.79 1095.18 411.99 1115.7 429.27 1095.54 428.79 1095.18"/>
        <polygon class="cls-22" points="411.63 1115.34 411.99 1115.7 428.79 1095.18 411.63 1115.34"/>
        <polygon class="cls-22" points="411.63 1115.34 393.99 1137.18 411.99 1115.7 411.63 1115.34"/>
        <polygon class="cls-22" points="393.51 1136.82 393.99 1137.18 411.63 1115.34 393.51 1136.82"/>
        <polygon class="cls-22" points="393.51 1136.82 378.39 1155.9 393.99 1137.18 393.51 1136.82"/>
        <polygon class="cls-22" points="377.91 1155.54 378.39 1155.9 393.51 1136.82 377.91 1155.54"/>
        <polygon class="cls-22" points="377.91 1155.54 365.43 1169.94 378.39 1155.9 377.91 1155.54"/>
        <polygon class="cls-22" points="364.95 1169.58 365.43 1169.94 377.91 1155.54 364.95 1169.58"/>
        <polygon class="cls-22" points="364.95 1169.58 342.63 1196.46 365.43 1169.94 364.95 1169.58"/>
        <polygon class="cls-22" points="342.15 1196.1 342.63 1196.46 364.95 1169.58 342.15 1196.1"/>
        <polygon class="cls-22" points="342.15 1196.1 318.27 1222.98 342.63 1196.46 342.15 1196.1"/>
        <polygon class="cls-22" points="317.79 1222.62 318.27 1222.98 342.15 1196.1 317.79 1222.62"/>
        <polygon class="cls-22" points="317.79 1222.62 308.22 1233.8 308.35 1234.2 318.27 1222.98 317.79 1222.62"/>
        <polygon class="cls-22" points="308.12 1233.51 308.22 1233.8 317.79 1222.62 308.12 1233.51"/>
        <polygon class="cls-22" points="647.31 790.38 592.83 871.74 647.79 790.74 647.31 790.38"/>
        <polygon class="cls-22" points="592.35 871.38 592.83 871.74 647.31 790.38 592.35 871.38"/>
        <polygon class="cls-22" points="592.35 871.38 567.15 904.74 592.83 871.74 592.35 871.38"/>
        <polygon class="cls-22" points="566.67 904.38 567.15 904.74 592.35 871.38 566.67 904.38"/>
        <polygon class="cls-22" points="566.67 904.38 554.07 920.7 567.15 904.74 566.67 904.38"/>
        <polygon class="cls-22" points="553.59 920.34 554.07 920.7 566.67 904.38 553.59 920.34"/>
        <polygon class="cls-22" points="553.59 920.34 536.31 941.7 554.07 920.7 553.59 920.34"/>
        <polygon class="cls-22" points="535.95 941.34 536.31 941.7 553.59 920.34 535.95 941.34"/>
        <polygon class="cls-22" points="535.95 941.34 514.83 967.38 536.31 941.7 535.95 941.34"/>
        <polygon class="cls-22" points="514.35 967.02 514.83 967.38 535.95 941.34 514.35 967.02"/>
        <polygon class="cls-22" points="514.35 967.02 502.35 981.42 514.83 967.38 514.35 967.02"/>
        <polygon class="cls-22" points="501.87 981.06 502.35 981.42 514.35 967.02 501.87 981.06"/>
        <polygon class="cls-22" points="501.87 981.06 479.79 1006.5 502.35 981.42 501.87 981.06"/>
        <polygon class="cls-22" points="479.31 1006.14 479.79 1006.5 501.87 981.06 479.31 1006.14"/>
        <polygon class="cls-22" points="479.31 1006.14 457.95 1032.18 479.79 1006.5 479.31 1006.14"/>
        <polygon class="cls-22" points="457.47 1031.82 457.95 1032.18 479.31 1006.14 457.47 1031.82"/>
        <polygon class="cls-22" points="457.47 1031.82 440.19 1052.94 457.95 1032.18 457.47 1031.82"/>
        <polygon class="cls-22" points="439.83 1052.58 440.19 1052.94 457.47 1031.82 439.83 1052.58"/>
        <polygon class="cls-22" points="439.83 1052.58 422.55 1073.1 440.19 1052.94 439.83 1052.58"/>
        <polygon class="cls-22" points="422.07 1072.74 422.55 1073.1 439.83 1052.58 422.07 1072.74"/>
        <polygon class="cls-22" points="422.07 1072.74 406.83 1092.54 422.55 1073.1 422.07 1072.74"/>
        <polygon class="cls-22" points="406.35 1092.06 406.83 1092.54 422.07 1072.74 406.35 1092.06"/>
        <polygon class="cls-22" points="406.35 1092.06 389.43 1112.7 406.83 1092.54 406.35 1092.06"/>
        <polygon class="cls-22" points="389.07 1112.34 389.43 1112.7 406.35 1092.06 389.07 1112.34"/>
        <polygon class="cls-22" points="389.07 1112.34 370.47 1134.42 389.43 1112.7 389.07 1112.34"/>
        <polygon class="cls-22" points="370.11 1134.06 370.47 1134.42 389.07 1112.34 370.11 1134.06"/>
        <polygon class="cls-22" points="370.11 1134.06 351.63 1156.38 370.47 1134.42 370.11 1134.06"/>
        <polygon class="cls-22" points="351.15 1156.02 351.63 1156.38 370.11 1134.06 351.15 1156.02"/>
        <polygon class="cls-22" points="351.15 1156.02 342.03 1167.06 351.63 1156.38 351.15 1156.02"/>
        <polygon class="cls-22" points="341.55 1166.7 342.03 1167.06 351.15 1156.02 341.55 1166.7"/>
        <polygon class="cls-22" points="341.55 1166.7 319.35 1192.38 342.03 1167.06 341.55 1166.7"/>
        <polygon class="cls-22" points="318.99 1192.02 319.35 1192.38 341.55 1166.7 318.99 1192.02"/>
        <polygon class="cls-22" points="318.99 1192.02 301.16 1212.96 301.21 1213.12 319.35 1192.38 318.99 1192.02"/>
        <polygon class="cls-22" points="301 1212.49 301.16 1212.96 318.99 1192.02 301 1212.49"/>
        <polygon class="cls-22" points="647.31 790.38 592.83 871.74 647.79 790.74 647.31 790.38"/>
        <polygon class="cls-22" points="592.35 871.38 592.83 871.74 647.31 790.38 592.35 871.38"/>
        <polygon class="cls-22" points="592.35 871.38 567.15 904.74 592.83 871.74 592.35 871.38"/>
        <polygon class="cls-22" points="566.67 904.38 567.15 904.74 592.35 871.38 566.67 904.38"/>
        <polygon class="cls-22" points="566.67 904.38 554.07 920.7 567.15 904.74 566.67 904.38"/>
        <polygon class="cls-22" points="553.59 920.34 554.07 920.7 566.67 904.38 553.59 920.34"/>
        <polygon class="cls-22" points="553.59 920.34 536.31 941.7 554.07 920.7 553.59 920.34"/>
        <polygon class="cls-22" points="535.95 941.34 536.31 941.7 553.59 920.34 535.95 941.34"/>
        <polygon class="cls-22" points="535.95 941.34 514.83 967.38 536.31 941.7 535.95 941.34"/>
        <polygon class="cls-22" points="514.35 967.02 514.83 967.38 535.95 941.34 514.35 967.02"/>
        <polygon class="cls-22" points="514.35 967.02 502.35 981.42 514.83 967.38 514.35 967.02"/>
        <polygon class="cls-22" points="501.87 981.06 502.35 981.42 514.35 967.02 501.87 981.06"/>
        <polygon class="cls-22" points="501.87 981.06 479.79 1006.5 502.35 981.42 501.87 981.06"/>
        <polygon class="cls-22" points="479.31 1006.14 479.79 1006.5 501.87 981.06 479.31 1006.14"/>
        <polygon class="cls-22" points="479.31 1006.14 457.95 1032.18 479.79 1006.5 479.31 1006.14"/>
        <polygon class="cls-22" points="457.47 1031.82 457.95 1032.18 479.31 1006.14 457.47 1031.82"/>
        <polygon class="cls-22" points="457.47 1031.82 440.19 1052.94 457.95 1032.18 457.47 1031.82"/>
        <polygon class="cls-22" points="439.83 1052.58 440.19 1052.94 457.47 1031.82 439.83 1052.58"/>
        <polygon class="cls-22" points="439.83 1052.58 422.55 1073.1 440.19 1052.94 439.83 1052.58"/>
        <polygon class="cls-22" points="422.07 1072.74 422.55 1073.1 439.83 1052.58 422.07 1072.74"/>
        <polygon class="cls-22" points="422.07 1072.74 406.83 1092.54 422.55 1073.1 422.07 1072.74"/>
        <polygon class="cls-22" points="406.35 1092.06 406.83 1092.54 422.07 1072.74 406.35 1092.06"/>
        <polygon class="cls-22" points="406.35 1092.06 389.43 1112.7 406.83 1092.54 406.35 1092.06"/>
        <polygon class="cls-22" points="389.07 1112.34 389.43 1112.7 406.35 1092.06 389.07 1112.34"/>
        <polygon class="cls-22" points="389.07 1112.34 370.47 1134.42 389.43 1112.7 389.07 1112.34"/>
        <polygon class="cls-22" points="370.11 1134.06 370.47 1134.42 389.07 1112.34 370.11 1134.06"/>
        <polygon class="cls-22" points="370.11 1134.06 351.63 1156.38 370.47 1134.42 370.11 1134.06"/>
        <polygon class="cls-22" points="351.15 1156.02 351.63 1156.38 370.11 1134.06 351.15 1156.02"/>
        <polygon class="cls-22" points="351.15 1156.02 342.03 1167.06 351.63 1156.38 351.15 1156.02"/>
        <polygon class="cls-22" points="341.55 1166.7 342.03 1167.06 351.15 1156.02 341.55 1166.7"/>
        <polygon class="cls-22" points="341.55 1166.7 319.35 1192.38 342.03 1167.06 341.55 1166.7"/>
        <polygon class="cls-22" points="318.99 1192.02 319.35 1192.38 341.55 1166.7 318.99 1192.02"/>
        <polygon class="cls-22" points="318.99 1192.02 301.16 1212.96 301.21 1213.12 319.35 1192.38 318.99 1192.02"/>
        <polygon class="cls-22" points="301 1212.49 301.16 1212.96 318.99 1192.02 301 1212.49"/>
        <polygon class="cls-22" points="669.75 791.34 638.55 840.18 670.23 791.58 669.75 791.34"/>
        <polygon class="cls-22" points="638.07 839.82 638.55 840.18 669.75 791.34 638.07 839.82"/>
        <polygon class="cls-22" points="638.07 839.82 611.55 878.1 638.55 840.18 638.07 839.82"/>
        <polygon class="cls-22" points="611.07 877.74 611.55 878.1 638.07 839.82 611.07 877.74"/>
        <polygon class="cls-22" points="611.07 877.74 587.07 910.02 611.55 878.1 611.07 877.74"/>
        <polygon class="cls-22" points="586.59 909.78 587.07 910.02 611.07 877.74 586.59 909.78"/>
        <polygon class="cls-22" points="586.59 909.78 572.91 927.18 587.07 910.02 586.59 909.78"/>
        <polygon class="cls-22" points="572.43 926.82 572.91 927.18 586.59 909.78 572.43 926.82"/>
        <polygon class="cls-22" points="572.43 926.82 558.75 944.1 572.91 927.18 572.43 926.82"/>
        <polygon class="cls-22" points="558.39 943.74 558.75 944.1 572.43 926.82 558.39 943.74"/>
        <polygon class="cls-22" points="558.39 943.74 536.67 969.9 558.75 944.1 558.39 943.74"/>
        <polygon class="cls-22" points="536.19 969.54 536.67 969.9 558.39 943.74 536.19 969.54"/>
        <polygon class="cls-22" points="536.19 969.54 522.63 986.58 536.67 969.9 536.19 969.54"/>
        <polygon class="cls-22" points="522.15 986.22 522.63 986.58 536.19 969.54 522.15 986.22"/>
        <polygon class="cls-22" points="522.15 986.22 500.55 1011.78 522.63 986.58 522.15 986.22"/>
        <polygon class="cls-22" points="500.07 1011.42 500.55 1011.78 522.15 986.22 500.07 1011.42"/>
        <polygon class="cls-22" points="500.07 1011.42 480.87 1034.34 500.55 1011.78 500.07 1011.42"/>
        <polygon class="cls-22" points="480.39 1033.98 480.87 1034.34 500.07 1011.42 480.39 1033.98"/>
        <polygon class="cls-22" points="480.39 1033.98 459.63 1059.66 480.87 1034.34 480.39 1033.98"/>
        <polygon class="cls-22" points="459.15 1059.3 459.63 1059.66 480.39 1033.98 459.15 1059.3"/>
        <polygon class="cls-22" points="459.15 1059.3 441.39 1080.66 459.63 1059.66 459.15 1059.3"/>
        <polygon class="cls-22" points="441.03 1080.3 441.39 1080.66 459.15 1059.3 441.03 1080.3"/>
        <polygon class="cls-22" points="441.03 1080.3 429.27 1095.54 441.39 1080.66 441.03 1080.3"/>
        <polygon class="cls-22" points="428.79 1095.18 429.27 1095.54 441.03 1080.3 428.79 1095.18"/>
        <polygon class="cls-22" points="428.79 1095.18 411.99 1115.7 429.27 1095.54 428.79 1095.18"/>
        <polygon class="cls-22" points="411.63 1115.34 411.99 1115.7 428.79 1095.18 411.63 1115.34"/>
        <polygon class="cls-22" points="411.63 1115.34 393.99 1137.18 411.99 1115.7 411.63 1115.34"/>
        <polygon class="cls-22" points="393.51 1136.82 393.99 1137.18 411.63 1115.34 393.51 1136.82"/>
        <polygon class="cls-22" points="393.51 1136.82 378.39 1155.9 393.99 1137.18 393.51 1136.82"/>
        <polygon class="cls-22" points="377.91 1155.54 378.39 1155.9 393.51 1136.82 377.91 1155.54"/>
        <polygon class="cls-22" points="377.91 1155.54 365.43 1169.94 378.39 1155.9 377.91 1155.54"/>
        <polygon class="cls-22" points="364.95 1169.58 365.43 1169.94 377.91 1155.54 364.95 1169.58"/>
        <polygon class="cls-22" points="364.95 1169.58 342.63 1196.46 365.43 1169.94 364.95 1169.58"/>
        <polygon class="cls-22" points="342.15 1196.1 342.63 1196.46 364.95 1169.58 342.15 1196.1"/>
        <polygon class="cls-22" points="342.15 1196.1 318.27 1222.98 342.63 1196.46 342.15 1196.1"/>
        <polygon class="cls-22" points="317.79 1222.62 318.27 1222.98 342.15 1196.1 317.79 1222.62"/>
        <polygon class="cls-22" points="317.79 1222.62 308.22 1233.8 308.35 1234.2 318.27 1222.98 317.79 1222.62"/>
        <polygon class="cls-22" points="308.12 1233.51 308.22 1233.8 317.79 1222.62 308.12 1233.51"/>
        <polygon class="cls-22" points="669.75 791.34 638.55 840.18 670.23 791.58 669.75 791.34"/>
        <polygon class="cls-22" points="638.07 839.82 638.55 840.18 669.75 791.34 638.07 839.82"/>
        <polygon class="cls-22" points="638.07 839.82 611.55 878.1 638.55 840.18 638.07 839.82"/>
        <polygon class="cls-22" points="611.07 877.74 611.55 878.1 638.07 839.82 611.07 877.74"/>
        <polygon class="cls-22" points="611.07 877.74 587.07 910.02 611.55 878.1 611.07 877.74"/>
        <polygon class="cls-22" points="586.59 909.78 587.07 910.02 611.07 877.74 586.59 909.78"/>
        <polygon class="cls-22" points="586.59 909.78 572.91 927.18 587.07 910.02 586.59 909.78"/>
        <polygon class="cls-22" points="572.43 926.82 572.91 927.18 586.59 909.78 572.43 926.82"/>
        <polygon class="cls-22" points="572.43 926.82 558.75 944.1 572.91 927.18 572.43 926.82"/>
        <polygon class="cls-22" points="558.39 943.74 558.75 944.1 572.43 926.82 558.39 943.74"/>
        <polygon class="cls-22" points="558.39 943.74 536.67 969.9 558.75 944.1 558.39 943.74"/>
        <polygon class="cls-22" points="536.19 969.54 536.67 969.9 558.39 943.74 536.19 969.54"/>
        <polygon class="cls-22" points="536.19 969.54 522.63 986.58 536.67 969.9 536.19 969.54"/>
        <polygon class="cls-22" points="522.15 986.22 522.63 986.58 536.19 969.54 522.15 986.22"/>
        <polygon class="cls-22" points="522.15 986.22 500.55 1011.78 522.63 986.58 522.15 986.22"/>
        <polygon class="cls-22" points="500.07 1011.42 500.55 1011.78 522.15 986.22 500.07 1011.42"/>
        <polygon class="cls-22" points="500.07 1011.42 480.87 1034.34 500.55 1011.78 500.07 1011.42"/>
        <polygon class="cls-22" points="480.39 1033.98 480.87 1034.34 500.07 1011.42 480.39 1033.98"/>
        <polygon class="cls-22" points="480.39 1033.98 459.63 1059.66 480.87 1034.34 480.39 1033.98"/>
        <polygon class="cls-22" points="459.15 1059.3 459.63 1059.66 480.39 1033.98 459.15 1059.3"/>
        <polygon class="cls-22" points="459.15 1059.3 441.39 1080.66 459.63 1059.66 459.15 1059.3"/>
        <polygon class="cls-22" points="441.03 1080.3 441.39 1080.66 459.15 1059.3 441.03 1080.3"/>
        <polygon class="cls-22" points="441.03 1080.3 429.27 1095.54 441.39 1080.66 441.03 1080.3"/>
        <polygon class="cls-22" points="428.79 1095.18 429.27 1095.54 441.03 1080.3 428.79 1095.18"/>
        <polygon class="cls-22" points="428.79 1095.18 411.99 1115.7 429.27 1095.54 428.79 1095.18"/>
        <polygon class="cls-22" points="411.63 1115.34 411.99 1115.7 428.79 1095.18 411.63 1115.34"/>
        <polygon class="cls-22" points="411.63 1115.34 393.99 1137.18 411.99 1115.7 411.63 1115.34"/>
        <polygon class="cls-22" points="393.51 1136.82 393.99 1137.18 411.63 1115.34 393.51 1136.82"/>
        <polygon class="cls-22" points="393.51 1136.82 378.39 1155.9 393.99 1137.18 393.51 1136.82"/>
        <polygon class="cls-22" points="377.91 1155.54 378.39 1155.9 393.51 1136.82 377.91 1155.54"/>
        <polygon class="cls-22" points="377.91 1155.54 365.43 1169.94 378.39 1155.9 377.91 1155.54"/>
        <polygon class="cls-22" points="364.95 1169.58 365.43 1169.94 377.91 1155.54 364.95 1169.58"/>
        <polygon class="cls-22" points="364.95 1169.58 342.63 1196.46 365.43 1169.94 364.95 1169.58"/>
        <polygon class="cls-22" points="342.15 1196.1 342.63 1196.46 364.95 1169.58 342.15 1196.1"/>
        <polygon class="cls-22" points="342.15 1196.1 318.27 1222.98 342.63 1196.46 342.15 1196.1"/>
        <polygon class="cls-22" points="317.79 1222.62 318.27 1222.98 342.15 1196.1 317.79 1222.62"/>
        <polygon class="cls-22" points="317.79 1222.62 308.22 1233.8 308.35 1234.2 318.27 1222.98 317.79 1222.62"/>
        <polygon class="cls-22" points="308.12 1233.51 308.22 1233.8 317.79 1222.62 308.12 1233.51"/>
        <polygon class="cls-22" points="647.31 790.38 592.83 871.74 647.79 790.74 647.31 790.38"/>
        <polygon class="cls-22" points="592.35 871.38 592.83 871.74 647.31 790.38 592.35 871.38"/>
        <polygon class="cls-22" points="592.35 871.38 567.15 904.74 592.83 871.74 592.35 871.38"/>
        <polygon class="cls-22" points="566.67 904.38 567.15 904.74 592.35 871.38 566.67 904.38"/>
        <polygon class="cls-22" points="566.67 904.38 554.07 920.7 567.15 904.74 566.67 904.38"/>
        <polygon class="cls-22" points="553.59 920.34 554.07 920.7 566.67 904.38 553.59 920.34"/>
        <polygon class="cls-22" points="553.59 920.34 536.31 941.7 554.07 920.7 553.59 920.34"/>
        <polygon class="cls-22" points="535.95 941.34 536.31 941.7 553.59 920.34 535.95 941.34"/>
        <polygon class="cls-22" points="535.95 941.34 514.83 967.38 536.31 941.7 535.95 941.34"/>
        <polygon class="cls-22" points="514.35 967.02 514.83 967.38 535.95 941.34 514.35 967.02"/>
        <polygon class="cls-22" points="514.35 967.02 502.35 981.42 514.83 967.38 514.35 967.02"/>
        <polygon class="cls-22" points="501.87 981.06 502.35 981.42 514.35 967.02 501.87 981.06"/>
        <polygon class="cls-22" points="501.87 981.06 479.79 1006.5 502.35 981.42 501.87 981.06"/>
        <polygon class="cls-22" points="479.31 1006.14 479.79 1006.5 501.87 981.06 479.31 1006.14"/>
        <polygon class="cls-22" points="479.31 1006.14 457.95 1032.18 479.79 1006.5 479.31 1006.14"/>
        <polygon class="cls-22" points="457.47 1031.82 457.95 1032.18 479.31 1006.14 457.47 1031.82"/>
        <polygon class="cls-22" points="457.47 1031.82 440.19 1052.94 457.95 1032.18 457.47 1031.82"/>
        <polygon class="cls-22" points="439.83 1052.58 440.19 1052.94 457.47 1031.82 439.83 1052.58"/>
        <polygon class="cls-22" points="439.83 1052.58 422.55 1073.1 440.19 1052.94 439.83 1052.58"/>
        <polygon class="cls-22" points="422.07 1072.74 422.55 1073.1 439.83 1052.58 422.07 1072.74"/>
        <polygon class="cls-22" points="422.07 1072.74 406.83 1092.54 422.55 1073.1 422.07 1072.74"/>
        <polygon class="cls-22" points="406.35 1092.06 406.83 1092.54 422.07 1072.74 406.35 1092.06"/>
        <polygon class="cls-22" points="406.35 1092.06 389.43 1112.7 406.83 1092.54 406.35 1092.06"/>
        <polygon class="cls-22" points="389.07 1112.34 389.43 1112.7 406.35 1092.06 389.07 1112.34"/>
        <polygon class="cls-22" points="389.07 1112.34 370.47 1134.42 389.43 1112.7 389.07 1112.34"/>
        <polygon class="cls-22" points="370.11 1134.06 370.47 1134.42 389.07 1112.34 370.11 1134.06"/>
        <polygon class="cls-22" points="370.11 1134.06 351.63 1156.38 370.47 1134.42 370.11 1134.06"/>
        <polygon class="cls-22" points="351.15 1156.02 351.63 1156.38 370.11 1134.06 351.15 1156.02"/>
        <polygon class="cls-22" points="351.15 1156.02 342.03 1167.06 351.63 1156.38 351.15 1156.02"/>
        <polygon class="cls-22" points="341.55 1166.7 342.03 1167.06 351.15 1156.02 341.55 1166.7"/>
        <polygon class="cls-22" points="341.55 1166.7 319.35 1192.38 342.03 1167.06 341.55 1166.7"/>
        <polygon class="cls-22" points="318.99 1192.02 319.35 1192.38 341.55 1166.7 318.99 1192.02"/>
        <polygon class="cls-22" points="318.99 1192.02 301.16 1212.96 301.21 1213.12 319.35 1192.38 318.99 1192.02"/>
        <polygon class="cls-22" points="301 1212.49 301.16 1212.96 318.99 1192.02 301 1212.49"/>
        <polygon class="cls-22" points="318.99 1192.02 301.16 1212.96 301 1212.49 318.99 1192.02"/>
        <polygon class="cls-22" points="319.35 1192.38 301.21 1213.12 301.16 1212.96 318.99 1192.02 319.35 1192.38"/>
        <polygon class="cls-22" points="341.55 1166.7 319.35 1192.38 318.99 1192.02 341.55 1166.7"/>
        <polygon class="cls-22" points="342.03 1167.06 341.55 1166.7 319.35 1192.38 342.03 1167.06"/>
        <polygon class="cls-22" points="351.15 1156.02 342.03 1167.06 341.55 1166.7 351.15 1156.02"/>
        <polygon class="cls-22" points="351.63 1156.38 351.15 1156.02 342.03 1167.06 351.63 1156.38"/>
        <polygon class="cls-22" points="370.11 1134.06 351.63 1156.38 351.15 1156.02 370.11 1134.06"/>
        <polygon class="cls-22" points="370.47 1134.42 370.11 1134.06 351.63 1156.38 370.47 1134.42"/>
        <polygon class="cls-22" points="389.07 1112.34 370.47 1134.42 370.11 1134.06 389.07 1112.34"/>
        <polygon class="cls-22" points="389.43 1112.7 389.07 1112.34 370.47 1134.42 389.43 1112.7"/>
        <polygon class="cls-22" points="406.35 1092.06 389.43 1112.7 389.07 1112.34 406.35 1092.06"/>
        <polygon class="cls-22" points="406.83 1092.54 406.35 1092.06 389.43 1112.7 406.83 1092.54"/>
        <polygon class="cls-22" points="422.07 1072.74 406.83 1092.54 406.35 1092.06 422.07 1072.74"/>
        <polygon class="cls-22" points="422.55 1073.1 422.07 1072.74 406.83 1092.54 422.55 1073.1"/>
        <polygon class="cls-22" points="439.83 1052.58 422.55 1073.1 422.07 1072.74 439.83 1052.58"/>
        <polygon class="cls-22" points="440.19 1052.94 439.83 1052.58 422.55 1073.1 440.19 1052.94"/>
        <polygon class="cls-22" points="457.47 1031.82 440.19 1052.94 439.83 1052.58 457.47 1031.82"/>
        <polygon class="cls-22" points="457.95 1032.18 457.47 1031.82 440.19 1052.94 457.95 1032.18"/>
        <polygon class="cls-22" points="479.31 1006.14 457.95 1032.18 457.47 1031.82 479.31 1006.14"/>
        <polygon class="cls-22" points="479.79 1006.5 479.31 1006.14 457.95 1032.18 479.79 1006.5"/>
        <polygon class="cls-22" points="501.87 981.06 479.79 1006.5 479.31 1006.14 501.87 981.06"/>
        <polygon class="cls-22" points="502.35 981.42 501.87 981.06 479.79 1006.5 502.35 981.42"/>
        <polygon class="cls-22" points="514.35 967.02 502.35 981.42 501.87 981.06 514.35 967.02"/>
        <polygon class="cls-22" points="514.83 967.38 514.35 967.02 502.35 981.42 514.83 967.38"/>
        <polygon class="cls-22" points="535.95 941.34 514.83 967.38 514.35 967.02 535.95 941.34"/>
        <polygon class="cls-22" points="536.31 941.7 535.95 941.34 514.83 967.38 536.31 941.7"/>
        <polygon class="cls-22" points="553.59 920.34 536.31 941.7 535.95 941.34 553.59 920.34"/>
        <polygon class="cls-22" points="554.07 920.7 553.59 920.34 536.31 941.7 554.07 920.7"/>
        <polygon class="cls-22" points="566.67 904.38 554.07 920.7 553.59 920.34 566.67 904.38"/>
        <polygon class="cls-22" points="567.15 904.74 566.67 904.38 554.07 920.7 567.15 904.74"/>
        <polygon class="cls-22" points="592.35 871.38 567.15 904.74 566.67 904.38 592.35 871.38"/>
        <polygon class="cls-22" points="592.83 871.74 592.35 871.38 567.15 904.74 592.83 871.74"/>
        <polygon class="cls-22" points="647.31 790.38 592.83 871.74 592.35 871.38 647.31 790.38"/>
        <polygon class="cls-22" points="647.79 790.74 647.31 790.38 592.83 871.74 647.79 790.74"/>
        <polygon class="cls-22" points="669.75 791.34 638.55 840.18 670.23 791.58 669.75 791.34"/>
        <polygon class="cls-22" points="638.07 839.82 638.55 840.18 669.75 791.34 638.07 839.82"/>
        <polygon class="cls-22" points="638.07 839.82 611.55 878.1 638.55 840.18 638.07 839.82"/>
        <polygon class="cls-22" points="611.07 877.74 611.55 878.1 638.07 839.82 611.07 877.74"/>
        <polygon class="cls-22" points="611.07 877.74 587.07 910.02 611.55 878.1 611.07 877.74"/>
        <polygon class="cls-22" points="586.59 909.78 587.07 910.02 611.07 877.74 586.59 909.78"/>
        <polygon class="cls-22" points="586.59 909.78 572.91 927.18 587.07 910.02 586.59 909.78"/>
        <polygon class="cls-22" points="572.43 926.82 572.91 927.18 586.59 909.78 572.43 926.82"/>
        <polygon class="cls-22" points="572.43 926.82 558.75 944.1 572.91 927.18 572.43 926.82"/>
        <polygon class="cls-22" points="558.39 943.74 558.75 944.1 572.43 926.82 558.39 943.74"/>
        <polygon class="cls-22" points="558.39 943.74 536.67 969.9 558.75 944.1 558.39 943.74"/>
        <polygon class="cls-22" points="536.19 969.54 536.67 969.9 558.39 943.74 536.19 969.54"/>
        <polygon class="cls-22" points="536.19 969.54 522.63 986.58 536.67 969.9 536.19 969.54"/>
        <polygon class="cls-22" points="522.15 986.22 522.63 986.58 536.19 969.54 522.15 986.22"/>
        <polygon class="cls-22" points="522.15 986.22 500.55 1011.78 522.63 986.58 522.15 986.22"/>
        <polygon class="cls-22" points="500.07 1011.42 500.55 1011.78 522.15 986.22 500.07 1011.42"/>
        <polygon class="cls-22" points="500.07 1011.42 480.87 1034.34 500.55 1011.78 500.07 1011.42"/>
        <polygon class="cls-22" points="480.39 1033.98 480.87 1034.34 500.07 1011.42 480.39 1033.98"/>
        <polygon class="cls-22" points="480.39 1033.98 459.63 1059.66 480.87 1034.34 480.39 1033.98"/>
        <polygon class="cls-22" points="459.15 1059.3 459.63 1059.66 480.39 1033.98 459.15 1059.3"/>
        <polygon class="cls-22" points="459.15 1059.3 441.39 1080.66 459.63 1059.66 459.15 1059.3"/>
        <polygon class="cls-22" points="441.03 1080.3 441.39 1080.66 459.15 1059.3 441.03 1080.3"/>
        <polygon class="cls-22" points="441.03 1080.3 429.27 1095.54 441.39 1080.66 441.03 1080.3"/>
        <polygon class="cls-22" points="428.79 1095.18 429.27 1095.54 441.03 1080.3 428.79 1095.18"/>
        <polygon class="cls-22" points="428.79 1095.18 411.99 1115.7 429.27 1095.54 428.79 1095.18"/>
        <polygon class="cls-22" points="411.63 1115.34 411.99 1115.7 428.79 1095.18 411.63 1115.34"/>
        <polygon class="cls-22" points="411.63 1115.34 393.99 1137.18 411.99 1115.7 411.63 1115.34"/>
        <polygon class="cls-22" points="393.51 1136.82 393.99 1137.18 411.63 1115.34 393.51 1136.82"/>
        <polygon class="cls-22" points="393.51 1136.82 378.39 1155.9 393.99 1137.18 393.51 1136.82"/>
        <polygon class="cls-22" points="377.91 1155.54 378.39 1155.9 393.51 1136.82 377.91 1155.54"/>
        <polygon class="cls-22" points="377.91 1155.54 365.43 1169.94 378.39 1155.9 377.91 1155.54"/>
        <polygon class="cls-22" points="364.95 1169.58 365.43 1169.94 377.91 1155.54 364.95 1169.58"/>
        <polygon class="cls-22" points="364.95 1169.58 342.63 1196.46 365.43 1169.94 364.95 1169.58"/>
        <polygon class="cls-22" points="342.15 1196.1 342.63 1196.46 364.95 1169.58 342.15 1196.1"/>
        <polygon class="cls-22" points="342.15 1196.1 318.27 1222.98 342.63 1196.46 342.15 1196.1"/>
        <polygon class="cls-22" points="317.79 1222.62 318.27 1222.98 342.15 1196.1 317.79 1222.62"/>
        <polygon class="cls-22" points="317.79 1222.62 308.22 1233.8 308.35 1234.2 318.27 1222.98 317.79 1222.62"/>
        <polygon class="cls-22" points="308.12 1233.51 308.22 1233.8 317.79 1222.62 308.12 1233.51"/>
        <polyline class="cls-20" points="462.87 987.18 341.67 1130.58 293.07 986.1"/>
        <polyline class="cls-20" points="492.15 1092.18 479.55 1102.62 457.83 1113.66 376.23 1228.74 366.87 1205.58 492.15 1058.82"/>
        <polyline class="cls-20" points="908.55 172.62 906.51 218.46 909.39 239.7 917.79 298.98 921.75 303.9 930.99 304.14 936.87 297.42 935.31 273.9 938.07 255.78 942.51 223.74 948.51 204.54 955.47 192.06 961.95 186.9 975.03 186.54 985.23 197.46 985.95 221.34 982.11 243.18 985.83 257.34 999.99 257.34 1012.47 265.62 1017.63 273.54 1019.31 280.74 1017.63 291.54 1013.43 298.38 1005.51 305.1 997.47 315.06 990.15 320.1 983.19 321.9 979.95 328.86 980.07 330.9 992.43 338.58 1005.03 348.06 1026.03 357.06 1035.15 337.98 1045.83 301.98 1047.75 283.74 1050.99 269.58 1057.71 256.5 1065.87 247.14 1073.07 240.54 1089.39 221.46 1091.07 210.9 1088.67 204.18 1087.23 197.82 1087.35 188.58 1089.87 180.54 1095.99 171.3 1103.19 165.66 1107.87 150.9 1111.59 144.42 1116.75 138.42 1118.55 147.42 1130.31 145.26 1132.71 138.78 1189.11 127.5 1187.55 142.86 1146.27 208.98 1139.79 235.98 1100.91 289.62 1083.87 339.9 1070.31 386.58 1052.91 408.06 1021.11 427.38 861.63 400.5 870.03 286.86 908.55 172.62"/>
        <polyline class="cls-20" points="908.55 172.62 906.51 218.46 909.39 239.7 917.79 298.98 921.75 303.9 930.99 304.14 936.87 297.42 935.31 273.9 938.07 255.78 942.51 223.74 948.51 204.54 955.47 192.06 961.95 186.9 975.03 186.54 985.23 197.46 985.95 221.34 982.11 243.18 985.83 257.34 999.99 257.34 1012.47 265.62 1017.63 273.54 1019.31 280.74 1017.63 291.54 1013.43 298.38 1005.51 305.1 997.47 315.06 990.15 320.1 983.19 321.9 979.95 328.86 980.07 330.9 992.43 338.58 1005.03 348.06 1026.03 357.06 1035.15 337.98 1045.83 301.98 1047.75 283.74 1050.99 269.58 1057.71 256.5 1065.87 247.14 1073.07 240.54 1089.39 221.46 1091.07 210.9 1088.67 204.18 1087.23 197.82 1087.35 188.58 1089.87 180.54 1095.99 171.3 1103.19 165.66 1107.87 150.9 1111.59 144.42 1116.75 138.42 1118.55 147.42 1130.31 145.26 1132.71 138.78 1189.11 127.5 1187.55 142.86 1146.27 208.98 1139.79 235.98 1100.91 289.62 1083.87 339.9 1070.31 386.58 1052.91 408.06 1021.11 427.38 861.63 400.5 870.03 286.86 908.55 172.62"/>
    </g>
    <g id="ttt">
        <text class="cls-16" transform="translate(1416.39 87.71)">
            <tspan x="0" y="0">1120m²</tspan>
        </text>
        <text class="cls-16" transform="translate(1443.07 84.58)">
            <tspan x="0" y="0">1120m²</tspan>
        </text>
        <text class="cls-16" transform="translate(1375.34 101.41)">
            <tspan x="0" y="0">1120m²</tspan>
        </text>
        <text class="cls-16" transform="translate(1385.6 119.44)">
            <tspan x="0" y="0">1120m²</tspan>
        </text>
        <text class="cls-16" transform="translate(1409.18 112.87)">
            <tspan x="0" y="0">1120m²</tspan>
        </text>
        <text class="cls-16" transform="translate(1460.99 109.74)">
            <tspan x="0" y="0">1120m²</tspan>
        </text>
        <text class="cls-16" transform="translate(1467.21 89.47)">
            <tspan x="0" y="0">1120m²</tspan>
        </text>
        <text class="cls-16" transform="translate(1300.76 139.73) rotate(-2.18)">
            <tspan x="0" y="0">550m²</tspan>
        </text>
        <text class="cls-16" transform="translate(1316.08 110.92) rotate(.67)">
            <tspan x="0" y="0">550m²</tspan>
        </text>
        <text class="cls-16" transform="translate(1311 127.13) rotate(.67)">
            <tspan x="0" y="0">550m²</tspan>
        </text>
        <text class="cls-16" transform="translate(1298.67 107.71) rotate(-2.18)">
            <tspan x="0" y="0">550m²</tspan>
        </text>
        <text class="cls-16" transform="translate(1280.2 111.98) rotate(.67)">
            <tspan x="0" y="0">550m²</tspan>
        </text>
        <text class="cls-16" transform="translate(1250.33 118.09) rotate(.67)">
            <tspan x="0" y="0">550m²</tspan>
        </text>
        <text class="cls-16" transform="translate(1245.13 135.29) rotate(1.34)">
            <tspan x="0" y="0">550m²</tspan>
        </text>
        <text class="cls-16" transform="translate(1245.58 150.02) rotate(.67)">
            <tspan x="0" y="0">550m²</tspan>
        </text>
        <text class="cls-16" transform="translate(1263.62 160.83) rotate(.67)">
            <tspan x="0" y="0">550m²</tspan>
        </text>
        <text class="cls-16" transform="translate(1280.53 161.24) rotate(.67)">
            <tspan x="0" y="0">550m²</tspan>
        </text>
        <text class="cls-16" transform="translate(1270.19 142.98) rotate(.67)">
            <tspan x="0" y="0">550m²</tspan>
        </text>
        <text class="cls-16" transform="translate(1285.63 130.41) rotate(-2.18)">
            <tspan x="0" y="0">995m²</tspan>
        </text>
        <text class="cls-10" transform="translate(1016.71 203.1) rotate(1.04)">
            <tspan x="0" y="0">65237m²</tspan>
        </text>
        <text class="cls-10" transform="translate(1106.75 365.03) rotate(1.04)">
            <tspan x="0" y="0">151221m²</tspan>
        </text>
        <text class="cls-16" transform="translate(1279.49 176.26) rotate(.67)">
            <tspan x="0" y="0">550m²</tspan>
        </text>
        <text class="cls-16" transform="translate(1261.55 175.23) rotate(.67)">
            <tspan x="0" y="0">550m²</tspan>
        </text>
        <text class="cls-16" transform="translate(1245.11 167.69) rotate(.67)">
            <tspan x="0" y="0">550m²</tspan>
        </text>
        <text class="cls-16" transform="translate(1363.33 128.05)">
            <tspan x="0" y="0">1120m²</tspan>
        </text>
        <text class="cls-16" transform="translate(1368.68 154.98)">
            <tspan x="0" y="0">1120m²</tspan>
        </text>
        <text class="cls-16" transform="translate(1373.76 176.42) rotate(2.45)">
            <tspan x="0" y="0">1120m²</tspan>
        </text>
        <text class="cls-16" transform="translate(1355.09 195.41)">
            <tspan x="0" y="0">1120m²</tspan>
        </text>
        <text class="cls-16" transform="translate(1330.07 191.9)">
            <tspan x="0" y="0">1120m²</tspan>
        </text>
        <text class="cls-16" transform="translate(1344.29 162.29)">
            <tspan x="0" y="0">1120m²</tspan>
        </text>
        <text class="cls-16" transform="translate(1268.63 125.06) rotate(2.45)">
            <tspan x="0" y="0">550m²</tspan>
        </text>
        <text class="cls-16" transform="translate(1319.46 154.11) rotate(.67)">
            <tspan x="0" y="0">550m²</tspan>
        </text>
        <text class="cls-16" transform="translate(1310.8 182.24) rotate(.67)">
            <tspan x="0" y="0">550m²</tspan>
        </text>
        <text class="cls-16" transform="translate(1335.53 143.12)">
            <tspan x="0" y="0">550m²</tspan>
        </text>
        <text class="cls-16" transform="translate(1339.86 125.84)">
            <tspan x="0" y="0">550m²</tspan>
        </text>
        <text class="cls-16" transform="translate(1348.35 109.84)">
            <tspan x="0" y="0">550m²</tspan>
        </text>
        <text class="cls-10" transform="translate(1417.4 150.04)">
            <tspan x="0" y="0">74219m²</tspan>
        </text>
        <text class="cls-10" transform="translate(665.3 551.27) rotate(.95)">
            <tspan x="0" y="0">2593m²</tspan>
        </text>
        <text class="cls-10" transform="translate(671.68 536.59) rotate(.95)">
            <tspan x="0" y="0">19</tspan>
        </text>
        <text class="cls-10" transform="translate(499.07 553.33) rotate(.95)">
            <tspan x="0" y="0">227672m²</tspan>
        </text>
        <text class="cls-10" transform="translate(508.46 535.63) rotate(.95)">
            <tspan x="0" y="0">23</tspan>
        </text>
        <text class="cls-2" transform="translate(425.06 623.69) rotate(.95)">
            <tspan x="0" y="0">4D</tspan>
        </text>
        <text class="cls-2" transform="translate(917.94 764.63) rotate(.95)">
            <tspan x="0" y="0">4A</tspan>
        </text>
        <text class="cls-2" transform="translate(1259.67 342.13) rotate(.95)">
            <tspan x="0" y="0">4C</tspan>
        </text>
        <text class="cls-2" transform="translate(935.22 300.6) rotate(.95)">
            <tspan x="0" y="0">4B</tspan>
        </text>
        <text class="cls-10" transform="translate(1343.28 295.01) rotate(1.16)">
            <tspan x="0" y="0">132020m²</tspan>
        </text>
        <text class="cls-10" transform="translate(991.56 713.22) rotate(1.01)">
            <tspan x="0" y="0">207415m² </tspan>
        </text>
        <text class="cls-10" transform="translate(931.55 334.15) rotate(.95)">
            <tspan x="0" y="0">129816m²</tspan>
        </text>
        <text class="cls-10" transform="translate(1041.51 649.39) rotate(2.05)">
            <tspan x="0" y="0">15142m² for WWTW </tspan>
        </text>
        <text class="cls-10" transform="translate(1138.66 692.02) rotate(1.04)">
            <tspan x="0" y="0">24504m² </tspan>
        </text>
        <text class="cls-10" transform="translate(1447.5 273.57) rotate(2.33)">
            <tspan x="0" y="0">13666m² </tspan>
        </text>
        <text class="cls-4" transform="translate(1229.14 382.6) rotate(3.66)">
            <tspan x="0" y="0">434m²</tspan>
        </text>
        <text class="cls-10" transform="translate(694.47 343.91) rotate(.95)">
            <tspan x="0" y="0">160648m²</tspan>
        </text>
        <text class="cls-10" transform="translate(703.86 325.29) rotate(.95)">
            <tspan x="0" y="0">22</tspan>
        </text>
        <text class="cls-10" transform="translate(940.93 316.68) rotate(.95)">
            <tspan x="0" y="0">14</tspan>
        </text>
        <text class="cls-10" transform="translate(1220.49 419.72) rotate(.95)">
            <tspan x="0" y="0">6</tspan>
        </text>
        <text class="cls-10" transform="translate(1183.98 435.57) rotate(.95)">
            <tspan x="0" y="0">1</tspan>
        </text>
        <text class="cls-8" transform="translate(1231.49 377.97) rotate(.95)">
            <tspan x="0" y="0">5</tspan>
        </text>
        <text class="cls-10" transform="translate(1155.6 128.85) rotate(.95)">
            <tspan x="0" y="0">13</tspan>
        </text>
        <text class="cls-10" transform="translate(1024.63 185.7) rotate(.95)">
            <tspan x="0" y="0">12</tspan>
        </text>
        <text class="cls-10" transform="translate(218.11 514.17) rotate(.95)">
            <tspan x="0" y="0">21</tspan>
        </text>
        <text class="cls-10" transform="translate(349.01 429.55) rotate(.95)">
            <tspan x="0" y="0">20</tspan>
        </text>
        <text class="cls-10" transform="translate(415.12 449.02) rotate(.95) scale(1.02 1)">
            <tspan x="0" y="0">17</tspan>
        </text>
        <text class="cls-10" transform="translate(433.89 332.05) rotate(.95) scale(1.02 1)">
            <tspan x="0" y="0">16</tspan>
        </text>
        <text class="cls-10" transform="translate(606.46 409.49) rotate(.95) scale(1.02 1)">
            <tspan x="0" y="0">15</tspan>
        </text>
        <text class="cls-10" transform="translate(368.84 862.2) rotate(.95)">
            <tspan x="0" y="0">18</tspan>
        </text>
        <text class="cls-10" transform="translate(893.15 538.65) rotate(.95)">
            <tspan x="0" y="0">451139m²</tspan>
        </text>
        <text class="cls-10" transform="translate(426.12 339.2)">
            <tspan x="0" y="0">16023m²</tspan>
        </text>
        <text class="cls-10" transform="translate(407.33 459.36) rotate(.69)">
            <tspan x="0" y="0">22513m²</tspan>
        </text>
        <text class="cls-10" transform="translate(208.7 532.72) rotate(.69)">
            <tspan x="0" y="0">275054m²</tspan>
        </text>
        <text class="cls-10" transform="translate(370.11 987.78) rotate(1.68)">
            <tspan x="0" y="0">252603m²</tspan>
        </text>
        <text class="cls-10" transform="translate(378.66 970.69) rotate(1.68)">
            <tspan x="0" y="0">24</tspan>
        </text>
        <text class="cls-10" transform="translate(359.48 879.22) rotate(-1.42)">
            <tspan x="0" y="0">113624m²</tspan>
        </text>
        <text class="cls-5" transform="translate(1276.87 594.95) rotate(3.66)">
            <tspan x="0" y="0">PORTION X OF ERF Y</tspan>
        </text>
        <text class="cls-5" transform="translate(1276.51 600.46) rotate(3.66)">
            <tspan x="0" y="0">ROAD EXPRO DIAGRAM NO. ABC</tspan>
        </text>
        <text class="cls-5" transform="translate(1276.12 606.57) rotate(3.66)">
            <tspan x="0" y="0">97700 m2 in extent</tspan>
        </text>
        <text class="cls-5" transform="translate(1276.87 594.95) rotate(3.66)">
            <tspan x="0" y="0">PORTION X OF ERF Y</tspan>
        </text>
        <text class="cls-5" transform="translate(1276.51 600.46) rotate(3.66)">
            <tspan x="0" y="0">ROAD EXPRO DIAGRAM NO. ABC</tspan>
        </text>
        <text class="cls-5" transform="translate(1276.12 606.57) rotate(3.66)">
            <tspan x="0" y="0">97700 m2 in extent</tspan>
        </text>
        <text class="cls-15" transform="translate(1109.49 333.09) rotate(1.85)">
            <tspan x="0" y="0">11KV Elec. Overhead Lines to be Relocated</tspan>
        </text>
        <text class="cls-16" transform="translate(1421.08 97.49) rotate(-3.81)">
            <tspan x="0" y="0" xml:space="preserve">Greenpoint  Villas</tspan>
        </text>
        <text class="cls-12" transform="translate(1016.75 194.21) rotate(1.04)">
            <tspan x="0" y="0">RESORT 1</tspan>
        </text>
        <text class="cls-12" transform="translate(1006.12 211.59) rotate(1.04)">
            <tspan x="0" y="0">200 LEISURE UNITS</tspan>
        </text>
        <text class="cls-12" transform="translate(1056.85 640.41) rotate(2.05)">
            <tspan x="0" y="0">WWTW&apos;s</tspan>
        </text>
        <text class="cls-12" transform="translate(1093.79 372.11) rotate(1.04)">
            <tspan x="0" y="0">250 LEISURE UNITS</tspan>
        </text>
        <text class="cls-12" transform="translate(1339.75 286.23) rotate(1.16)">
            <tspan x="0" y="0">Conservation </tspan>
        </text>
        <text class="cls-12" transform="translate(980.19 702.23) rotate(1.01)">
            <tspan x="0" y="0">Conservation Reserve</tspan>
        </text>
        <text class="cls-12" transform="translate(919.51 325) rotate(.95)">
            <tspan x="0" y="0">Conservation Reserve</tspan>
        </text>
        <text class="cls-12" transform="translate(1125.79 680.5) rotate(1.04)">
            <tspan x="0" y="0">Conservation Reserve</tspan>
        </text>
        <text class="cls-12" transform="translate(1148.83 669.72) rotate(1.04)">
            <tspan x="0" y="0">9</tspan>
        </text>
        <text class="cls-12" transform="translate(1065.89 631.36) rotate(1.01)">
            <tspan x="0" y="0">2</tspan>
        </text>
        <text class="cls-12" transform="translate(1001.89 692.02) rotate(-.03)">
            <tspan x="0" y="0">10</tspan>
        </text>
        <text class="cls-12" transform="translate(1432.83 262.78) rotate(2.33)">
            <tspan x="0" y="0">Conservation Reserve</tspan>
        </text>
        <text class="cls-12" transform="translate(890.05 530.16) rotate(.95)">
            <tspan x="0" y="0">Conservation </tspan>
        </text>
        <text class="cls-12" transform="translate(1034.49 658.46) rotate(2.05)">
            <tspan x="0" y="0">MUNICIPAL &amp; GOVERNMENT</tspan>
        </text>
        <text class="cls-12" transform="translate(205.6 523.24) rotate(.69)">
            <tspan x="0" y="0">Conservation </tspan>
        </text>
        <text class="cls-12" transform="translate(495.98 544.25) rotate(.95)">
            <tspan x="0" y="0">Conservation </tspan>
        </text>
        <text class="cls-12" transform="translate(682.43 334.22) rotate(.95)">
            <tspan x="0" y="0">Conservation Reserve</tspan>
        </text>
        <text class="cls-12" transform="translate(360.65 870.74) rotate(-1.42)">
            <tspan x="0" y="0">Education</tspan>
        </text>
        <text class="cls-12" transform="translate(401.05 469.64) rotate(.69)">
            <tspan x="0" y="0">MAINTENANCE</tspan>
        </text>
        <text class="cls-10" transform="translate(335.36 934.02) rotate(1.68)">
            <tspan x="0" y="0">12779m²</tspan>
        </text>
        <text class="cls-12" transform="translate(326.45 915.8) rotate(1.68)">
            <tspan x="0" y="0">No Development</tspan>
        </text>
        <text class="cls-12" transform="translate(335.38 924.89) rotate(1.68)">
            <tspan x="0" y="0">Servitude</tspan>
        </text>
        <text class="cls-10" transform="translate(598.66 436.43) rotate(.95)">
            <tspan x="0" y="0">51378m²</tspan>
        </text>
        <text class="cls-11" transform="translate(1355.61 277.74) rotate(1.16)">
            <tspan x="0" y="0">7</tspan>
        </text>
        <text class="cls-7" transform="translate(903.14 521.83) rotate(.95)">
            <tspan x="0" y="0">11</tspan>
        </text>
        <text class="cls-6" transform="translate(1458.43 254.35) rotate(2.33)">
            <tspan x="0" y="0">8</tspan>
        </text>
        <text class="cls-3" transform="translate(457.47 884.48) rotate(.52)">
            <tspan x="0" y="0">No Development</tspan>
        </text>
        <text class="cls-3" transform="translate(463.86 889.9) rotate(.52)">
            <tspan x="0" y="0">Servitude</tspan>
        </text>
        <text class="cls-1" transform="translate(462.14 895.99) rotate(.52)">
            <tspan x="0" y="0">2084m²</tspan>
        </text>
        <polyline class="cls-24" points="453.55 901.06 453.18 889.17 457.01 878.05 476.6 874.39 495.98 887.49"/>
    </g>
    <g id="text">
        <text class="cls-12" transform="translate(614.62 554.81) rotate(.95)">
            <tspan x="0" y="0">Access</tspan>
        </text>
        <text class="cls-12" transform="translate(611.82 560.98) rotate(.95)">
            <tspan x="0" y="0">Servitude</tspan>
        </text>
        <text class="cls-16" transform="translate(1417.39 83.32)">
            <tspan x="0" y="0">Villa 1</tspan>
        </text>
        <text class="cls-16" transform="translate(1444.07 80.5)">
            <tspan x="0" y="0">Villa 2</tspan>
        </text>
        <text class="cls-16" transform="translate(1376.34 97.12)">
            <tspan x="0" y="0">Villa 7</tspan>
        </text>
        <text class="cls-16" transform="translate(1386.6 115.61)">
            <tspan x="0" y="0">Villa 6</tspan>
        </text>
        <text class="cls-16" transform="translate(1410.18 108.24)">
            <tspan x="0" y="0">Villa 5</tspan>
        </text>
        <text class="cls-16" transform="translate(1461.99 105.51)">
            <tspan x="0" y="0">Villa 4</tspan>
        </text>
        <text class="cls-16" transform="translate(1468.22 85.37)">
            <tspan x="0" y="0">Villa 3</tspan>
        </text>
        <text class="cls-16" transform="translate(1300.1 135.42) rotate(-2.18)">
            <tspan x="0" y="0">Villa 32</tspan>
        </text>
        <text class="cls-16" transform="translate(1315.46 106.81) rotate(.67)">
            <tspan x="0" y="0">Villa 30</tspan>
        </text>
        <text class="cls-16" transform="translate(1310.2 122.97) rotate(.67)">
            <tspan x="0" y="0">Villa 31</tspan>
        </text>
        <text class="cls-16" transform="translate(1298 103.78) rotate(-2.18)">
            <tspan x="0" y="0">Villa 29</tspan>
        </text>
        <text class="cls-16" transform="translate(1279.53 108.18) rotate(.67)">
            <tspan x="0" y="0">Villa 28</tspan>
        </text>
        <text class="cls-16" transform="translate(1249.66 113.94) rotate(.67)">
            <tspan x="0" y="0">Villa 26</tspan>
        </text>
        <text class="cls-16" transform="translate(1244.51 131.4) rotate(1.34)">
            <tspan x="0" y="0">Villa 25</tspan>
        </text>
        <text class="cls-16" transform="translate(1244.82 145.91) rotate(1.34)">
            <tspan x="0" y="0">Villa 24</tspan>
        </text>
        <text class="cls-16" transform="translate(1262.95 156.74) rotate(.67)">
            <tspan x="0" y="0">Villa 23</tspan>
        </text>
        <text class="cls-16" transform="translate(1279.86 156.67) rotate(.67)">
            <tspan x="0" y="0">Villa 22</tspan>
        </text>
        <text class="cls-16" transform="translate(1269.51 138.78) rotate(.67)">
            <tspan x="0" y="0">Villa 33</tspan>
        </text>
        <text class="cls-16" transform="translate(1286.68 126.26) rotate(-2.18)">
            <tspan x="0" y="0">O.S.</tspan>
        </text>
        <text class="cls-12" transform="translate(583.41 427.07) rotate(.95)">
            <tspan x="0" y="0">[Eco- Adventure Camp]</tspan>
        </text>
        <text class="cls-12" transform="translate(1106.27 357.5) rotate(1.04)">
            <tspan x="0" y="0">RESORT 1</tspan>
        </text>
        <text class="cls-16" transform="translate(1278.82 171.45) rotate(.67)">
            <tspan x="0" y="0">Villa 19</tspan>
        </text>
        <text class="cls-16" transform="translate(1260.88 171.13) rotate(.67)">
            <tspan x="0" y="0">Villa 20</tspan>
        </text>
        <text class="cls-16" transform="translate(1244.44 163.75) rotate(.67)">
            <tspan x="0" y="0">Villa 21</tspan>
        </text>
        <text class="cls-16" transform="translate(1364.33 123.76)">
            <tspan x="0" y="0">Villa 8</tspan>
        </text>
        <text class="cls-16" transform="translate(1369.68 150.55)">
            <tspan x="0" y="0">Villa 9</tspan>
        </text>
        <text class="cls-16" transform="translate(1373.93 172.01) rotate(2.45)">
            <tspan x="0" y="0">Villa 10</tspan>
        </text>
        <text class="cls-16" transform="translate(1355.25 191.05)">
            <tspan x="0" y="0">Villa 11</tspan>
        </text>
        <text class="cls-16" transform="translate(1330.19 187.86)">
            <tspan x="0" y="0">Villa 12</tspan>
        </text>
        <text class="cls-16" transform="translate(1344.37 158.13)">
            <tspan x="0" y="0">Villa 13</tspan>
        </text>
        <text class="cls-16" transform="translate(1268.09 121.1) rotate(2.45)">
            <tspan x="0" y="0">Villa 27</tspan>
        </text>
        <text class="cls-16" transform="translate(1318.68 150.6) rotate(.67)">
            <tspan x="0" y="0">Villa 15</tspan>
        </text>
        <text class="cls-16" transform="translate(1310.71 178.26) rotate(.67)">
            <tspan x="0" y="0">Villa 14</tspan>
        </text>
        <text class="cls-16" transform="translate(1334.86 139.29)">
            <tspan x="0" y="0">Villa 16</tspan>
        </text>
        <text class="cls-16" transform="translate(1339.19 121.93)">
            <tspan x="0" y="0">Villa 17</tspan>
        </text>
        <text class="cls-16" transform="translate(1347.68 106.16)">
            <tspan x="0" y="0">Villa 18</tspan>
        </text>
        <text class="cls-12" transform="translate(600.2 418.34) rotate(.95)">
            <tspan x="0" y="0">Resort 3</tspan>
        </text>
        <text class="cls-12" transform="translate(606.69 548.47) rotate(.95)">
            <tspan x="0" y="0">C.L. 5m wide </tspan>
        </text>
        <text class="cls-14" transform="translate(1229.87 380.17) rotate(3.66)">
            <tspan x="0" y="0">E.S.S.</tspan>
        </text>
        <text class="cls-12" transform="translate(405.52 353.36)">
            <tspan x="0" y="0">Stables &amp; Equestrian Centre</tspan>
        </text>
        <text class="cls-12" transform="translate(427.66 346.23)">
            <tspan x="0" y="0">Resort 3</tspan>
        </text>
        <text class="cls-12" transform="translate(367.02 978.51) rotate(1.68)">
            <tspan x="0" y="0">Conservation </tspan>
        </text>
        <text class="cls-12" transform="translate(668.69 543.83) rotate(.95)">
            <tspan x="0" y="0">E.S.S.</tspan>
        </text>
        <text class="cls-12" transform="translate(641.87 558.17) rotate(.95)">
            <tspan x="0" y="0">MUNICIPAL &amp; GOVERNMENT</tspan>
        </text>
        <text class="cls-1" transform="translate(1241.23 252.28)">
            <tspan x="0" y="0">55432m²</tspan>
        </text>
        <text class="cls-6" transform="translate(1250.1 229.97)">
            <tspan x="0" y="0">4</tspan>
        </text>
        <text class="cls-6" transform="translate(1424.63 142.94)">
            <tspan x="0" y="0">3</tspan>
        </text>
        <text class="cls-9" transform="translate(1241.27 240.76)">
            <tspan x="0" y="0">RESORT 2</tspan>
        </text>
        <text class="cls-9" transform="translate(1204.7 263.59)">
            <tspan x="0" y="0">HOTEL / SPA / LEISURE / ACCOMODATION</tspan>
        </text>
        <text class="cls-9" transform="translate(1210.08 275.01)">
            <tspan x="0" y="0">50 LEISURE UNITS + 100 Hotel Rooms</tspan>
        </text>
    </g>
</svg>