<?xml version="1.0" encoding="UTF-8"?>
<svg xmlns="http://www.w3.org/2000/svg"
    xmlns:xlink="http://www.w3.org/1999/xlink" viewBox="0 0 2762.16 2492.64">
    <defs>
        <style>.cls-1,.cls-2,.cls-3,.cls-4,.cls-5,.cls-6,.cls-7,.cls-8,.cls-9,.cls-10,.cls-11,.cls-12,.cls-13,.cls-14,.cls-15{fill:#fff;}.cls-16{font-size:4.17px;}.cls-16,.cls-17,.cls-2,.cls-3,.cls-4,.cls-5,.cls-18,.cls-19,.cls-20,.cls-6,.cls-21,.cls-22,.cls-7,.cls-23,.cls-8,.cls-24,.cls-25,.cls-9,.cls-26,.cls-10,.cls-27,.cls-11,.cls-12,.cls-28,.cls-29,.cls-13,.cls-14,.cls-30,.cls-31,.cls-32,.cls-33,.cls-15{font-family:Roboto-Medium, Roboto;font-weight:500;}.cls-17{font-size:17.82px;}.cls-34{fill:#ffbf7f;}.cls-2{font-size:59.4px;}.cls-35,.cls-36,.cls-37,.cls-38{fill:none;}.cls-35,.cls-37,.cls-39,.cls-38{stroke-linecap:round;}.cls-35,.cls-37,.cls-38{stroke-linejoin:round;}.cls-35,.cls-39{stroke-width:0px;}.cls-35,.cls-38{stroke:#ff3f00;}.cls-3,.cls-26{font-size:4.17px;}.cls-4{font-size:10.89px;}.cls-40{fill:#939598;}.cls-5{font-size:13px;}.cls-36{stroke:#939598;stroke-width:20px;}.cls-36,.cls-41,.cls-39,.cls-42{stroke-miterlimit:10;}.cls-43{fill:#bababa;}.cls-18{font-size:2.5px;}.cls-44,.cls-41{fill:#ffff7f;}.cls-19{font-size:13.43px;}.cls-20{font-size:4.17px;}.cls-6,.cls-24{font-size:10.89px;}.cls-37{stroke:#000;stroke-width:.96px;}.cls-21{font-size:4.17px;}.cls-22{font-size:2.5px;}.cls-41{stroke:#848383;}.cls-7{font-size:9.9px;}.cls-23{font-size:17.82px;}.cls-39{fill:#df7fff;stroke:#df7fff;}.cls-8{font-size:7.29px;}.cls-45{fill:#7fbfff;}.cls-25{font-size:17.82px;}.cls-9{font-size:5.94px;}.cls-42{fill:#d1d5db;stroke:#9ca3af;stroke-width:.5px;}.cls-10{font-size:10.89px;}.cls-27{font-size:17.82px;}.cls-46{fill:#6edd00;}.cls-11,.cls-28{font-size:10.89px;}.cls-12{font-size:10.89px;}.cls-29{font-size:3.33px;}.cls-13,.cls-31{font-size:10.89px;}.cls-14{font-size:5.94px;}.cls-30{font-size:13.74px;}.cls-32{font-size:4.17px;}.cls-33{font-size:3.33px;}.cls-15{font-size:17.82px;}</style>
    </defs>
    <g id="Layer_1">
        <image width="11509" height="10386" transform="scale(.24)" xlink:href="NODE 2 ai file  copy-01.png"/>
    </g>
    <g id="shap">
        <polygon id="Node__2_F" class="cls-34" points="1575.83 2026.49 1612.62 2058.17 1641.1 2082.79 1661.51 2100.34 1692.84 2127.39 1776.74 2199.89 1781.96 2204.4 1799.64 2219.52 1809.56 2204.76 1812.61 2200.36 1849.55 2129.44 1860.21 2102.94 1773.69 2084.52 1682.57 2059.09 1613.27 2026.98 1590.77 2003.76 1568.39 1980.67 1549.01 2003.21 1575.83 2026.49"/>
        <polygon id="Node__2_E" class="cls-34" points="815.33 899.35 888.59 904.27 908.92 900.57 913.31 904.59 926.47 916.76 942.38 939.65 954.26 966.93 954.96 968.74 960.98 1022.11 961.1 1022.11 964 1048.19 983.53 1077.97 978.87 1094.35 899.77 1076.87 757.25 1045.48 631.37 1017.79 623.9 964.4 623.69 962.6 759.39 937.26 759.51 937.26 780.69 914.85 792 903 795.77 899.09 796.63 898.14 815.33 899.35"/>
        <polygon id="Node__2_D" class="cls-34" points="631.37 1017.79 978.87 1094.35 974.1 1110.73 949.17 1162.84 935.01 1181.38 927.07 1191.84 869.13 1217.12 792.52 1221.04 691.66 1261 689.37 1261.93 688.3 1260.95 639.17 1219.03 633.35 1214.03 602.38 1187.58 589.8 1176.86 594.6 1158.2 608.37 1105.93 612.54 1089.55 631.37 1017.79"/>
        <polygon id="Node__2_C" class="cls-34" points="1575.83 2026.49 1612.62 2058.17 1641.1 2082.79 1661.51 2100.34 1692.84 2127.39 1776.74 2199.89 1781.96 2204.4 1799.64 2219.52 1809.56 2204.76 1812.61 2200.36 1849.55 2129.44 1860.21 2102.94 1773.69 2084.52 1682.57 2059.09 1613.27 2026.98 1590.77 2003.76 1568.39 1980.67 1549.01 2003.21 1575.83 2026.49"/>
        <polygon id="Node__2_40" class="cls-34" points="1675.27 885.29 1580.2 951.25 1571.58 968.18 1560.62 989.52 1552.99 1003.46 1546.11 1015.97 1543.76 1021.22 1539.31 1031.12 1538.82 1032.08 1532.94 1041.12 1531.84 1042.79 1522.59 1052.27 1516.18 1056.38 1501.29 1065.79 1487.9 1071.25 1461.52 1078.71 1445.19 1088.7 1416.39 1106.2 1378.77 1129.11 1363.53 1138.39 1318.74 1158.92 1315.43 1172.92 1314.16 1178.43 1371.25 1190.46 1379.62 1192.24 1387.09 1190.66 1438.35 1180.05 1463.14 1174.86 1476.81 1175.64 1492.58 1180.76 1528.79 1192.52 1537.58 1181.35 1541.36 1176.48 1541.85 1175.89 1552.84 1161.99 1569.19 1141.08 1576.51 1131.7 1567.82 1108.18 1568.9 1090.32 1575.39 1080.2 1580.41 1072.47 1583.96 1066.87 1590.09 1057.35 1594.7 1053.21 1605.39 1043.75 1607.45 1042.1 1625.69 1033.22 1627.74 1032.28 1660.99 1022.76 1689.26 1026.37 1701.64 1034.21 1713.54 1041.81 1755.4 1034.91 1798.93 1027.8 1816.74 1024.8 1816.86 1024.8 1828.2 1019.67 1855.61 1007.43 1858.79 993.43 1863.51 972.01 1849.22 954.78 1792.98 886.83 1697.07 870.22 1675.27 885.29"/>
        <polygon id="Node__2_B" class="cls-34" points="1163.74 1475.28 1176.14 1490.68 1209.91 1532.89 1236 1565.28 1241.55 1572.31 1266.35 1603.12 1270.13 1607.85 1314.86 1619.71 1357.72 1608.99 1375.42 1604.55 1407.5 1574.48 1407.23 1567.52 1366.37 1534.94 1278.37 1492.02 1229.13 1476.14 1223.42 1472.7 1178.88 1445.96 1161.02 1471.89 1163.74 1475.28"/>
        <polygon id="Node__2_A" class="cls-34" points="1015.64 1475.86 989.13 1511.04 984.75 1516.02 1075.76 1594.86 1129.1 1517.91 1132.64 1512.92 1156.87 1477.71 1121.66 1453.49 1063.51 1412.52 1033.47 1452.33 1015.64 1475.86"/>
        <polygon class="cls-44" points="1596.36 1888.26 1597.46 1886.96 1514.77 1887.2 1513.03 1891.73 1559.08 1931.46 1592.46 1892.77 1596.36 1888.26"/>
        <polygon id="Node__2_Blank_2" class="cls-46" points="1199.7 1148.6 1189.33 1180.03 1190.38 1191.33 1190.7 1194.57 1190.8 1195.53 1230.81 1265.42 1262.88 1282.04 1271.49 1265.95 1308.15 1197.07 1308.65 1196.12 1292.37 1192.66 1272.6 1181.12 1216.74 1148.83 1209.71 1144.77 1199.7 1148.6"/>
        <polygon id="Node__2_Blank_1" class="cls-46" points="2202.49 1232.19 2196.9 1237.52 2193.86 1240.48 2183.67 1257.86 2166.48 1296.88 2163.14 1304.4 2149.91 1334.35 2118.16 1385.18 2107.13 1402.91 2078.84 1454.87 2059.21 1487.61 2052.5 1496.41 2036.62 1517.32 2034.35 1525.69 2032.83 1531.67 2036.15 1525.71 2041.42 1517.38 2054.54 1496.43 2060.29 1487.63 2081.84 1454.91 2116.13 1403.03 2127.76 1385.3 2160.23 1334.48 2179.46 1304.61 2184.24 1297.12 2208.99 1258.2 2220.14 1240.82 2221.98 1237.84 2219.89 1232.42 2219.66 1231.93 2212.38 1228.48 2203.94 1231.73 2202.49 1232.19"/>
        <polygon id="Node__2_Com" class="cls-45" points="1086.37 1178.92 1080.06 1184.24 1074.48 1188.97 1072.72 1195.42 1071.07 1201.64 1069.43 1207.98 1068.29 1212.29 1064.88 1225.44 1054.15 1266.23 1050.36 1280.46 1048.84 1286.32 1046.19 1296.37 1045.3 1300.07 1051.85 1304.24 1068.04 1314.41 1070.93 1304.49 1073.02 1300.44 1074.99 1296.74 1082.56 1286.76 1087.08 1280.94 1097.94 1266.8 1129.56 1226.29 1129.37 1213.09 1125.71 1208.72 1120.39 1202.29 1115.07 1195.98 1109.52 1189.43 1105.5 1184.57 1100.89 1179.11 1094.87 1171.83 1086.37 1178.92"/>
        <path id="Node__2_Institution" class="cls-39" d="m1151.85,1427.38l-28.33,5.25-33.57-23.42-5.27-13.18,4.9-36.53s20.87-33.86,21.33-34.87,3.35-7.55,3.52-15.59c.17-8.04-.27-33.2-.27-33.2l29.86-38.02,12.02-1.46,60.15,47.18-47.17,50.32-14.15,40.88-3.03,52.65Z"/>
        <path class="cls-42" d="m1010.27,640.04l-13.47,2.1-23.54,10.49-.97.47-10.14,4.43-5.67,2.57-1.69.7.17,5.52.11.04-.12-4.2,1.69-.7,5.67-2.57,10.14-4.43.97-.47,23.54-10.49,13.47-2.1,8.3.84,8.41-.35,55.33,6.82,11.56,6.15,5.43,6.67,21.26,26.08,3.19,3.88,2.04,2.47,5.29,6.39.46,1.57.12.12,1.84,5.78,1.42,4.47.04-.77-1.61-5.06-1.84-5.78-.12-.12-.46-1.57-5.29-6.39-2.04-2.47-3.19-3.88-21.26-26.08-5.43-6.67-11.56-6.15-55.33-6.82-8.41.35-8.3-.84Zm130.62,252.65l2.03,35.8,1.68,29.64,1.72,30.12,1.68,29.67,2.06,36.17.08.07-1.98-34.88-1.68-29.67-1.72-30.13-1.68-29.64-2.03-35.8,6.69-6.75,36.95,1.2,37.07,1.21.59.73,1.07.97,5.71,5.63-.06-1.03v-.24s-5.8-5.72-5.8-5.72l-1.07-.97-.59-.73-37.07-1.21-36.95-1.2-6.69,6.75Zm51.29,178.53l-3.39,1.76-13.25,3.67-17.78,1.09-6.69,7.47.38,6.61.08.04-.31-5.28.63-.7-.04-.65,6.7-7.47,17.78-1.09,13.25-3.67,2.79-1.47h.01s.18-.1.18-.1l-.16-.3-.18.11Zm612.07,144.49l-30.41,5.27-31.67,5.5-2.12.37-4.21.78-61.59,10.71-11.79,2.13-2.81,3.8-2.94,4.4.21,1.27,2.88-4.31,2.81-3.8,11.79-2.13,61.59-10.71,4.21-.78,2.11-.37,31.67-5.5,30.41-5.27,8.45-1.47,13.05,2.33,31.9,18.81,26.82,15.8,10.48,6.14.91,3.61,1.1,4.83.11-.18-1.36-6.02-.91-3.61-10.48-6.14-26.82-15.8-31.9-18.81-13.05-2.33-8.45,1.47Zm117.71,429.28l-.41,1.23c.71-1.25,1.42-2.51,2.15-3.76l-1.74,2.53Zm-3.08,52.11l4.82-10.84.11.05.38-.86,2.72-6.08c-3.05,6.36-5.74,12.36-8.03,17.73Zm-11.16,23.4l-8.66,19.49-11.76,26.46-.24,1.01-6.28,25.93,6.39-25.9.26-1.06.37-.91,1.12-2.68,4.7-10.5,5.54-12.34.22-.49.67-1.49,1.61-3.7,6.15-13.8,15.85-35.58-.11-.05-15.83,35.6Z"/>
        <path class="cls-42" d="m1005.24,624.29l-2.9.49-8.17,1.4-8.84,3.89-2.26,1-13.28,5.83-7.17,3.32-1.16.53-1.09.47-.15.06-2.33,1-1.62.69-23.42,10.49-13.09.31-.26-.1-10.01-3.99-14.57-5.71-1.91-9.87-24.12-9.56-1.22-.51-2.8-1.16-1.1-.44h-.01s-.29.43-.29.43l-.03.05-1.03,1.55-3.63,5.33-2.61,3.83-6.85,9.75-3.79,5.47,10.39,4.1,1.29.5,10.89,4.22,6.69,2.73,9.27-2.52,3.06,1.23,3.74,1.5,1.91.75,14.45,5.71,7.51,2.96,6.95,2.74,20.76,8.18,11.09,4.37,12.58,5.04.7.28,3.41,1.36,4.09,1.63,16.72,6.58.24.12,10.94,7.94,8.26,10.12,19.08,23.35,18.87,23.11,12.74,15.6.71.85,5.42,6.6,5.33,6.48.35.43,7.91,9.77,5.2,6.34,19.1,23.29,3.13,3.82,8.96,10.95,2.2,5.79,2.67,6.76v1.08s.42,6.37.42,6.37v.1s.07.86.07.86l.05,1.01v.05s.14,3.02.14,3.02l.29,5.54.38,7.43.43,5.83.02.24.06.78.89,15.57,1.66,29.15,1.71,30.24.19,3.49,1.49,26.17,1.67,29.39,1.71,30.02.24,3.85.68,11.89.19,3.84.1,1.32.21,4.21.02.37.15,2.98.08,1.36.31,5.24.2,3.36,2.86,4.72,3.6,5.93,12.51,7.21,25.61,14.77,3.95,10.25-2.25,6.57-.75,2.39-.5,1.55-5.75,17.45-7.36,3.38-3.26,1.4-4.18-1.49-23.67-8.74-21.84-8.06-13.24-6.53-5.47-4.03-1.66-1.34-18.03-13.42c-.34-.25-.65-.55-.94-.87l-11.87-13.6-3.9-4.49-5.3-6.06c-2.64-3.01-6.08-5.22-9.94-6.34l-42.4-12.36-18.05-5.28-1.39,5.02-3.3,11.35-.6,2.04-3.02,10.52-1.13,3.83,2.39.63,32.88,9.55,10.08-8.99.73-.59c1.93-1.72,4.42-2.63,6.95-2.6.92.01,1.85.15,2.75.42l2.83.83c4.97,1.45,9.42,4.29,12.82,8.19l7.08,8.11,11.94,13.72,1.06,1.33,3.91,4.01,6.16,6.44,15.63,16.41,1.54,1.46,2.01,2.19,5.91,7.04.12.24,4.61,5.46,8.27,9.95,1.3,1.46,5.32,6.31,5.32,6.43,3.66,4.37.19,13.2-7.45,9.5-1.1,1.43-.03.06-.09.18-22.95,29.34-6.71,8.67-4.15,5.47-4.52,5.82-7.57,9.98-2.22,4.29-1.85,3.46-.5,1.43-1,3.71h0s-.51,1.91-.51,1.91l-.88,2.87-.55,5.03v.84s.3,3.6.3,3.6l.52,5.77.55,3.49.89,5.53,2.1,13.59-.93,7.07-5.03,35.94-1.85,13.18-.53,4.07,23.66,16.75,3.93,2.69,18.55,13.08,12.01,8.44,32.59,22.51,2.62,1.71,1.22-1.66,15.17-21.88,1.53-2.23.21-.32,3.88-5.66-18.79-13.09-4.05-2.69-3.57-2.57-13.47,2.34-15.27,2.44-3.93-2.69-17.2-12.18-.4-.29-6.06-4.29-5.95-4.16-5.71-13.28,5.03-35.94,4.29-7.02,8.46-13.45,3.43-5.48,1.97-3.45,3.32-5.72,1.25-3.58.37-.84,1.03-5.03.64-2.87.31-5.64.02-1.44-.07-3.48-.06-4.32-.11-10.08-.04-5.88-.05-5.52,6.83-8.67,22.95-29.34,1.08-.23,10.94-1.3,1.9,1.47,4.51,3.54,14.61,11.47,15.44,12.2,21.15,16.48,2.49,1.95,34.33,17.85,27.43,21.96,23.16,18.54,54.93,39.6,28.31,19.45,10.47,7.22,10.59,7.22,27,18.6,27.02,18.5c2.12,1.45,4.33,2.79,6.62,3.99l103.84,54.57,20.72,10.95c2.47,1.31,5.02,2.48,7.63,3.49l5.03,1.96,62.09,23.98,3.11,1.12,34.74,13.4c15.17,5.85,31.24,9.08,47.51,9.54l22.1.63,7.65.22c8.39-.15,22.94-.54,40.34-1.54,30.61-1.75,70.07-5.39,100.56-12.96,2.41-.59,4.76-1.21,7.03-1.86,32.13-9.09,60.31-23.13,87.68-44.3-8.06,12.24-16.7,24.92-25.2,36.83-12.51,17.51-24.76,33.34-34.52,43.6-12.46,13.1-23.48,29.15-32.76,45.14-.01.02-.02.03-.03.05-.73,1.25-1.44,2.51-2.15,3.76l-.97,2.95-1.25,3.7-2.13,6.57-8.04,17.9-.37.96-.33.75-2.76,6.17-13.37,30.03-9.01,20.2-9.41,3.6-8.59-3.83-.24-.12-1.31-.62-1.06.04-11.67.4-.24.12-7.01,3.63-4.31,2.24-22.64,11.8-1.21.58-7.85,4.13-9.06,4.77-13.37,3.43-22.45.38-13.8.23-15.96.03-59.53.1-29.77.05-29.78.06-29.76.05-29.77.05-29.76.06h-5.63s-.06,0-.06,0h-5.48s-.18,0-.18,0l-28.89.05h-.87s-29.76.06-29.76.06l-27.61.05-11.71,5.37-.26.28-1.44,1.5-3.05,3.56-1.1,1.31-3.9,4.51-3.41,4.04-10.09.83-.95-.97-17.8-15.23-.48-.37-3.8-3.41-.54.08-10.69,1.65-8.85,1.36-1.89.31h-.01s-.14.03-.14.03l14.43,12.43,3.25,2.8,1.01.91,2.73,2.36,1.92,1.67,19.03,16.39,2.06,1.77,4.47,3.84,22.85,19.69,26.88,23.16,11.5,9.91.83.73,4.39,3.78,10.16,8.75.04.03,2.38,2.06.33.29.35.3,1.11.98,1.31,1.1,4.03,3.53,4.14,3.51.22.18,1.1.93,12.11,10.43,27.13,23.35,6.92,5.95,10.8,9.38,4.04,21.05-14.99,17.45,1.42,1.22,7.83,6.82-2.19,2.49-8.66-7.55-.59-.49-.49.47,8.54,7.55.75.71.03.03.76.72,1.27,1.08.23.19,1.35,1.17,9.48.12,2.39,3.12,2.65-3.06,2.07-2.37,1.22-1.42,2.19-2.49,5.61-6.65-.81-4.28-2.78-14.61-1.07-5.71-2.86-15.34-1.8-9.26-46.04-39.73,1.74-4.54,82.61-.14,116.62-.2,36.11-.06h.28s28.08-.52,28.08-.52l5.97-.11,49.1-.92,5.43,6.79-4.39,17.8-1.56,6.36,8.44,2.07,8.06,1.99.89-3.83.65-2.64,5.3-21.52,1.65-6.7.5-2,2.16-8.64.89-3.71.64-2.75,1.77-7.06,1.76-7.14,7.25-29.36,7.26-29.38.53-2.15,6.28-25.93.24-1.01,11.76-26.46,9.16-20.62,10.12-22.74c.12-.3.25-.6.38-.89,2.29-5.37,4.98-11.37,8.03-17.73l.37-.84.39-.76c.05-.09.1-.19.14-.29l1.79-4.05.05-.12,6.03-13.63,2.97-6.56,2.57-3.69,2.93-4.16,15.78-22.96,5.71-5.35c1.75-2.04,3.52-4.01,5.34-5.92,21.47-22.56,51.5-67.29,64.38-86.99l.62-2.35v-.02c.53-1.98,1.44-3.85,2.68-5.49l6.02-7.93.04-.06.03-.04,4.78-6.3c4.96-7.93,9.52-15.41,13.4-22,3.43-5.84,6.11-10.62,7.97-14.21.72-1.38,1.35-2.65,1.89-3.85l2.11,1.2c.52-.91,13.02-23.04,40.78-77.51,7.2-14.11,14.1-30.92,21.4-48.71,19.36-47.16,43.46-105.85,75.6-110.04,6.58-.86,12.86-1.47,18.8-1.88,38.32-2.71,62.35,2.72,62.6,2.78l5.76-24.33c-1.07-.25-20.14-4.65-51.54-4.21-11.41.16-24.45.97-38.85,2.84-23.79,3.1-42.23,21.2-57.63,45.63-7.19,11.4-13.72,24.18-19.82,37.46-6.38,13.88-12.3,28.29-18.04,42.25-7.11,17.31-13.82,33.66-20.55,46.85-23.95,46.99-36.65,70.08-39.59,75.35l-.29-.25c-9.59,10.94-19,20.77-28.37,29.59-31.12,29.33-61.8,47.61-97.54,58.58-1.77.55-3.54,1.07-5.34,1.58-26.85,7.59-64.42,11.49-95.15,13.48-30.18,1.96-53.78,2.1-54.25,2.1v.03s-17.44-.49-17.44-.49c-16.11-.46-32.05-3.43-47.24-8.81l-44.93-15.93-8.12-3.47-30.79-13-110.51-56.41-36.71-18.74c-2.7-1.38-5.31-2.95-7.79-4.7l-22.67-15.96-10.23-7.21-10.11-7.21-27.83-19.45-18.33-12.75-17.92-12.47-3.15-2.19-3.07-2.14-14.49-10.08-3.39-2.36-18.81-13.13-2.09-1.46-2.35-1.64-17.72-14.18-9.72-7.78-6.12-4.93-2.59-2.08-.73-.59-12.53-10.09-2.49-1.95-32.07-16.62-6.97-12.18-6.4-11.27-1.99-3.51-.55-.85-.03-.04-.36-.56-1.43-2.56-.19-.33-3.78-6.78-7.63-13.3-2.46-4.35-3.76-6.41-2.74-4.74-.62-1.07-1.1-1.93-.95-9.85-.53-5.41v-.24s2.25-6.93,2.25-6.93l.65-1.88.09-.27.5-1.43,1.13-3.47,5.75-17.45,4.1-1.51,5.91-2.32,4.17,2.45,39.9,23.08,1.39.8.56.32,1.5.85,2.04,1.18,3.09,1.77,2.96,1.73.19.11,1.26.74,8.33,4.84,2.72,1.59,11.11,6.47.57.3.1.05.05.02,2.74,1.6,16.28,3.45,12.17,2.52.69.14,4.5.93,16.16,3.45,2.92,6.16.47.97.23.6-1.84,3.34-11.04,20.84-1.62,3.06-.42.79-.92,1.75-.62,1.16-8.05,15.2-1.32,2.49-6.52,12.16.04.04h.01s.78.55.78.55l6.27,4.45,4.43,3.15,3.09,2.2.92.73.11.08.04.04h.12s12.02,8.67,12.02,8.67l2.14,1.54,4.15,2.99.24.12,14.3,10.21,2.82,2.02,17.84,12.81.87.63,1.07.77,12.2,8.76,6.68,4.84,1.76,1.27,4.75,3.3h.01s1.36-3.22,1.36-3.22l2.72-5.96-2.31-11.33-2.31-11.29-8.66-6.18-8.46-6.04-.24-.12-14.64-.07-.24-.12-13.56-9.78-.21-.15-4.54-3.27-23.54-16.87,2.71-5.12.47-.85.07-.13.02-.03.02-.03,9.23-17.33,15.16-28.46,7.12-3.27,3.14-1.52,4.55,1.02,1.56.38,1.44-.34,4.09-.91,17.57-3.61,6.88-1.41.14-.03,2.38-.49,1.07-.22,14.56-3.05,13.12-3.19,12.4-3.08,6.14-1.48,1.44-.34,1.2-.34,13.55.54,28.56,9.25,2.54.82,3.9,1.26,53.4,17.3,8.87,2.88.79.27.76.25.97.35,17.17,5.55,20,6.46,7.17,2.37,12.55,4,3.67,4.23.23.26,4.14,4.73,1.45,8.18.23,1.41.03.19,1.18,7.3.9,4.57.46.52,7.46,8.47,6.17,1.84h0s12.21,3.66,12.21,3.66l16.52,4.95,27.72,8.31.62.19,14.89,4.46,13.11,3.92,28.62,8.58.4.12,13.39,4.02,4.18,1.25,10.65,3.18,28.62,8.54,28.46,8.48,5.07,1.52,3.47,1.01.61-.95,10.96-17.22,2.15-3.37.74-1.19.15-.25,1.69-2.73,11.16-17.55,16.04-25.19,7.72-12.13,3.8-5.95-.58-2.28-.33-1.33-.88-3.9-.48-2.12-9.24-5.44-25.53-15.06-23.94-14.11-1.31-.74-.41-.23h0s-2.21-1.25-2.21-1.25l-19.61-11.62-4.45-2.64-5.36-3.17-3.81-2.21-.48.08-11.19,1.92-18.24,3.19-29.02,5.08-27.43,4.8-1.4.24-5.92,1.04-16.9,2.95-7.01,1.22-28.68,4.98-28.51,4.96-.76.14-3.45.64-13.67-1.02-26.65-8.62-36.58-11.84-34.17-11.06-.96-.37-3.11-1.01-51.98-16.87-13.67-.78-2.53.57-46.4,9.62-8.8,1.82-5.09,1.06-17.56,3.63-.83.2-.15.04-.46.1c-.59.12-1.18.17-1.78.17-.53,0-1.06-.06-1.59-.17l-.23-.04-63.55-13.43-12.57-2.68-13.14-4.97-39.9-23.08-4.05-2.45-11.79-6.76-17.98-10.44-17.13-9.89-.28.18-1.55-.86-13.58-7.86-30.74-17.8-.07-1.31h0s-.08-.05-.08-.05l-.38-6.61,6.69-7.47,17.78-1.09,13.25-3.67,3.39-1.76.18-.11.16.3-.18.1h-.01s-2.79,1.47-2.79,1.47l-13.25,3.67-17.78,1.09-6.7,7.47.04.65,6.06-6.77,17.78-1.09,13.25-3.67,3.39-1.76.18-.11.16.3.58-.31,1.98-1.05,16.32-8.66,1.81-.94,2.45-1.29,3.36-1.77,1.32-.69,16.78-8.89,8.04-4.25,5.01-2.64,15.74-8.33,5.73-3.05,13.48-7.14,9.79-5.15,1.52-.79,1.47-.76,3.78-1.96,22.76-12.06,18.01-9.54,8.09-4.28.21-.11,6.76-12.39,2.19-4.06,9-16.67,4.87-8.98.3-.56,2.46-4.53,5.29-9.89,3.58-6.62.6-1.12,1.49-2.77,3.31-6.17-.1-.05-1.21-.66-8.7-4.7-1.59-.84-.04-.02-3.26-1.72-1.47,2.5-2.83,5.24-4.8,8.94-2.58,4.77-9.64,2.87-5.6-3.07-3.1-1.6-.86,1.55-1.6,2.98-1.38,2.58-3.91,7.31,8.7,4.67,2.87,9.64-11.19,20.74-22.96,12.18-49.18,26-6.77,3.51-6.67-3.69-2.04-35.67-.5-8.65-.34-6.32-.08-1.52-.64-12.21-.08-1.08v-.08s-.03-.28-.03-.28l-.19-3.84-2.14-36.74v-.21s-.6-10.25-.6-10.25l.36-.24,4.02-4.18.22-.24,1.12-1.16.97-.95,49.06,1.6.59.61,6.27,6.8v.24s-.09,2.22-.09,2.22l-.27,6.66v.72s14.76-.53,14.76-.53l.36-8.88.36-.24,6.93-6.63,14.27.55.03-2.64.08-.9v-.07s.06-.47.06-.47l.2-6.38.21-6.58h-.32s-17.14-.59-17.14-.59l-29.41-.99-29.9-1-29.85-1.01-29.75-1-29.76-1-5.65-.19-27.23-.91-7.58-7.42v-1.08s-.38-6.73-.38-6.73l-2.32-5.79-2.55-6.75-1.66-2.04-29.05-35.56.97-9.95,15.65-12.88,5.8-4.74,18.58-15.22,4.19-8.11,1.73-3.46.45-7.85v-.3s1.55-25.66,1.55-25.66l7.31-8.55,25.63-5.42.6-.11.84.13,11.97,2.2,22.37,14.69,2.03,9.75-1.84,2.74-2.33,3.7-.29.45-.08.14-.86,1.31,1.19.86,7.26,4.78,5.71,3.68.15-.23,2.29-3.34,2.94-4.64,3.61-.79,6.26-1.24,16.3,10.65,4.52,2.94.64-2.87,2.09-8.59.05-.21.36-1.47.03-.14,1.02-4.31-2.01-1.32-12.85-8.44h0s-4.53-2.98-4.53-2.98l-19.76-12.99h-.01s-2.6-1.7-2.6-1.7l-2.17-1.41-.12-.07-.92-.6-.24-.12-2.38-1.59-7.36-4.81-.61-.4-3.98-2.6-1.74-1.13-2.01-1.33-3.94-2.59-2.74-1.84-6.53-1.24h-.01s-6.38-1.21-6.38-1.21l-1.96.42-7.91,1.73-7.82,1.7-16.97,3.62-11.47-3.99-30.89-37.89-.77-.93-2.12-2.56-3.2-3.87-.37-.48-2.35-2.95-.46-.58-11.39-6.06-.17-.09-29.47-2.98-27.82-2.81-1.81-.19-9.53-1.02-.71-.08-9.53-1.02-4.67-.42-2.4.33Zm856.55,1176.9l-12.35,50.31-2.69,10.94-.02.1-8.85,6.96-56.23,1.03-29.77.55-1.75.03-28.01.04-29.75.04-29.75.05-30.01.05-29.74.04-29.99.05-29.27.04-30.33.05-18.03.02-12.54-4.6-61.23-52.77-6.53-5.61-.71-9.97,8.04-9.38,1.33-.58.82-.42.17-.09.83-.43,8.57-3.97,20.52-.03,29.96-.04,29.08-.04,29.88-.04,30.25-.04,29.53-.04,29.78-.04,29.51-.04,29.77-.04,29.77-.04,27.19-.03,2.57-.05,29.77-.59,8.11-.15,13.37-3.43,3.5-1.75,10.39-5.38.76-.4,8.07-4.28,2.17-1.05,6.65-3.51,17.04-8.9,14.17-.41,5.14,10.63-.89,3.59-8.26,33.63Zm61.85-116.24l-15.85,35.58-6.15,13.8-1.61,3.7-.67,1.49-.22.49-5.54,12.34-4.7,10.5-1.12,2.68-.37.91-.26,1.06-6.39,25.9,6.28-25.93.24-1.01,11.76-26.46,8.66-19.49,15.83-35.6.11.05Zm-564.53-400.29h-.09s-1.34-.15-1.34-.15l1.43.15Zm376.72-57.03l4.21-.78,2.12-.37,31.67-5.5,30.41-5.27,8.45-1.47,13.05,2.33,31.9,18.81,26.82,15.8,10.48,6.14.91,3.61,1.36,6.02-.11.18.26,1.18-13.64,21.51-21.16,33.36-10.61,4.06-4.06-1.25-12.55-3.76h-.01s-30.51-9.14-30.51-9.14l-30.52-9.14-32.7-9.8-27.35-8.19-12.05-3.59-19.15-5.7-16.02-4.77-7.92-8.98-1.45-8.18-.78-4.69.06-.09-.21-1.27,2.94-4.4,2.81-3.8,11.79-2.13,61.59-10.71Zm-551.31-340.49l37.07,1.21.59.73,1.07.97,5.81,5.72v.24s.05,1.03.05,1.03l.1.09v.24s.46,7.98.46,7.98l.12,2.11.78,13.3,1.38,23.81.19,3.84.1,2.02.41,7.67.03.61.51,9.64.1,1.56.59,10.29.42,7.31.35,6.08.9,15.84.28,4.8.19,3.6.29,5.28-5.78,10.37-36.5,19.38-8.94,4.74-13.37,3.67-14.05.78-7.47-6.58-.07-1.29-.08-.07-2.06-36.17-1.68-29.67-1.72-30.12-1.68-29.64-2.03-35.8,6.69-6.75,36.95,1.2Zm-157.55-246.62l55.33,6.82,11.56,6.15,5.43,6.67,21.26,26.08,3.19,3.88,2.04,2.47,5.29,6.39.46,1.57.12.12,1.84,5.78,1.61,5.06-.04.77v.02s.19.57.19.57l-.17,3.6-1.54,25.66-4.19,8.11-1.73,3.46-5.7,4.73-4.12,3.31-24.38,19.96-10.07-.97-14.73-18.04-18.35-22.47-18.85-23.08-7.01-8.58-6.5-7.89-.12-.12-5.32-6.43-.31-.22-10.75-7.96-.04-.02-46.29-18.23-.04-1.32-.11-.04-.17-5.52,1.69-.7,5.67-2.57,10.14-4.43.97-.47,23.54-10.49,13.47-2.1,8.3.84,8.41-.35Z"/>
        <polygon class="cls-42" points="1923.54 1684.9 1923.65 1684.95 1907.8 1720.53 1901.65 1734.33 1900.04 1738.03 1899.37 1739.52 1899.15 1740.01 1893.61 1752.35 1888.91 1762.85 1887.8 1765.52 1887.43 1766.43 1887.16 1767.48 1880.77 1793.38 1887.05 1767.45 1887.3 1766.45 1899.05 1739.99 1907.71 1720.5 1923.54 1684.9"/>
        <polygon class="cls-42" points="1357.53 1283.15 1358.96 1283.3 1358.87 1283.3 1357.53 1283.15"/>
        <polygon class="cls-42" points="1812.69 1214.24 1825.74 1216.57 1857.64 1235.38 1884.46 1251.18 1894.94 1257.32 1895.85 1260.93 1897.21 1266.95 1897.1 1267.13 1883.57 1288.47 1862.41 1321.82 1851.79 1325.88 1847.73 1324.63 1835.18 1320.86 1835.17 1320.86 1804.66 1311.72 1774.13 1302.58 1741.43 1292.78 1714.08 1284.59 1702.03 1281.01 1682.88 1275.31 1666.86 1270.53 1658.94 1261.55 1657.49 1253.37 1656.92 1249.95 1656.71 1248.68 1659.65 1244.28 1662.46 1240.47 1674.25 1238.35 1735.83 1227.63 1740.04 1226.85 1742.16 1226.48 1773.83 1220.98 1804.24 1215.71 1812.69 1214.24"/>
        <polygon class="cls-42" points="1192.35 1071.11 1192.51 1071.41 1192.33 1071.51 1192.32 1071.51 1189.53 1072.98 1176.28 1076.65 1158.51 1077.74 1151.81 1085.21 1151.85 1085.86 1152.2 1091.82 1158.04 1095.25 1176.62 1106.06 1197.6 1118.15 1197.32 1118.33 1195.77 1117.47 1182.19 1109.61 1151.53 1091.86 1151.53 1091.85 1151.45 1091.81 1151.07 1085.2 1157.76 1077.73 1175.53 1076.64 1188.78 1072.97 1192.17 1071.22 1192.35 1071.11"/>
        <polygon class="cls-42" points="1147.58 885.94 1184.52 887.14 1221.59 888.35 1222.18 889.08 1223.25 890.05 1229.06 895.77 1229.05 896.01 1229.11 897.04 1229.52 903.98 1229.64 906.1 1230.42 919.4 1231.79 943.21 1231.98 947.05 1232.09 949.07 1232.5 956.74 1232.53 957.35 1233.04 966.99 1233.14 968.55 1233.73 978.84 1234.15 986.14 1234.5 992.22 1235.4 1008.06 1235.68 1012.86 1235.87 1016.47 1236.17 1021.75 1230.39 1032.12 1193.89 1051.5 1184.95 1056.24 1171.58 1059.91 1157.53 1060.68 1150.13 1054.18 1150.05 1054.11 1148 1017.94 1146.32 988.26 1144.6 958.14 1142.92 928.49 1140.89 892.69 1147.58 885.94"/>
        <polygon class="cls-42" points="1018.57 640.88 1026.97 640.53 1082.3 647.34 1093.86 653.49 1099.29 660.17 1120.55 686.25 1123.74 690.13 1125.78 692.6 1131.06 698.99 1131.52 700.55 1131.64 700.67 1133.49 706.46 1135.1 711.52 1135.06 712.29 1135.06 712.31 1134.93 715.12 1133.4 740.78 1129.21 748.89 1127.49 752.34 1121.78 757.07 1117.66 760.38 1093.28 780.34 1083.21 779.37 1068.47 761.32 1050.13 738.85 1031.28 715.77 1024.27 707.19 1017.77 699.3 1017.65 699.18 1012.34 692.75 1012.03 692.53 1001.28 684.56 1001.24 684.54 955.07 666.36 954.96 666.32 954.79 660.79 956.48 660.1 962.15 657.53 972.29 653.1 973.26 652.63 996.8 642.14 1010.27 640.04 1018.57 640.88"/>
        <polygon class="cls-40" points="1357.53 1283.15 1358.96 1283.3 1358.87 1283.3 1357.53 1283.15"/>
        <polygon class="cls-40" points="1812.69 1214.24 1825.74 1216.57 1857.64 1235.38 1884.46 1251.18 1894.94 1257.32 1895.85 1260.93 1897.21 1266.95 1897.1 1267.13 1883.57 1288.47 1862.41 1321.82 1851.79 1325.88 1847.73 1324.63 1835.18 1320.86 1835.17 1320.86 1804.66 1311.72 1774.13 1302.58 1741.43 1292.78 1714.08 1284.59 1702.03 1281.01 1682.88 1275.31 1666.86 1270.53 1658.94 1261.55 1657.49 1253.37 1656.92 1249.95 1656.71 1248.68 1659.65 1244.28 1662.46 1240.47 1674.25 1238.35 1735.83 1227.63 1740.04 1226.85 1742.16 1226.48 1773.83 1220.98 1804.24 1215.71 1812.69 1214.24"/>
        <polygon class="cls-40" points="1147.58 885.94 1184.52 887.14 1221.59 888.35 1222.18 889.08 1223.25 890.05 1229.06 895.77 1229.05 896.01 1229.11 897.04 1229.52 903.98 1229.64 906.1 1230.42 919.4 1231.79 943.21 1231.98 947.05 1232.09 949.07 1232.5 956.74 1232.53 957.35 1233.04 966.99 1233.14 968.55 1233.73 978.84 1234.15 986.14 1234.5 992.22 1235.4 1008.06 1235.68 1012.86 1235.87 1016.47 1236.17 1021.75 1230.39 1032.12 1193.89 1051.5 1184.95 1056.24 1171.58 1059.91 1157.53 1060.68 1150.13 1054.18 1150.05 1054.11 1148 1017.94 1146.32 988.26 1144.6 958.14 1142.92 928.49 1140.89 892.69 1147.58 885.94"/>
        <polygon class="cls-40" points="1018.57 640.88 1026.97 640.53 1082.3 647.34 1093.86 653.49 1099.29 660.17 1120.55 686.25 1123.74 690.13 1125.78 692.6 1131.06 698.99 1131.52 700.55 1131.64 700.67 1133.49 706.46 1135.1 711.52 1135.06 712.29 1135.06 712.31 1134.93 715.12 1133.4 740.78 1129.21 748.89 1127.49 752.34 1121.78 757.07 1117.66 760.38 1093.28 780.34 1083.21 779.37 1068.47 761.32 1050.13 738.85 1031.28 715.77 1024.27 707.19 1017.77 699.3 1017.65 699.18 1012.34 692.75 1012.03 692.53 1001.28 684.56 1001.24 684.54 955.07 666.36 954.96 666.32 954.79 660.79 956.48 660.1 962.15 657.53 972.29 653.1 973.26 652.63 996.8 642.14 1010.27 640.04 1018.57 640.88"/>
        <path class="cls-36" d="m1832.12,2415.44s145.77-149.89,180.59-342.92c34.82-193.04,74.64-315.87,86.17-340.18,11.54-24.31,111.53-188.67,111.53-188.67,0,0,435.89-637.05,467.06-682.52,15.02-21.9,32.38-42.12,46.34-57.19"/>
        <path d="m1918.48,1697.99c-5.79,13.58-8.99,22.84-9.08,23.09l-1.04-.35,10.12-22.74Z"/>
        <polygon points="1923.54 1684.9 1923.65 1684.95 1907.8 1720.53 1907.71 1720.5 1923.54 1684.9"/>
        <path d="m1927.66,1677.78c-.26.54-.51,1.07-.76,1.6l.37-.84.39-.76Z"/>
        <path d="m2049.54,1501.88c-4.18,6.69-8.65,13.7-13.24,20.75-.31.47-.61.94-.94,1.44l.62-2.35v-.02c.53-1.98,1.44-3.85,2.68-5.49l6.02-7.93.04-.06.03-.04,4.78-6.3Z"/>
    </g>
    <g id="layer-11">
        <polygon class="cls-41" points="1083.99 710.86 1092.19 720.91 1103.31 734.49 1068.47 761.32 1050.13 738.85 1083.99 710.86"/>
        <polygon class="cls-41" points="1190.13 985.4 1191.6 1011.33 1191.82 1015.19 1148 1017.94 1146.32 988.26 1190.13 985.4"/>
        <polygon class="cls-41" points="1188.45 956.09 1189.88 981.22 1190.13 985.4 1146.32 988.26 1144.6 958.14 1188.45 956.09"/>
        <polygon class="cls-41" points="1186.75 926.3 1188.18 951.43 1188.45 956.09 1144.6 958.14 1142.92 928.49 1186.75 926.3"/>
        <polygon class="cls-41" points="1453.82 1721.38 1453.82 1721.56 1453.73 1765.38 1426.12 1765.42 1414.41 1770.79 1414.14 1771.07 1398.15 1734.28 1399.05 1734.23 1436.9 1721.4 1453.82 1721.38"/>
        <polygon class="cls-41" points="1398.14 1734.28 1398.15 1734.28 1414.14 1771.07 1412.7 1772.57 1409.66 1776.13 1408.56 1777.43 1404.66 1781.94 1401.25 1785.98 1391.16 1786.81 1390.21 1785.83 1372.41 1770.6 1371.93 1770.23 1368.14 1766.82 1367.59 1766.91 1376.95 1735.61 1376.96 1735.61 1398.14 1734.28"/>
        <polygon class="cls-41" points="1762.92 1720.68 1762.76 1764.62 1748.95 1764.85 1732.99 1764.88 1733.16 1720.94 1748.45 1720.92 1762.92 1720.68"/>
        <polygon class="cls-41" points="1733.16 1720.94 1732.99 1764.88 1703.23 1764.93 1703.39 1720.98 1733.16 1720.94"/>
        <polygon class="cls-41" points="1703.39 1720.98 1703.23 1764.93 1673.47 1764.98 1673.63 1721.02 1703.39 1720.98"/>
        <polygon class="cls-41" points="1673.63 1721.02 1673.47 1764.98 1643.69 1765.03 1643.86 1721.06 1673.63 1721.02"/>
        <polygon class="cls-41" points="1643.86 1721.06 1643.69 1765.03 1613.91 1765.09 1613.99 1721.11 1643.86 1721.06"/>
        <polygon class="cls-41" points="1613.99 1721.11 1613.91 1765.09 1584.15 1765.14 1584.22 1721.15 1613.99 1721.11"/>
        <polygon class="cls-41" points="1584.15 1721.15 1584.22 1721.15 1584.15 1765.14 1554.37 1765.19 1554.46 1721.19 1584.15 1721.15"/>
        <polygon class="cls-41" points="1856.55 1681.09 1862.56 1733.15 1850.89 1733.55 1850.65 1733.66 1843.64 1737.29 1839.33 1739.53 1818.62 1700.85 1856.55 1681.09"/>
        <polygon class="cls-41" points="1818.62 1700.85 1839.33 1739.53 1816.7 1751.34 1815.49 1751.92 1807.63 1756.05 1790.87 1715.3 1818.62 1700.85"/>
        <polygon class="cls-41" points="1790.87 1715.3 1807.63 1756.05 1798.57 1760.82 1785.21 1764.25 1762.76 1764.62 1762.92 1720.68 1781.1 1720.39 1790.87 1715.3"/>
        <polygon class="cls-41" points="1543.27 1782.18 1543.35 1826.14 1513.24 1826.19 1513.39 1782.22 1543.27 1782.18"/>
        <polygon class="cls-41" points="1573.52 1782.14 1573.12 1826.09 1543.35 1826.14 1543.27 1782.18 1573.52 1782.14"/>
        <polygon class="cls-41" points="1603.06 1782.09 1602.88 1826.05 1573.12 1826.09 1573.52 1782.14 1603.06 1782.09"/>
        <polygon class="cls-41" points="1632.84 1782.05 1632.64 1826 1602.88 1826.05 1603.06 1782.09 1632.84 1782.05"/>
        <polygon class="cls-41" points="1662.35 1782.01 1662.41 1825.96 1632.64 1826 1632.84 1782.05 1662.35 1782.01"/>
        <polygon class="cls-41" points="1692.12 1781.97 1692.17 1825.91 1662.41 1825.96 1662.35 1782.01 1692.12 1781.97"/>
        <polygon class="cls-41" points="1721.9 1781.93 1721.93 1825.86 1692.17 1825.91 1692.12 1781.97 1721.9 1781.93"/>
        <polygon class="cls-41" points="1751.66 1781.85 1751.7 1825.78 1749.6 1825.83 1721.93 1825.86 1721.9 1781.93 1749.09 1781.9 1751.66 1781.85"/>
        <polygon class="cls-41" points="1781.43 1781.26 1781.47 1825.19 1751.7 1825.78 1751.66 1781.85 1781.43 1781.26"/>
        <polygon class="cls-41" points="1817.56 1770.14 1830.7 1799.51 1830.71 1799.53 1813.22 1824.62 1813.11 1824.62 1793.41 1824.96 1781.47 1825.19 1781.43 1781.26 1789.54 1781.11 1802.91 1777.68 1806.41 1775.93 1816.81 1770.54 1817.56 1770.14"/>
        <polygon class="cls-41" points="1864.21 1752.08 1866 1752.83 1870.79 1762.61 1869.91 1766.2 1861.65 1799.83 1830.7 1799.51 1817.56 1770.14 1825.63 1765.86 1827.8 1764.81 1834.45 1761.29 1851.49 1752.39 1864.21 1752.08"/>
        <polygon class="cls-41" points="1858.57 1883.58 1913.9 1897.56 1907.18 1927.22 1851.12 1913.8 1858.57 1883.58"/>
        <polygon class="cls-41" points="1865.78 1854.28 1920.59 1868.04 1913.9 1897.56 1858.57 1883.58 1865.78 1854.28"/>
        <polygon class="cls-41" points="1873.02 1824.92 1927.25 1838.6 1920.59 1868.04 1865.78 1854.28 1873.02 1824.92"/>
        <polygon class="cls-41" points="1880.25 1795.54 1933.94 1809.06 1927.25 1838.6 1873.02 1824.92 1880.25 1795.54"/>
        <polygon class="cls-41" points="1483.62 1721.35 1483.5 1765.33 1453.73 1765.38 1453.82 1721.56 1453.82 1721.38 1483.62 1721.35"/>
        <polygon class="cls-41" points="1484.14 1826.23 1513.24 1826.19 1513.1 1870.11 1495.07 1870.14 1482.53 1865.53 1421.3 1812.76 1414.77 1807.16 1414.06 1797.19 1422.11 1787.81 1423.43 1787.23 1424.25 1786.81 1424.42 1786.72 1433.82 1782.33 1454.34 1782.29 1453.76 1826.7 1454.12 1826.28 1454.24 1826.28 1484.14 1826.23"/>
        <polygon class="cls-41" points="1484.3 1782.26 1484.14 1826.23 1454.24 1826.28 1454.12 1826.28 1453.76 1826.7 1454.34 1782.29 1484.3 1782.26"/>
        <polygon class="cls-41" points="1543.35 1826.14 1543.44 1870.06 1513.1 1870.11 1513.24 1826.19 1543.35 1826.14"/>
        <polygon class="cls-41" points="1573.12 1826.09 1572.71 1870.02 1543.44 1870.06 1543.35 1826.14 1573.12 1826.09"/>
        <polygon class="cls-41" points="1602.88 1826.05 1602.7 1869.98 1572.71 1870.02 1573.12 1826.09 1602.88 1826.05"/>
        <polygon class="cls-41" points="1632.64 1826 1632.45 1869.94 1602.7 1869.98 1602.88 1826.05 1632.64 1826"/>
        <polygon class="cls-41" points="1692.17 1825.91 1692.21 1869.84 1662.46 1869.89 1662.41 1825.96 1692.17 1825.91"/>
        <polygon class="cls-41" points="1662.41 1825.96 1662.46 1869.89 1632.45 1869.94 1632.64 1826 1662.41 1825.96"/>
        <polygon class="cls-41" points="1721.93 1825.86 1721.97 1869.8 1692.21 1869.84 1692.17 1825.91 1721.93 1825.86"/>
        <polygon class="cls-41" points="1751.7 1825.78 1751.73 1869.73 1749.98 1869.76 1721.97 1869.8 1721.93 1825.86 1749.6 1825.83 1751.7 1825.78"/>
        <polygon class="cls-41" points="1781.47 1825.19 1781.5 1869.18 1751.73 1869.73 1751.7 1825.78 1781.47 1825.19"/>
        <polygon class="cls-41" points="1813.11 1824.62 1846.6 1861.08 1846.58 1861.18 1837.73 1868.14 1781.5 1869.18 1781.47 1825.19 1793.41 1824.96 1813.11 1824.62"/>
        <polygon class="cls-41" points="1861.65 1799.83 1849.3 1850.14 1846.6 1861.08 1813.11 1824.62 1813.22 1824.62 1830.71 1799.53 1830.7 1799.51 1861.65 1799.83"/>
        <polygon class="cls-41" points="1376.95 1735.61 1367.59 1766.91 1356.9 1768.56 1322.97 1739.26 1322.66 1738.99 1376.95 1735.61"/>
        <polygon class="cls-41" points="1778.48 1886.28 1789.71 1914.92 1788.18 1958.3 1781.01 1956.45 1752.66 1945.35 1750.4 1886.79 1778.48 1886.28"/>
        <polygon class="cls-41" points="1851.12 1913.8 1907.18 1927.22 1897.82 1968.57 1861.81 1969.93 1841.46 1918.28 1849.53 1920.26 1851.12 1913.8"/>
        <polygon class="cls-41" points="1513.39 1782.22 1513.24 1826.19 1484.14 1826.23 1484.3 1782.26 1513.39 1782.22"/>
        <polygon class="cls-41" points="1554.46 1721.19 1554.37 1765.19 1524.61 1765.25 1524.7 1721.23 1554.46 1721.19"/>
        <polygon class="cls-41" points="1750.4 1886.79 1752.66 1945.35 1749.61 1944.16 1717.56 1925.86 1714 1886.86 1750.12 1886.8 1750.4 1886.79"/>
        <polygon class="cls-41" points="1833.54 1885.25 1838.98 1892.04 1834.58 1909.85 1833.02 1916.21 1823.15 1918.6 1823.08 1918.59 1795.49 1913.92 1784.45 1886.17 1833.54 1885.25"/>
        <polygon class="cls-41" points="1373.4 1209.68 1379.5 1211.08 1385.54 1263 1347.97 1242.93 1363.13 1214.47 1370.25 1211.2 1373.4 1209.68"/>
        <polygon class="cls-41" points="1414.16 1331.67 1446.23 1357.05 1436.84 1377.81 1426.21 1401.31 1410.08 1340.86 1414.16 1331.67"/>
        <polygon class="cls-41" points="1438.21 1252.19 1442.28 1271.82 1409.54 1309.05 1400.88 1302.86 1413.21 1257.37 1413.22 1257.32 1438.21 1252.19"/>
        <polygon class="cls-41" points="1442.28 1271.82 1450.65 1312.23 1411.85 1320.34 1409.54 1309.05 1442.28 1271.82"/>
        <polygon class="cls-41" points="1382.73 1321.29 1383.62 1321.91 1384.69 1322.68 1396.88 1331.44 1403.56 1336.28 1380.05 1369.12 1362.13 1356.65 1358.98 1354.46 1382.73 1321.29"/>
        <polygon class="cls-41" points="1362.06 1306.48 1382.73 1321.29 1358.98 1354.46 1355.9 1352.32 1338.04 1339.86 1362.06 1306.48"/>
        <polygon class="cls-41" points="1341.25 1291.58 1343.39 1293.12 1347.54 1296.11 1347.66 1296.18 1362.06 1306.48 1338.04 1339.86 1319.22 1326.75 1317.13 1325.29 1341.25 1291.58"/>
        <polygon class="cls-41" points="1320.51 1276.74 1328.96 1282.79 1329.07 1282.87 1329.11 1282.91 1329.13 1282.91 1341.25 1291.58 1317.13 1325.29 1314.78 1323.65 1297.07 1309.45 1320.51 1276.74"/>
        <polygon class="cls-41" points="1313.46 1271.7 1313.47 1271.71 1314.25 1272.26 1320.51 1276.74 1297.07 1309.45 1281.23 1296.75 1278.63 1294.67 1277.9 1294.08 1265.37 1284 1262.88 1282.04 1266.92 1274.46 1313.46 1271.7"/>
        <polygon class="cls-41" points="1285.6 1239.39 1321.22 1257 1313.42 1271.66 1313.46 1271.7 1266.92 1274.46 1285.6 1239.39"/>
        <polygon class="cls-41" points="1297.93 1216.23 1332.89 1235.06 1331.27 1238.12 1330.85 1238.91 1329.93 1240.66 1329.31 1241.82 1321.22 1257 1285.6 1239.39 1297.93 1216.23"/>
        <polygon class="cls-41" points="1308.65 1196.12 1342.16 1203.16 1345.78 1210.88 1343.93 1214.22 1332.89 1235.06 1297.93 1216.23 1308.65 1196.12"/>
        <polygon class="cls-41" points="1450.65 1312.23 1455.62 1336.29 1446.23 1357.05 1414.16 1331.67 1411.85 1320.34 1450.65 1312.23"/>
        <polygon class="cls-41" points="1427.63 1201.03 1438.21 1252.19 1413.22 1257.32 1413.2 1257.32 1402.61 1206.26 1409.48 1204.82 1409.62 1204.79 1412 1204.3 1413.07 1204.08 1427.63 1201.03"/>
        <polygon class="cls-41" points="1402.61 1206.26 1413.2 1257.32 1385.55 1263.01 1385.54 1263.01 1385.54 1263 1379.5 1211.08 1402.61 1206.26"/>
        <polygon class="cls-41" points="1347.97 1242.93 1385.54 1263 1385.54 1263.02 1377.54 1296.63 1363.73 1286.72 1363.53 1286.57 1358.99 1283.3 1335.45 1266.43 1338.63 1260.45 1338.7 1260.32 1338.72 1260.29 1338.74 1260.27 1347.97 1242.93"/>
        <polygon class="cls-41" points="1413.2 1257.32 1413.21 1257.37 1400.88 1302.86 1392.42 1296.82 1392.18 1296.7 1377.54 1296.63 1385.54 1263.02 1385.54 1263.01 1385.55 1263.01 1413.2 1257.32"/>
        <polygon class="cls-41" points="1403.56 1336.28 1405.32 1337.55 1410.07 1340.86 1410.08 1340.86 1426.21 1401.31 1398.38 1381.87 1380.05 1369.12 1403.56 1336.28"/>
        <polygon class="cls-41" points="1704.56 1233.13 1709.29 1256.81 1709.72 1256.85 1702.03 1281.01 1682.88 1275.31 1666.86 1270.53 1658.94 1261.55 1656.71 1248.68 1662.46 1240.47 1704.56 1233.13"/>
        <polygon class="cls-41" points="1742.17 1226.56 1742.18 1226.56 1747.81 1259.59 1709.72 1256.85 1709.29 1256.81 1704.56 1233.13 1742.17 1226.56"/>
        <polygon class="cls-41" points="1709.72 1256.85 1747.81 1259.59 1747.88 1259.94 1747.88 1259.95 1741.43 1292.78 1714.08 1284.59 1702.03 1281.01 1709.72 1256.85"/>
        <polygon class="cls-41" points="1773.84 1221.02 1780.48 1261.67 1780.46 1261.8 1747.94 1259.6 1747.81 1259.59 1742.18 1226.56 1773.84 1221.02"/>
        <polygon class="cls-41" points="1747.94 1259.6 1780.46 1261.8 1774.13 1302.58 1741.43 1292.78 1747.88 1259.95 1747.88 1259.94 1747.94 1259.6"/>
        <polygon class="cls-41" points="1812.6 1261.93 1812.6 1261.94 1804.66 1311.72 1774.13 1302.58 1780.46 1261.8 1780.51 1261.81 1780.75 1261.83 1812.6 1261.93"/>
        <polygon class="cls-41" points="1804.24 1215.72 1812.6 1261.93 1780.75 1261.83 1780.51 1261.81 1780.48 1261.67 1773.84 1221.02 1804.24 1215.72"/>
        <polygon class="cls-41" points="1812.69 1214.24 1825.74 1216.57 1857.64 1235.38 1841.95 1262.03 1841.82 1262.03 1812.6 1261.93 1804.24 1215.72 1812.69 1214.24"/>
        <polygon class="cls-41" points="1841.82 1262.03 1835.18 1320.86 1835.17 1320.86 1804.66 1311.72 1812.6 1261.94 1812.6 1261.93 1841.82 1262.03"/>
        <polygon class="cls-41" points="1841.82 1262.03 1841.95 1262.03 1883.57 1288.47 1862.41 1321.82 1851.79 1325.88 1847.73 1324.63 1835.18 1320.86 1841.82 1262.03"/>
        <polygon class="cls-41" points="1857.64 1235.38 1884.46 1251.18 1894.94 1257.32 1897.21 1266.95 1883.57 1288.47 1841.95 1262.03 1857.64 1235.38"/>
        <polygon class="cls-41" points="1658.09 1285.63 1670.31 1289.28 1686.82 1294.23 1674.05 1336.31 1645.31 1327.72 1645.32 1327.69 1658.09 1285.63"/>
        <polygon class="cls-41" points="1686.82 1294.23 1714.55 1302.54 1702.35 1344.79 1674.05 1336.31 1686.82 1294.23"/>
        <polygon class="cls-41" points="1714.55 1302.54 1715.17 1302.73 1730.06 1307.19 1743.17 1311.11 1730.97 1353.35 1702.35 1344.79 1714.55 1302.54"/>
        <polygon class="cls-41" points="1743.17 1311.11 1771.79 1319.68 1761.63 1354.84 1761.51 1355.26 1759.59 1361.92 1730.97 1353.35 1743.17 1311.11"/>
        <polygon class="cls-41" points="1772.19 1319.8 1785.58 1323.81 1789.76 1325.07 1800.41 1328.25 1792.84 1354.47 1792.69 1355 1788.21 1370.48 1759.59 1361.92 1761.51 1355.26 1761.63 1354.84 1772.19 1319.8"/>
        <polygon class="cls-41" points="1800.41 1328.25 1829.03 1336.79 1816.83 1379.05 1788.21 1370.48 1792.69 1355 1792.84 1354.47 1800.41 1328.25"/>
        <polygon class="cls-41" points="1829.03 1336.79 1857.49 1345.27 1845.29 1387.56 1816.83 1379.05 1829.03 1336.79"/>
        <polygon class="cls-41" points="1857.49 1345.27 1862.56 1346.79 1866.03 1347.79 1893.83 1386.05 1885.27 1399.53 1845.29 1387.56 1857.49 1345.27"/>
        <polygon class="cls-41" points="1877.6 1329.62 1914.62 1353.3 1893.83 1386.05 1866.03 1347.79 1866.64 1346.84 1877.6 1329.62"/>
        <polygon class="cls-41" points="1893.52 1304.56 1930.59 1328.15 1914.62 1353.3 1877.6 1329.62 1879.75 1326.25 1880.49 1325.06 1880.64 1324.81 1893.52 1304.56"/>
        <polygon class="cls-41" points="1909.55 1279.36 1946.55 1303.02 1930.59 1328.15 1893.52 1304.56 1909.55 1279.36"/>
        <polygon class="cls-41" points="1983.85 1244.28 1946.55 1303.02 1909.55 1279.36 1921.05 1261.26 1920.51 1258.98 1983.85 1244.28"/>
        <polygon class="cls-41" points="1932.02 1208.51 1982.64 1238.39 1919.27 1253.75 1918.77 1251.63 1909.53 1246.19 1932.02 1208.51"/>
        <polygon class="cls-41" points="1906.29 1193.34 1932.02 1208.51 1909.53 1246.19 1884 1231.14 1906.29 1193.34"/>
        <polygon class="cls-41" points="1880.73 1178.25 1906.29 1193.34 1884 1231.14 1860.06 1217.02 1858.75 1216.28 1858.34 1216.05 1880.73 1178.25"/>
        <polygon class="cls-41" points="1855.62 1163.43 1880.73 1178.25 1858.34 1216.05 1836.52 1203.19 1832.07 1200.55 1855.62 1163.43"/>
        <polygon class="cls-41" points="1831.31 1149.08 1855.62 1163.43 1832.07 1200.55 1826.72 1197.38 1822.9 1195.17 1822.42 1195.26 1815.79 1151.79 1831.31 1149.08"/>
        <polygon class="cls-41" points="1815.79 1151.79 1822.42 1195.26 1811.24 1197.18 1792.99 1200.37 1786.52 1156.89 1815.79 1151.79"/>
        <polygon class="cls-41" points="1786.52 1156.89 1792.99 1200.37 1763.97 1205.45 1757.12 1162.02 1786.52 1156.89"/>
        <polygon class="cls-41" points="1757.12 1162.02 1763.97 1205.45 1736.55 1210.25 1735.15 1210.49 1727.23 1167.23 1757.12 1162.02"/>
        <polygon class="cls-41" points="1727.23 1167.23 1735.15 1210.49 1729.22 1211.54 1712.32 1214.49 1705.31 1215.7 1698.36 1172.27 1727.23 1167.23"/>
        <polygon class="cls-41" points="1698.36 1172.27 1705.31 1215.7 1676.64 1220.69 1668.33 1177.51 1698.36 1172.27"/>
        <polygon class="cls-41" points="1668.32 1177.51 1668.33 1177.51 1676.64 1220.69 1648.13 1225.65 1647.37 1225.79 1639.45 1182.26 1639.93 1182.45 1668.32 1177.51"/>
        <polygon class="cls-41" points="1618.43 1173.82 1639.45 1182.26 1647.37 1225.79 1643.92 1226.43 1630.25 1225.41 1603.61 1216.77 1618.43 1173.82"/>
        <polygon class="cls-41" points="1595.55 1164.35 1595.76 1164.71 1618.43 1173.82 1603.61 1216.77 1567.05 1204.91 1595.55 1164.35"/>
        <polygon class="cls-41" points="1576.51 1131.7 1595.55 1164.35 1567.05 1204.91 1528.8 1192.5 1576.51 1131.7"/>
        <polygon class="cls-41" points="1510.5 1204.49 1510.63 1204.53 1563.88 1221.83 1548.49 1267.68 1538.16 1265.37 1509.84 1210.03 1510.5 1204.49"/>
        <polygon class="cls-41" points="1635.84 1248.15 1636.07 1248.41 1640.21 1253.14 1641.89 1262.74 1641.92 1262.93 1643.11 1270.22 1644.01 1274.8 1644.47 1275.31 1612.5 1304.6 1589.99 1277.13 1635.84 1248.15"/>
        <polygon class="cls-41" points="1644.47 1275.31 1651.93 1283.78 1658.09 1285.62 1658.09 1285.63 1645.32 1327.69 1626.94 1322.22 1612.5 1304.6 1644.47 1275.31"/>
        <polygon class="cls-41" points="1563.88 1221.83 1575.28 1225.53 1592.44 1231.11 1577.66 1274.23 1548.49 1267.68 1563.88 1221.83"/>
        <polygon class="cls-41" points="1592.45 1231.08 1612.45 1237.54 1619.62 1239.91 1632.17 1243.92 1635.84 1248.15 1589.99 1277.13 1589.85 1276.97 1577.66 1274.23 1592.44 1231.11 1592.45 1231.08"/>
        <polygon class="cls-41" points="843.82 575.09 884.17 591.34 863.63 621.08 863.62 621.08 863.34 621.5 863.31 621.55 858.59 628.39 822.72 600.42 843.82 575.09"/>
        <polygon class="cls-41" points="888.35 593.03 924.52 607.59 924.81 607.47 919.36 652.31 909.35 648.32 894.78 642.61 892.87 632.74 867.55 622.65 888.34 593.03 888.35 593.03"/>
        <polygon class="cls-41" points="1142.62 594.18 1170.33 612.37 1146.23 649.09 1119.82 631.75 1109 645.14 1105.44 640.78 1142.62 594.18"/>
        <polygon class="cls-41" points="1170.33 612.37 1195.2 628.7 1174.41 660.43 1195.26 684.28 1188.88 683.06 1186.92 683.49 1171.11 665.43 1146.23 649.09 1170.33 612.37"/>
        <polygon class="cls-41" points="1321.04 718.03 1306.63 772.81 1304.29 773.1 1267.58 749.02 1270.31 737.55 1270.36 737.34 1270.72 735.88 1321.04 718.03"/>
        <polygon class="cls-41" points="1246.76 735.43 1263.06 746.08 1267.58 749.02 1304.29 773.1 1246.86 780.26 1231.66 745.44 1233.95 742.1 1236.89 737.46 1246.76 735.43"/>
        <polygon class="cls-41" points="1217.34 736.36 1218.53 737.22 1225.79 741.99 1231.5 745.67 1231.66 745.44 1246.86 780.26 1201.21 785.95 1208.9 762.32 1217.34 736.36"/>
        <polygon class="cls-41" points="1180.28 774 1201.21 785.95 1199.46 826.6 1180.86 826.13 1179.48 869.99 1173.83 869.79 1174.87 836.37 1157.07 814.6 1180.28 774"/>
        <polygon class="cls-41" points="822.72 600.42 858.59 628.39 845.4 647.48 792.37 636.82 822.72 600.42"/>
        <polygon class="cls-41" points="792.37 636.82 845.4 647.48 855.78 651.58 857.07 652.08 842.88 687.59 842.87 687.59 802.83 671.76 792.37 636.82"/>
        <polygon class="cls-41" points="1138.22 1099.67 1141.82 1105.6 1154.33 1112.82 1136.16 1160.32 1114.32 1152.29 1101.09 1145.75 1093.96 1140.38 1093.24 1127.66 1138.22 1099.67"/>
        <polygon class="cls-41" points="1134.85 1086.35 1135.16 1091.59 1135.36 1094.96 1138.22 1099.67 1093.24 1127.66 1091 1088.45 1134.85 1086.35"/>
        <polygon class="cls-41" points="1133.17 1056.51 1134.28 1076.1 1134.6 1081.64 1134.62 1082.01 1134.77 1084.99 1134.85 1086.35 1091 1088.45 1089.32 1058.83 1133.17 1056.51"/>
        <polygon class="cls-41" points="1131.46 1026.49 1133.17 1056.51 1089.32 1058.83 1087.63 1029.41 1131.46 1026.49"/>
        <polygon class="cls-41" points="1129.79 997.1 1131.46 1026.49 1087.63 1029.41 1085.93 999.35 1129.79 997.1"/>
        <polygon class="cls-41" points="1128.1 967.43 1128.3 970.92 1129.79 997.1 1085.93 999.35 1084.23 969.57 1128.1 967.43"/>
        <polygon class="cls-41" points="1126.37 937.2 1128.1 967.43 1084.23 969.57 1082.56 940.36 1126.37 937.2"/>
        <polygon class="cls-41" points="1124.72 908.04 1126.37 937.2 1082.56 940.36 1080.84 910.18 1124.72 908.04"/>
        <polygon class="cls-41" points="1122.96 878.2 1123.34 885.62 1123.77 891.45 1123.79 891.69 1124.72 908.04 1080.84 910.18 1079.15 880.46 1122.96 878.2"/>
        <polygon class="cls-41" points="1105.03 832.85 1108.16 836.67 1117.12 847.62 1119.32 853.41 1121.99 860.16 1121.98 861.24 1122.42 867.61 1122.42 867.71 1122.53 869.58 1122.53 869.63 1122.67 872.65 1122.96 878.2 1079.15 880.46 1078.54 869.79 1070.83 860.38 1105.03 832.85"/>
        <polygon class="cls-41" points="1085.93 809.55 1105.03 832.85 1070.83 860.38 1052.18 837.62 1085.93 809.55"/>
        <polygon class="cls-41" points="1067.14 786.53 1072.47 793.01 1072.82 793.44 1080.74 803.22 1085.93 809.55 1052.18 837.62 1033.29 814.57 1067.14 786.53"/>
        <polygon class="cls-41" points="1048.27 763.48 1061.01 779.08 1061.72 779.92 1067.14 786.53 1033.29 814.57 1014.43 791.56 1048.27 763.48"/>
        <polygon class="cls-41" points="1029.4 740.37 1048.27 763.48 1014.43 791.56 1009.56 785.6 992.42 771.37 1029.4 740.37"/>
        <polygon class="cls-41" points="1010.33 717.02 1029.4 740.37 992.42 771.37 969.31 752.17 1010.33 717.02"/>
        <polygon class="cls-41" points="970.09 690.62 974.18 692.25 990.89 698.83 1002.07 706.9 1010.33 717.02 969.31 752.17 951 736.96 970.09 690.62"/>
        <polygon class="cls-41" points="942.3 679.6 965.98 688.97 966.68 689.25 970.09 690.62 951 736.96 935.72 724.27 925.69 720.31 942.3 679.6"/>
        <polygon class="cls-41" points="914.59 668.65 921.55 671.39 942.3 679.6 925.69 720.31 898.01 709.37 914.59 668.65"/>
        <polygon class="cls-41" points="886.98 657.74 890.73 659.23 892.64 659.98 907.08 665.69 914.59 668.65 898.01 709.37 870.24 698.4 886.98 657.74"/>
        <polygon class="cls-41" points="939.79 600.78 957.74 640.92 956.12 641.61 932.7 652.1 919.62 652.41 919.36 652.31 924.81 607.47 939.79 600.78"/>
        <polygon class="cls-41" points="966.78 588.73 966.79 588.73 985.18 628.72 982.92 629.72 969.64 635.55 962.47 638.86 960.22 639.86 960.07 639.92 957.74 640.92 939.79 600.78 966.78 588.73"/>
        <polygon class="cls-41" points="993.21 576.93 1006.66 578.31 1002.19 623.42 994.02 624.82 985.18 628.72 966.79 588.73 993.21 576.93"/>
        <polygon class="cls-41" points="1006.66 578.31 1036.24 581.35 1031.93 625.1 1022.41 624.13 1021.7 624.05 1012.17 623.02 1007.5 622.6 1005.09 622.93 1002.19 623.42 1006.66 578.31"/>
        <polygon class="cls-41" points="1036.24 581.35 1036.25 581.35 1065.82 584.39 1061.56 628.13 1031.93 625.1 1036.24 581.35"/>
        <polygon class="cls-41" points="1065.82 584.39 1095.38 587.43 1091.2 631.23 1091.03 631.14 1061.56 628.13 1065.82 584.39"/>
        <polygon class="cls-41" points="1223.58 647.32 1256.02 668.62 1232.62 705.71 1232.61 705.71 1230.01 704 1227.84 702.59 1227.72 702.52 1226.79 701.92 1224.18 700.21 1212.24 692.36 1223.58 647.32"/>
        <polygon class="cls-41" points="1195.2 628.7 1195.21 628.7 1219.71 644.78 1208.49 689.9 1201.81 685.51 1195.27 684.28 1195.26 684.28 1174.41 660.43 1195.2 628.7"/>
        <polygon class="cls-41" points="1256.02 668.62 1281.48 685.34 1256.91 721.67 1252.38 718.7 1232.62 705.71 1256.02 668.62"/>
        <polygon class="cls-41" points="1255.57 1087.78 1240.02 1096.02 1239.99 1095.96 1255.57 1087.78"/>
        <polygon class="cls-41" points="1266.08 1082.23 1254.5 1060.39 1266.5 1082 1266.08 1082.23"/>
        <polygon class="cls-41" points="1245.16 1043.56 1245.17 1043.58 1219.26 1057.29 1219.04 1057.41 1219.03 1057.4 1220.35 1056.71 1237.12 1047.82 1245.16 1043.56"/>
        <polygon class="cls-41" points="1271.65 1029.56 1292.61 1068.18 1266.5 1082 1254.5 1060.39 1254.43 1060.26 1245.17 1043.58 1245.16 1043.56 1250.17 1040.92 1271.65 1029.56"/>
        <polygon class="cls-41" points="1297.9 1015.69 1318.92 1054.27 1292.61 1068.18 1271.65 1029.56 1296.43 1016.45 1297.17 1016.07 1297.9 1015.69"/>
        <polygon class="cls-41" points="1324.44 1001.67 1345.07 1040.43 1318.92 1054.27 1297.9 1015.69 1301.68 1013.73 1324.44 1001.67"/>
        <polygon class="cls-41" points="1350.53 987.84 1371.57 1026.41 1345.08 1040.43 1345.07 1040.43 1324.44 1001.67 1342.44 992.12 1350.53 987.84"/>
        <polygon class="cls-41" points="1359.7 971.27 1397.38 993.88 1383.08 1020.32 1371.57 1026.41 1350.53 987.84 1350.74 987.73 1357.5 975.34 1359.7 971.27"/>
        <polygon class="cls-41" points="1373.56 945.62 1411.86 967.13 1397.38 993.88 1359.7 971.27 1368.7 954.6 1373.56 945.62"/>
        <polygon class="cls-41" points="1385.19 924.02 1429.4 934.7 1411.86 967.13 1373.56 945.62 1373.86 945.07 1376.32 940.54 1381.61 930.65 1385.19 924.02"/>
        <polygon class="cls-41" points="1424.68 888.71 1445.43 905.08 1431.49 930.84 1387.28 920.13 1390.59 913.96 1390.49 913.91 1424.68 888.71"/>
        <polygon class="cls-41" points="1329.7 831.07 1352.66 831.86 1370.19 845.7 1345.29 875.56 1328.15 874.98 1329.7 831.07"/>
        <polygon class="cls-41" points="1235.39 1008.06 1236.17 1021.75 1230.39 1032.12 1193.89 1051.5 1191.82 1015.19 1191.6 1011.33 1235.39 1008.06"/>
        <polygon class="cls-41" points="1233.73 978.84 1234.15 986.14 1234.5 992.22 1235.39 1008.06 1191.6 1011.33 1190.13 985.4 1189.88 981.22 1233.73 978.84"/>
        <polygon class="cls-41" points="1232.07 949.07 1232.5 956.74 1232.53 957.35 1233.04 966.99 1233.14 968.55 1233.73 978.84 1189.88 981.22 1188.45 956.09 1188.18 951.43 1232.07 949.07"/>
        <polygon class="cls-41" points="1230.39 919.4 1232.07 949.07 1188.18 951.43 1186.75 926.3 1186.5 921.76 1230.39 919.4"/>
        <polygon class="cls-41" points="1184.52 887.14 1221.59 888.35 1222.18 889.08 1223.25 890.05 1229.06 895.77 1229.05 896.01 1229.52 903.98 1229.64 906.1 1230.39 919.4 1186.5 921.76 1184.52 887.14"/>
        <polygon class="cls-41" points="1147.58 885.94 1184.52 887.14 1186.5 921.76 1186.75 926.3 1142.92 928.49 1140.89 892.69 1147.58 885.94"/>
        <polygon class="cls-41" points="1191.82 1015.19 1193.89 1051.5 1184.95 1056.24 1171.58 1059.91 1157.53 1060.68 1150.05 1054.11 1148 1017.94 1191.82 1015.19"/>
        <polygon class="cls-41" points="1103.31 734.49 1121.78 757.07 1117.66 760.38 1093.28 780.34 1083.21 779.37 1068.47 761.32 1103.31 734.49"/>
        <polygon class="cls-41" points="1046.62 665.19 1065.26 687.98 1031.28 715.77 1024.27 707.19 1017.77 699.3 1017.65 699.18 1012.34 692.75 1012.03 692.53 1046.62 665.19"/>
        <polygon class="cls-41" points="1018.57 640.88 1027.48 641.78 1046.62 665.19 1012.03 692.53 1001.28 684.56 1001.24 684.54 1018.57 640.88"/>
        <polygon class="cls-41" points="1099.29 660.17 1120.55 686.25 1123.74 690.13 1125.78 692.6 1092.19 720.91 1083.99 710.86 1065.26 687.98 1099.29 660.17"/>
        <polygon class="cls-41" points="1125.78 692.6 1131.06 698.99 1131.52 700.55 1131.59 700.62 1135.1 711.52 1133.4 740.78 1129.21 748.89 1127.49 752.34 1121.78 757.07 1103.31 734.49 1092.19 720.91 1125.78 692.6"/>
        <polygon class="cls-41" points="1027.48 641.78 1082.3 647.34 1093.86 653.49 1099.29 660.17 1065.26 687.98 1046.62 665.19 1027.48 641.78"/>
        <polygon class="cls-41" points="1010.27 640.04 1018.57 640.88 1001.24 684.54 954.96 666.32 954.79 660.79 956.48 660.1 962.15 657.53 972.29 653.1 973.26 652.63 996.8 642.14 1010.27 640.04"/>
        <polygon class="cls-41" points="1065.26 687.98 1083.99 710.86 1050.13 738.85 1031.28 715.77 1065.26 687.98"/>
        <polygon class="cls-41" points="1270.01 829.03 1299.62 830.05 1298.74 874 1268.84 873 1270.01 829.03"/>
        <polygon class="cls-41" points="1281.48 685.34 1321.94 711.9 1269.76 730.12 1256.91 721.68 1256.91 721.67 1281.48 685.34"/>
        <polygon class="cls-41" points="1252.78 889.48 1301.84 891.08 1308.71 898.49 1308.61 900.95 1308.35 907.61 1308.34 908.33 1291.69 923.95 1246.69 906.69 1246.69 906.48 1246.09 896.23 1246.45 895.99 1250.47 891.82 1250.69 891.58 1252.78 889.48"/>
        <polygon class="cls-41" points="1323.14 907.83 1341.83 932.73 1337.92 940.04 1293.58 956.73 1292.91 945.01 1291.69 923.95 1308.34 908.33 1315.72 908.06 1323.14 907.83"/>
        <polygon class="cls-41" points="1337.92 940.04 1346.62 944.71 1349.5 954.35 1338.31 975.09 1310.62 989.71 1294.62 974.87 1293.58 956.73 1337.92 940.04"/>
        <polygon class="cls-41" points="1294.62 974.87 1310.62 989.71 1259.39 1016.77 1252.72 1013.09 1250.7 977.42 1294.62 974.87"/>
        <polygon class="cls-41" points="1292.91 945.01 1293.58 956.73 1294.62 974.87 1250.7 977.42 1249.84 962.45 1249.76 960.92 1249.12 948.71 1249.05 947.63 1249.04 947.55 1292.91 945.01"/>
        <polygon class="cls-41" points="1246.69 906.69 1291.69 923.95 1292.91 945.01 1249.04 947.55 1249.02 947.27 1248.83 943.43 1246.69 906.69"/>
        <polygon class="cls-41" points="1219.03 1057.4 1219.04 1057.41 1193.1 1071.12 1193.1 1071.1 1195.08 1070.05 1213.22 1060.45 1215.66 1059.17 1219.03 1057.4"/>
        <polygon class="cls-41" points="1157.07 814.6 1174.87 836.37 1173.83 869.79 1146.6 868.88 1139.02 861.46 1139.03 860.38 1138.64 853.66 1133.76 841.11 1132.1 839.07 1157.03 814.66 1157.07 814.6"/>
        <polygon class="cls-41" points="1210.61 826.99 1240.36 828.01 1238.99 871.98 1209.24 870.99 1210.61 826.99"/>
        <polygon class="cls-41" points="1240.36 828.01 1270.01 829.03 1268.84 873 1238.99 871.98 1240.36 828.01"/>
        <polygon class="cls-41" points="1299.62 830.05 1329.7 831.07 1328.15 874.98 1298.74 874 1299.62 830.05"/>
        <polygon class="cls-41" points="1095.38 587.43 1138.35 591.83 1103.05 637.86 1102.59 637.29 1091.2 631.23 1095.38 587.43"/>
        <polygon class="cls-41" points="874.65 659.02 883.92 656.5 886.98 657.74 870.24 698.4 842.88 687.59 857.07 652.08 874.65 659.02"/>
        <polygon class="cls-41" points="1199.46 826.6 1199.35 829.14 1210.61 826.99 1209.24 870.99 1179.48 869.99 1180.86 826.13 1199.46 826.6"/>
        <polygon class="cls-41" points="1154.33 1112.82 1179.93 1127.58 1183.88 1137.84 1181.63 1144.41 1180.88 1146.8 1180.38 1148.35 1174.63 1165.8 1164.01 1170.58 1136.16 1160.32 1154.33 1112.82"/>
        <polygon class="cls-41" points="1150.43 741.3 1179.11 742.87 1208.9 762.32 1201.21 785.95 1180.28 774 1147.01 755 1148.24 752.62 1149.97 749.16 1150.43 741.3"/>
        <polygon class="cls-41" points="1147.01 755 1180.28 774 1157.07 814.6 1125.49 775.95 1144.06 760.72 1147.01 755"/>
        <polygon class="cls-41" points="1125.49 775.95 1157.07 814.6 1157.03 814.66 1132.1 839.07 1103.05 803.51 1104.02 793.56 1125.49 775.95"/>
        <polygon class="cls-41" points="1198.33 703.59 1220.7 718.28 1222.73 728.03 1220.9 730.77 1218.57 734.47 1218.28 734.91 1217.34 736.36 1208.9 762.32 1179.11 742.87 1179.24 742.88 1198.33 703.59"/>
        <polygon class="cls-41" points="1185.52 701.26 1198.33 703.59 1179.24 742.88 1179.11 742.87 1150.43 741.3 1151.97 715.34 1159.29 706.8 1185.52 701.26"/>
        <polygon class="cls-41" points="1119.82 631.75 1146.23 649.09 1171.11 665.43 1186.92 683.49 1154.22 690.53 1142.75 686.54 1111.86 648.65 1111.09 647.72 1109 645.14 1119.82 631.75"/>
        <polygon class="cls-41" points="1519.91 1677.42 1519 1758.4 1519.23 1677.43 1519.91 1677.42"/>
        <polygon class="cls-41" points="1884.34 1666.61 1908.31 1677.68 1905.55 1683.86 1883.17 1734.09 1873.76 1737.69 1865.17 1733.85 1864.93 1733.73 1863.62 1733.11 1862.56 1733.15 1856.55 1681.09 1884.34 1666.61"/>
        <polygon class="cls-41" points="1396.78 866.68 1424.68 888.71 1390.49 913.91 1389.28 913.26 1380.58 908.55 1378.99 907.71 1378.95 907.69 1365.63 900.52 1396.78 866.68"/>
        <polygon class="cls-41" points="1330.75 892.06 1345.03 892.61 1358.42 896.62 1365.63 900.52 1378.95 907.69 1375.69 905.97 1374.22 908.47 1371.39 913.71 1366.59 922.65 1364.01 927.42 1354.37 930.29 1348.77 927.22 1345.67 925.62 1344.81 927.17 1343.21 930.15 1341.83 932.73 1323.14 907.83 1323.11 907.8 1323.46 898.92 1323.83 898.69 1330.75 892.06"/>
        <polygon class="cls-41" points="1373.6 848.39 1396.78 866.68 1365.63 900.52 1358.42 896.62 1345.03 892.61 1345.14 889.07 1345.15 889 1345.2 888.53 1345.4 882.15 1373.6 848.39"/>
        <polygon class="cls-41" points="1525.72 1925.2 1543.48 1940.5 1547.52 1961.55 1529.85 1981.96 1508.97 1963.45 1499.74 1955.38 1525.67 1925.26 1525.72 1925.2"/>
        <polygon class="cls-41" points="1498.61 1901.82 1525.72 1925.2 1525.67 1925.26 1499.74 1955.38 1472.79 1931.88 1472.76 1931.86 1498.61 1901.82"/>
        <polygon class="cls-41" points="1338.88 1763.89 1346.15 1770.23 1346.01 1770.25 1360.44 1782.68 1364.7 1786.4 1367.43 1788.76 1327.28 1804.83 1326.79 1805.04 1326.78 1805.04 1324.15 1806.09 1291.36 1778.53 1289.59 1777.05 1292.51 1776.27 1293.74 1775.94 1338.88 1763.89"/>
        <polygon class="cls-41" points="1833.02 1916.21 1841.46 1918.28 1861.81 1969.93 1836.86 1970.86 1819.83 1966.47 1823.08 1918.59 1823.15 1918.6 1833.02 1916.21"/>
        <polygon class="cls-41" points="1784.45 1886.17 1795.49 1913.92 1823.08 1918.59 1819.83 1966.47 1788.18 1958.3 1789.71 1914.92 1778.48 1886.28 1784.45 1886.17"/>
        <polygon class="cls-41" points="1546.2 1677.35 1583.73 1698.6 1584.15 1721.15 1554.46 1721.19 1524.7 1721.23 1524.61 1765.25 1518.98 1765.26 1519 1758.4 1519.91 1677.42 1546.2 1677.35"/>
        <polygon class="cls-41" points="1513.38 1721.33 1513.26 1765.26 1484.37 1765.32 1483.5 1765.33 1483.62 1721.35 1483.62 1721.34 1513.38 1721.33"/>
        <polygon class="cls-41" points="1519.23 1677.43 1519 1758.4 1518.92 1765.26 1513.44 1765.27 1513.26 1765.26 1513.38 1721.33 1483.62 1721.34 1483.62 1721.35 1453.82 1721.38 1453.86 1698.76 1494 1677.51 1519.23 1677.43"/>
        <polygon class="cls-41" points="1471.54 1878.49 1474.26 1880.83 1474.61 1881.14 1475.71 1882.12 1477.02 1883.22 1481.05 1886.75 1485.2 1890.27 1485.42 1890.45 1498.61 1901.82 1472.76 1931.86 1472.75 1931.86 1445.94 1908.46 1460.89 1890.95 1461.1 1890.7 1471.54 1878.49"/>
        <polygon class="cls-41" points="1390.43 1808.58 1417.74 1832.13 1391.45 1862.66 1391.2 1862.45 1364.14 1839.71 1389.78 1809.34 1389.93 1809.17 1390.39 1808.64 1390.43 1808.58"/>
        <polygon class="cls-41" points="1367.43 1788.76 1369.35 1790.42 1388.37 1806.81 1390.43 1808.58 1390.39 1808.64 1389.93 1809.17 1389.78 1809.34 1363.88 1839.48 1353.18 1830.49 1324.15 1806.09 1326.78 1805.04 1326.79 1805.04 1327.28 1804.83 1367.43 1788.76"/>
        <polygon class="cls-41" points="1444.62 1855.29 1471.5 1878.46 1471.54 1878.49 1461.1 1890.7 1460.89 1890.95 1445.85 1908.37 1418.62 1885.49 1419.18 1884.83 1419.2 1884.8 1444.62 1855.29"/>
        <polygon class="cls-41" points="1322.97 1739.26 1356.9 1768.56 1348.05 1769.92 1346.16 1770.23 1346.15 1770.23 1338.88 1763.89 1293.74 1775.94 1292.51 1776.27 1289.59 1777.05 1249.71 1743.53 1253.22 1743.31 1255.69 1743.16 1322.97 1739.26"/>
        <polygon class="cls-41" points="1417.74 1832.13 1444.62 1855.29 1419.2 1884.8 1419.18 1884.83 1418.62 1885.49 1414.33 1881.89 1415 1881.09 1414.32 1881.88 1391.45 1862.66 1417.74 1832.13"/>
        <polygon class="cls-41" points="1887.05 1767.45 1887.16 1767.48 1940.3 1780.54 1933.01 1808.83 1880.25 1795.54 1880.77 1793.38 1887.05 1767.45"/>
        <polygon class="cls-41" points="1899.05 1739.99 1899.15 1740.01 1946.74 1751.71 1940.3 1780.54 1887.16 1767.48 1887.05 1767.45 1887.3 1766.45 1899.05 1739.99"/>
        <polygon class="cls-41" points="1923.54 1684.9 1923.65 1684.95 1959.25 1701.38 1956.86 1706.38 1946.74 1751.71 1899.15 1740.01 1899.05 1739.99 1923.54 1684.9"/>
        <polygon class="cls-41" points="1192.35 1071.11 1192.51 1071.41 1199.84 1085.62 1196.74 1079.81 1199.89 1085.84 1202.18 1090.15 1212.47 1110.12 1198.65 1117.51 1197.6 1118.15 1197.32 1118.33 1195.77 1117.47 1182.19 1109.61 1151.45 1091.81 1151.07 1085.2 1157.76 1077.73 1175.53 1076.64 1188.78 1072.97 1192.17 1071.22 1192.32 1071.51 1192.33 1071.51 1193.11 1073.03 1194.34 1075.29 1192.33 1071.51 1192.17 1071.22 1192.35 1071.11"/>
        <polygon class="cls-41" points="1219.04 1057.41 1239.99 1095.96 1240.02 1096.02 1213.24 1110.19 1213.22 1110.13 1202.92 1090.16 1200.59 1085.63 1193.1 1071.12 1219.04 1057.41"/>
        <polygon class="cls-41" points="1245.17 1043.58 1254.43 1060.26 1254.5 1060.39 1266.08 1082.23 1256.74 1087.17 1255.57 1087.78 1239.99 1095.96 1219.04 1057.41 1219.26 1057.29 1245.17 1043.58"/>
    </g>
    <g id="line-2">
        <line class="cls-38" x1="571.4" y1="1161.37" x2="538.28" y2="1288.06"/>
        <line class="cls-35" x1="571.4" y1="1161.37" x2="609.42" y2="1016.42"/>
        <line class="cls-35" x1="609.42" y1="1016.42" x2="468.7" y2="4.93"/>
        <line class="cls-38" x1="544.11" y1="1137.85" x2="511.02" y2="1264.43"/>
        <line class="cls-35" x1="544.11" y1="1137.85" x2="576.44" y2="1014.55"/>
        <line class="cls-35" x1="576.44" y1="1014.55" x2="435.94" y2="4.5"/>
        <polyline class="cls-37" points="623.69 962.6 514.12 174.86 1419.26 475.46 1445.43 905.08"/>
        <line class="cls-38" x1="538.28" y1="1288.06" x2="511.02" y2="1264.43"/>
    </g>
    <g id="outside-text">
        <text class="cls-11" transform="translate(1927.08 1362.16) rotate(-4.45)">
            <tspan x="0" y="0">12,19m E.P.T.L. SERV.</tspan>
        </text>
        <text class="cls-9" transform="translate(1421.92 1720.89) rotate(-89.7)">
            <tspan x="0" y="0">Storm Water Serv. 3m</tspan>
        </text>
        <text class="cls-13" transform="translate(1171.86 1288.01) rotate(3.14)">
            <tspan x="0" y="0">N.D.S.</tspan>
        </text>
        <text class="cls-9" transform="translate(1952.12 1863.88) rotate(1)">
            <tspan x="0" y="0">PORTION X OF ERF Y</tspan>
        </text>
        <text class="cls-9" transform="translate(1952 1870.84) rotate(1)">
            <tspan x="0" y="0">ROAD EXPRO DIAGRAM NO. ABC</tspan>
        </text>
        <text class="cls-9" transform="translate(1951.86 1878.39) rotate(1)">
            <tspan x="0" y="0">989 m2 in extent</tspan>
        </text>
        <text class="cls-9" transform="translate(2362.48 1076.51) rotate(-.83)">
            <tspan x="0" y="0">PORTION y OF ERF x</tspan>
        </text>
        <text class="cls-9" transform="translate(2346.04 1083.47) rotate(-.83)">
            <tspan x="0" y="0">ROAD EXPRO DIAGRAM NO. RST</tspan>
        </text>
        <text class="cls-9" transform="translate(2365.86 1091.03) rotate(-.83)">
            <tspan x="0" y="0">2365 m2 in extent</tspan>
        </text>
        <text class="cls-10" transform="translate(4.84 350.76) rotate(1.92)">
            <tspan x="0" y="0" xml:space="preserve">NATIONAL  ROUTE  N2</tspan>
        </text>
        <text class="cls-14" transform="translate(1935.6 1897.59) rotate(5.16)">
            <tspan x="0" y="0">Storm Water Serv. 3m</tspan>
        </text>
        <text class="cls-24" transform="translate(644.9 986.7) rotate(1.04)">
            <tspan x="0" y="0">Building Restriction Serv. 20m</tspan>
        </text>
        <text class="cls-25" transform="translate(1466.2 1121.03) rotate(5.18)">
            <tspan x="0" y="0">40 UNITS/ha </tspan>
        </text>
        <text class="cls-2" transform="translate(2247.26 1539.85) rotate(-59.87)">
            <tspan x="0" y="0">R102 Main Road</tspan>
        </text>
        <text class="cls-7" transform="translate(1161.02 1656.14) rotate(-.23)">
            <tspan x="0" y="0">11KV Elec. Overhead Lines to be Relocated</tspan>
        </text>
        <text class="cls-8" transform="translate(1175 1401.31) rotate(1.03)">
            <tspan x="0" y="0">Storm Water Serv. 3m</tspan>
        </text>
        <text class="cls-9" transform="translate(2113.66 783.74) rotate(2.5)">
            <tspan x="0" y="0">PORTIN y OF ERF x</tspan>
        </text>
        <text class="cls-9" transform="translate(2095.19 792.22) rotate(2.5)">
            <tspan x="0" y="0">ROAD EXPRO DIAGRAM NO. RST</tspan>
        </text>
        <text class="cls-9" transform="translate(2114.99 802.38) rotate(2.5)">
            <tspan x="0" y="0">2365 m2 in extent</tspan>
        </text>
        <text class="cls-5" transform="translate(817.07 1350.24) rotate(-1.41)">
            <tspan x="0" y="0">11KV Elec. Overhead Lines to be Relocated</tspan>
        </text>
        <text class="cls-6" transform="translate(448.39 588) rotate(78.2)">
            <tspan x="0" y="0">Building Restriction Serv. 20m</tspan>
        </text>
        <text class="cls-31" transform="translate(892.24 1005.71) rotate(4.89)">
            <tspan x="0" y="0">N.D.S.</tspan>
        </text>
        <text class="cls-15" transform="translate(1204.51 818.27) rotate(.75)">
            <tspan x="0" y="0">40 UNITS/ha </tspan>
        </text>
        <text class="cls-2" transform="translate(1885.89 1070.52) rotate(-2.78)">
            <tspan x="0" y="0">R102 Main Road</tspan>
        </text>
        <text class="cls-12" transform="translate(558.26 1062.94) rotate(.48)">
            <tspan x="0" y="0">88m wide</tspan>
        </text>
        <text class="cls-4" transform="translate(567.21 1049.69) rotate(.34)">
            <tspan x="0" y="0">N.B.S.</tspan>
        </text>
        <text class="cls-12" transform="translate(320.01 763.65) rotate(1.74)">
            <tspan x="0" y="0">88m wide</tspan>
        </text>
        <text class="cls-4" transform="translate(329.2 750.65) rotate(1.59)">
            <tspan x="0" y="0">N.B.S.</tspan>
        </text>
        <text class="cls-28" transform="translate(1681.17 969.27) rotate(5.34)">
            <tspan x="0" y="0">12,19m E.P.T.L. SERV.</tspan>
        </text>
        <text class="cls-14" transform="translate(1681.17 1600.02) rotate(3.72)">
            <tspan x="0" y="0">Storm Water Serv. 3m</tspan>
        </text>
        <text class="cls-9" transform="translate(1710.02 1625.21) rotate(3.16)">
            <tspan x="0" y="0">PORTION X OF ERF Y</tspan>
        </text>
        <text class="cls-9" transform="translate(1709.64 1632.16) rotate(3.16)">
            <tspan x="0" y="0">ROAD EXPRO DIAGRAM NO. ABC</tspan>
        </text>
        <text class="cls-9" transform="translate(1709.22 1639.71) rotate(3.16)">
            <tspan x="0" y="0">989 m2 in extent</tspan>
        </text>
    </g>
    <g id="on-layer-text">
        <text class="cls-23" transform="translate(1680.38 2105.72) rotate(5.76)">
            <tspan x="0" y="0">30-50 UNITS/ha </tspan>
        </text>
        <text class="cls-23" transform="translate(670.93 1148.07) rotate(.01)">
            <tspan x="0" y="0">30-50 UNITS/ha </tspan>
        </text>
        <text class="cls-23" transform="translate(764.22 967.39) rotate(-.23)">
            <tspan x="0" y="0">30-50 UNITS/ha </tspan>
        </text>
        <text class="cls-23" transform="translate(1001.67 1507.12) rotate(.87)">
            <tspan x="0" y="0">30-50 UNITS/ha </tspan>
        </text>
        <text class="cls-19" transform="translate(1247.01 1564.89) rotate(-4.14)">
            <tspan x="0" y="0">30-50 UNITS/ha </tspan>
        </text>
        <text class="cls-5" transform="translate(1076.21 1332.62) rotate(2.48)">
            <tspan x="0" y="0">INSTITUTION</tspan>
        </text>
        <text class="cls-17" transform="translate(1066.91 1242.68) rotate(3.84)">
            <tspan x="0" y="0">COM</tspan>
        </text>
        <text class="cls-30" transform="translate(1010.33 687.98) rotate(4.32)">
            <tspan x="0" y="0">MINIMUM 650m</tspan>
        </text>
        <text class="cls-27" transform="translate(1139.32 962.95) rotate(-.66)">
            <tspan x="0" y="0">MINIMUM 650m</tspan>
        </text>
        <text class="cls-25" transform="translate(1714.19 1276.07) rotate(5.73)">
            <tspan x="0" y="0">MINIMUM 650m</tspan>
        </text>
        <text class="cls-27" transform="translate(1590.31 1812.96) rotate(.51)">
            <tspan x="0" y="0">MINIMUM 650m</tspan>
        </text>
        <text class="cls-27" transform="translate(1310.16 1284.56) rotate(3.19)">
            <tspan x="0" y="0">MINIMUM 500m</tspan>
        </text>
        <polygon class="cls-43" points="1595.91 2042.35 1596.38 2042.84 1594.82 2042.82 1595.91 2042.35"/>
        <path class="cls-43" d="m1629.72,2072.2l-.36.36h.84s-.48-.36-.48-.36Zm-.96-.01h.96s-.36.37-.36.37l-.6-.37Zm-33.94-29.37l33.94,29.37h.96s-34.9-29.37-34.9-29.37Z"/>
        <polygon class="cls-43" points="1594.82 2042.82 1596.38 2042.84 1629.72 2072.2 1594.82 2042.82"/>
        <path class="cls-43" d="m1640.99,2082.31h-.48s.48,0,.48,0Zm0,0h-.48s.48,0,.48,0Z"/>
        <path class="cls-43" d="m1640.99,2082.31h-.48s11.87,10.11,11.87,10.11l-11.39-10.11Zm-11.63-9.75l11.63,9.75h-.48s-11.15-9.75-11.15-9.75Zm.84.01h-.84s11.63,9.74,11.63,9.74l-10.79-9.74Z"/>
        <polygon class="cls-43" points="1550.97 2000.72 1553.81 2003.4 1549.01 2003.33 1550.97 2000.72"/>
        <path class="cls-43" d="m1594.35,2042.33l1.56.02-1.09.47-.47-.49Zm-45.33-39l45.33,39,1.56.02-46.89-39.02Z"/>
        <polygon class="cls-43" points="1549.01 2003.33 1553.81 2003.4 1595.91 2042.35 1549.01 2003.33"/>
        <polygon class="cls-43" points="1508.97 1963.45 1512.53 1966.61 1506.41 1966.53 1508.97 1963.45"/>
        <path class="cls-43" d="m1545.93,2000.65l5.04.07-1.95,2.61-3.09-2.68Zm-39.52-34.12l39.52,34.12,5.04.07-44.56-34.19Z"/>
        <polygon class="cls-43" points="1506.41 1966.53 1512.53 1966.61 1550.97 2000.72 1506.41 1966.53"/>
        <polygon class="cls-43" points="1415 1881.09 1419.27 1884.98 1411.83 1884.89 1415 1881.09"/>
        <path class="cls-43" d="m1411.83,1884.89l19.06,10.45-7.08-.09-11.99-10.36Zm7.44.1l-7.44-.1,19.06,10.45-11.63-10.35Z"/>
        <path class="cls-43" d="m1502.73,1963.36l6.24.08-2.56,3.09-3.68-3.17Zm-78.91-68.12l78.91,68.12,6.24.08-85.15-68.2Z"/>
        <polygon class="cls-43" points="1423.82 1895.24 1430.9 1895.34 1508.97 1963.45 1423.82 1895.24"/>
        <text class="cls-18" transform="translate(1761.68 2170.26) rotate(39.91) scale(1 1.19)">
            <tspan x="0" y="0">PRECAST WALL</tspan>
        </text>
        <text class="cls-22" transform="translate(1702.77 2120.9) rotate(39.58) scale(1 1.19)">
            <tspan x="0" y="0">NEW CLEARVU FENCE</tspan>
        </text>
        <text class="cls-18" transform="translate(1527.76 1978.46) rotate(40.78) scale(1 1.19)">
            <tspan x="0" y="0">WIRE FENCE</tspan>
        </text>
        <text class="cls-22" transform="translate(1465.8 1919.99) rotate(41.66) scale(1 1.19)">
            <tspan x="0" y="0">BRICK WALL AND BUILDING</tspan>
        </text>
        <text class="cls-18" transform="translate(1612.79 2055.66) rotate(40.78) scale(1 1.19)">
            <tspan x="0" y="0">WIRE FENCE</tspan>
        </text>
        <text class="cls-18" transform="translate(1633.75 2075.23) rotate(40.97) scale(1 1.19)">
            <tspan x="0" y="0">PRECAST WALL</tspan>
        </text>
        <text class="cls-18" transform="translate(1572.68 2018.75) rotate(40.97) scale(1 1.19)">
            <tspan x="0" y="0">PRECAST WALL</tspan>
        </text>
        <text class="cls-20" transform="translate(1747.91 2198.33) rotate(41.35) scale(1 1.19)">
            <tspan x="0" y="0">1</tspan>
        </text>
        <text class="cls-20" transform="translate(1725.66 2228.8) rotate(43.63) scale(1 1.19)">
            <tspan x="0" y="0">2</tspan>
        </text>
        <text class="cls-26" transform="translate(1699.02 2246.97) rotate(39.41) scale(1 1.19)">
            <tspan x="0" y="0">3</tspan>
        </text>
        <text class="cls-26" transform="translate(1691.32 2184.11) rotate(39.41) scale(1 1.19)">
            <tspan x="0" y="0">4</tspan>
        </text>
        <text class="cls-21" transform="translate(1665.14 2146.44) rotate(41.66) scale(1 1.19)">
            <tspan x="0" y="0">5</tspan>
        </text>
        <text class="cls-21" transform="translate(1630.23 2127.27) rotate(41.66) scale(1 1.19)">
            <tspan x="0" y="0">6</tspan>
        </text>
        <text class="cls-26" transform="translate(1603.63 2098.95) rotate(39.41) scale(1 1.19)">
            <tspan x="0" y="0">7</tspan>
        </text>
        <text class="cls-26" transform="translate(1581.87 2064.7) rotate(39.41) scale(1 1.19)">
            <tspan x="0" y="0">8</tspan>
        </text>
        <text class="cls-21" transform="translate(1554.16 2034.7) rotate(41.66) scale(1 1.19)">
            <tspan x="0" y="0">9</tspan>
        </text>
        <text class="cls-32" transform="translate(1515.35 1998.96) rotate(40.36) scale(1 1.19)">
            <tspan x="0" y="0">10</tspan>
        </text>
        <text class="cls-32" transform="translate(1471.7 1958.86) rotate(40.55) scale(1 1.19)">
            <tspan x="0" y="0">11</tspan>
        </text>
        <text class="cls-16" transform="translate(1758.6 2254.5) rotate(-53.2) scale(1 1.19)">
            <tspan x="0" y="0">PALM KLOOF DRIVE</tspan>
        </text>
        <text class="cls-20" transform="translate(1595.58 2147.87) rotate(56.83) scale(1 1.19)">
            <tspan x="0" y="0">TERRACE ROAD</tspan>
        </text>
        <text class="cls-20" transform="translate(1389.98 1910.21) rotate(40.81) scale(1 1.19)">
            <tspan x="0" y="0">144</tspan>
        </text>
        <text class="cls-20" transform="translate(1439.95 1993.39) rotate(40.78) scale(1 1.19)">
            <tspan x="0" y="0">REM OF 3</tspan>
        </text>
        <text class="cls-16" transform="translate(1374.61 1838.33) rotate(40.68) scale(1 1.19)">
            <tspan x="0" y="0">Water Pipeline Servitude 6m</tspan>
        </text>
        <text class="cls-20" transform="translate(1341.35 1888.89) rotate(40.78) scale(1 1.19)">
            <tspan x="0" y="0">REM OF 2</tspan>
        </text>
        <text class="cls-3" transform="translate(1620.06 2025.09) rotate(5.39) scale(1 1.19)">
            <tspan x="0" y="0">PTN 21</tspan>
        </text>
        <text class="cls-32" transform="translate(1508.85 2081.49) rotate(41.08) scale(1 1.19)">
            <tspan x="0" y="0">REM OF 32</tspan>
        </text>
        <text class="cls-29" transform="translate(1416.84 1875.31) rotate(40.55) scale(1 1.19)">
            <tspan x="0" y="0">3,5m</tspan>
        </text>
        <text class="cls-29" transform="translate(1510.58 1955.82) rotate(41.15) scale(1 1.19)">
            <tspan x="0" y="0">2,8m</tspan>
        </text>
        <text class="cls-29" transform="translate(1557 1998.1) rotate(41.15) scale(1 1.19)">
            <tspan x="0" y="0">2,3m</tspan>
        </text>
        <text class="cls-29" transform="translate(1599.31 2032.68) rotate(37.98) scale(1 1.19)">
            <tspan x="0" y="0">0,7m</tspan>
        </text>
        <text class="cls-29" transform="translate(1644.81 2072.23) rotate(39.91) scale(1 1.19)">
            <tspan x="0" y="0">0,1m</tspan>
        </text>
        <text class="cls-33" transform="translate(1658.3 2082.97) rotate(41.49) scale(1 1.19)">
            <tspan x="0" y="0">6,1m</tspan>
        </text>
        <text class="cls-29" transform="translate(1737.54 2148.41) rotate(38.12) scale(1 1.19)">
            <tspan x="0" y="0">7,9m</tspan>
        </text>
        <text class="cls-29" transform="translate(1783.5 2191.66) rotate(40.44) scale(1 1.19)">
            <tspan x="0" y="0">8,0m</tspan>
        </text>
        <path class="cls-1" d="m516.31,1125.01l838.53,703.57-9.26,10.68-829.27-714.25Zm13.18-7.39l-13.18,7.39,838.53,703.57-825.36-710.95Zm-52.71-227.03l52.71,227.03-13.18,7.39-39.53-234.42Zm14.07-2.46l-14.07,2.46,52.71,227.03-38.64-229.49Zm-33.32-104.37l33.32,104.37-14.07,2.46-19.24-106.82Zm13.96-2.58l-13.96,2.58,33.32,104.37-19.36-106.94Zm-100.67-477.4l100.67,477.4-13.96,2.58-86.72-479.98Zm13.96-2.58l-13.96,2.58,100.67,477.4-86.72-479.98Zm-27.5-72.13l27.5,72.13-13.96,2.58-13.54-74.7Zm13.96-2.58l-13.96,2.58,27.5,72.13-13.54-74.7Zm-20.11-31.47l20.11,31.47-13.96,2.58-6.15-34.04Zm13.96-2.82l-13.96,2.82,20.11,31.47-6.15-34.28Zm-33.08-85.4l33.08,85.4-13.96,2.82-19.13-88.22Zm19.04,21.25l-19.04-21.25,33.08,85.4-14.04-64.15Zm2151.02,699.52L351.04,128.08l-19.04-21.25,2170.06,720.77Zm-21.82,7.63l21.82-7.63L351.04,128.08l2129.2,707.16Zm-451.82,722.42l451.82-722.42,21.82-7.63-473.65,730.06Zm-12.64-6.41l12.64,6.41,451.82-722.42-464.46,716.02Zm-44.93,159.15l44.93-159.15,12.64,6.41-57.57,152.74Zm-13.63-4.14l13.63,4.14,44.93-159.15-58.56,155.01Zm-61.52,335.82l61.52-335.82,13.63,4.14-75.15,331.68Zm-13.5-4.5l13.5,4.5,61.52-335.82-75.03,331.33Zm-71.62,190.36l71.62-190.36,13.5,4.5-85.12,185.86Zm-12.88-5.93l12.88,5.93,71.62-190.36-84.5,184.43Z"/>
        <path d="m1373.15,1842.14l-27.21-2.52,8.43-11.41,18.78,13.93Zm-8.91,11.04l8.91-11.04-27.21-2.52,18.3,13.56Zm189.28,144.93l-189.28-144.93,8.91-11.04,180.37,155.98Zm-9.26,10.68l9.26-10.68-189.28-144.93,180.02,155.61Zm265,209.65l-265-209.65,9.26-10.68,255.74,220.33Zm-9.26,10.8l9.26-10.8-265-209.65,255.73,220.45Z"/>
    </g>
</svg>